<svg width="214" height="186" viewBox="0 0 214 186" fill="none" xmlns="http://www.w3.org/2000/svg">
<path d="M26.3062 0H100.306L74.3062 186H0.306152L26.3062 0Z" fill="url(#paint0_linear_3514_18868)"/>
<path d="M100 0H214V186H74L100 0Z" fill="black"/>
<path d="M86.4499 66.6715C91.3625 33.9179 105.8 23 144.2 23H153.8C192.2 23 203.362 33.9179 198.45 66.6715L191.081 115.802C186.168 148.556 171.731 159.473 133.331 159.473H123.731C85.3308 159.473 74.1684 148.556 79.081 115.802L86.4499 66.6715Z" fill="#D3D3D3"/>
<mask id="path-4-outside-1_3514_18868" maskUnits="userSpaceOnUse" x="104" y="33" width="72" height="119" fill="black">
<rect fill="white" x="104" y="33" width="72" height="119"/>
<path d="M131.916 149.523C123.893 149.32 117.748 146.273 113.482 140.383C109.217 134.441 106.982 126.037 106.779 115.17V111.895C106.881 108.34 107.135 104.963 107.541 101.764L110.131 84.0918C112.518 68.0449 116.961 55.8828 123.461 47.6055C129.961 39.3281 138.314 35.3164 148.521 35.5703C154.209 35.7227 158.982 37.3477 162.842 40.4453C166.752 43.543 169.57 48.0117 171.297 53.8516C173.074 59.6914 173.861 66.1152 173.658 73.123C173.557 76.6777 173.303 80.0293 172.896 83.1777L169.545 105.039C166.955 119.766 162.436 130.963 155.986 138.631C149.588 146.248 141.564 149.879 131.916 149.523ZM149.664 100.773H128.869L128.184 104.887L127.727 108.238C127.117 112.25 126.863 116.211 126.965 120.121C127.168 127.637 129.453 131.521 133.82 131.775C140.676 132.334 145.348 125.479 147.836 111.209L148.826 104.887L149.664 100.773ZM130.621 83.6348H151.568L152.102 79.9785C153.066 74.1387 153.498 69.0859 153.396 64.8203L153.244 62.6875C152.584 56.6953 150.4 53.5723 146.693 53.3184C139.635 52.7598 134.811 59.793 132.221 74.418L131.307 79.9785L130.621 83.6348Z"/>
</mask>
<path d="M131.916 149.523C123.893 149.32 117.748 146.273 113.482 140.383C109.217 134.441 106.982 126.037 106.779 115.17V111.895C106.881 108.34 107.135 104.963 107.541 101.764L110.131 84.0918C112.518 68.0449 116.961 55.8828 123.461 47.6055C129.961 39.3281 138.314 35.3164 148.521 35.5703C154.209 35.7227 158.982 37.3477 162.842 40.4453C166.752 43.543 169.57 48.0117 171.297 53.8516C173.074 59.6914 173.861 66.1152 173.658 73.123C173.557 76.6777 173.303 80.0293 172.896 83.1777L169.545 105.039C166.955 119.766 162.436 130.963 155.986 138.631C149.588 146.248 141.564 149.879 131.916 149.523ZM149.664 100.773H128.869L128.184 104.887L127.727 108.238C127.117 112.25 126.863 116.211 126.965 120.121C127.168 127.637 129.453 131.521 133.82 131.775C140.676 132.334 145.348 125.479 147.836 111.209L148.826 104.887L149.664 100.773ZM130.621 83.6348H151.568L152.102 79.9785C153.066 74.1387 153.498 69.0859 153.396 64.8203L153.244 62.6875C152.584 56.6953 150.4 53.5723 146.693 53.3184C139.635 52.7598 134.811 59.793 132.221 74.418L131.307 79.9785L130.621 83.6348Z" fill="black"/>
<path d="M131.916 149.523L131.99 147.525L131.978 147.524L131.967 147.524L131.916 149.523ZM113.482 140.383L111.858 141.549L111.863 141.556L113.482 140.383ZM106.779 115.17H104.779V115.189L104.78 115.207L106.779 115.17ZM106.779 111.895L104.78 111.837L104.779 111.866V111.895H106.779ZM107.541 101.764L105.562 101.474L105.559 101.493L105.557 101.512L107.541 101.764ZM110.131 84.0918L108.153 83.7976L108.152 83.8018L110.131 84.0918ZM148.521 35.5703L148.575 33.571L148.571 33.5709L148.521 35.5703ZM162.842 40.4453L161.59 42.0051L161.6 42.013L162.842 40.4453ZM171.297 53.8516L169.379 54.4186L169.381 54.4263L169.384 54.4339L171.297 53.8516ZM173.658 73.123L171.659 73.0651L171.659 73.0659L173.658 73.123ZM172.896 83.1777L174.873 83.4808L174.877 83.4573L174.88 83.4337L172.896 83.1777ZM169.545 105.039L171.515 105.385L171.518 105.364L171.522 105.342L169.545 105.039ZM155.986 138.631L154.456 137.344L154.455 137.344L155.986 138.631ZM149.664 100.773L151.624 101.173L152.113 98.7734H149.664V100.773ZM128.869 100.773V98.7734H127.175L126.896 100.445L128.869 100.773ZM128.184 104.887L126.211 104.558L126.206 104.587L126.202 104.616L128.184 104.887ZM127.727 108.238L129.704 108.539L129.706 108.524L129.708 108.509L127.727 108.238ZM126.965 120.121L124.966 120.173L124.966 120.175L126.965 120.121ZM133.82 131.775L133.983 129.782L133.96 129.78L133.936 129.779L133.82 131.775ZM147.836 111.209L149.806 111.553L149.809 111.536L149.812 111.518L147.836 111.209ZM148.826 104.887L146.866 104.488L146.857 104.532L146.85 104.577L148.826 104.887ZM130.621 83.6348L128.655 83.2662L128.211 85.6348H130.621V83.6348ZM151.568 83.6348V85.6348H153.298L153.547 83.9234L151.568 83.6348ZM152.102 79.9785L150.128 79.6525L150.125 79.6712L150.122 79.6899L152.102 79.9785ZM153.396 64.8203L155.396 64.7727L155.395 64.7252L155.391 64.6778L153.396 64.8203ZM153.244 62.6875L155.239 62.545L155.236 62.5067L155.232 62.4685L153.244 62.6875ZM146.693 53.3184L146.536 55.3121L146.546 55.313L146.557 55.3137L146.693 53.3184ZM132.221 74.418L130.251 74.0692L130.249 74.0814L130.247 74.0936L132.221 74.418ZM131.307 79.9785L133.272 80.3471L133.277 80.3251L133.28 80.3029L131.307 79.9785ZM131.967 147.524C124.492 147.335 118.961 144.538 115.102 139.21L111.863 141.556C116.535 148.009 123.293 151.306 131.865 151.523L131.967 147.524ZM115.107 139.216C111.167 133.729 108.978 125.78 108.779 115.133L104.78 115.207C104.987 126.294 107.266 135.154 111.858 141.549L115.107 139.216ZM108.779 115.17V111.895H104.779V115.17H108.779ZM108.778 111.952C108.878 108.456 109.128 105.144 109.525 102.016L105.557 101.512C105.142 104.782 104.883 108.224 104.78 111.837L108.778 111.952ZM109.52 102.054L112.11 84.3818L108.152 83.8018L105.562 101.474L109.52 102.054ZM112.109 84.386C114.47 68.5125 118.834 56.7356 125.034 48.8407L121.888 46.3703C115.088 55.03 110.565 67.5773 108.153 83.7976L112.109 84.386ZM125.034 48.8407C131.158 41.042 138.918 37.3321 148.472 37.5697L148.571 33.5709C137.71 33.3008 128.764 37.6143 121.888 46.3703L125.034 48.8407ZM148.468 37.5696C153.787 37.7121 158.121 39.2207 161.59 42.005L164.094 38.8856C159.844 35.4746 154.631 33.7332 148.575 33.571L148.468 37.5696ZM161.6 42.013C165.121 44.8028 167.743 48.8854 169.379 54.4186L173.215 53.2845C171.398 47.138 168.382 42.2832 164.084 38.8776L161.6 42.013ZM169.384 54.4339C171.089 60.0381 171.857 66.2423 171.659 73.0651L175.657 73.181C175.866 65.9881 175.059 59.3447 173.21 53.2692L169.384 54.4339ZM171.659 73.0659C171.559 76.5619 171.31 79.8466 170.913 82.9218L174.88 83.4337C175.296 80.212 175.554 76.7936 175.657 73.1802L171.659 73.0659ZM170.92 82.8747L167.568 104.736L171.522 105.342L174.873 83.4808L170.92 82.8747ZM167.575 104.693C165.018 119.231 160.593 130.046 154.456 137.344L157.517 139.918C164.278 131.88 168.892 120.3 171.515 105.385L167.575 104.693ZM154.455 137.344C148.439 144.506 141 147.857 131.99 147.525L131.842 151.522C142.129 151.901 150.737 147.99 157.518 139.917L154.455 137.344ZM149.664 98.7734H128.869V102.773H149.664V98.7734ZM126.896 100.445L126.211 104.558L130.156 105.216L130.842 101.102L126.896 100.445ZM126.202 104.616L125.745 107.968L129.708 108.509L130.165 105.157L126.202 104.616ZM125.749 107.938C125.123 112.062 124.861 116.141 124.966 120.173L128.964 120.069C128.866 116.281 129.112 112.438 129.704 108.539L125.749 107.938ZM124.966 120.175C125.071 124.072 125.714 127.318 127.107 129.685C128.576 132.182 130.83 133.605 133.704 133.772L133.936 129.779C132.443 129.692 131.371 129.045 130.555 127.657C129.663 126.14 129.062 123.686 128.964 120.067L124.966 120.175ZM133.658 133.769C137.962 134.119 141.476 132.056 144.119 128.179C146.693 124.402 148.544 118.789 149.806 111.553L145.866 110.865C144.639 117.898 142.911 122.848 140.813 125.926C138.784 128.905 136.534 129.99 133.983 129.782L133.658 133.769ZM149.812 111.518L150.802 105.196L146.85 104.577L145.86 110.9L149.812 111.518ZM150.786 105.286L151.624 101.173L147.704 100.374L146.866 104.488L150.786 105.286ZM130.621 85.6348H151.568V81.6348H130.621V85.6348ZM153.547 83.9234L154.081 80.2671L150.122 79.6899L149.589 83.3462L153.547 83.9234ZM154.075 80.3045C155.053 74.3848 155.501 69.201 155.396 64.7727L151.397 64.8679C151.495 68.9709 151.08 73.8925 150.128 79.6525L154.075 80.3045ZM155.391 64.6778L155.239 62.545L151.249 62.83L151.402 64.9628L155.391 64.6778ZM155.232 62.4685C154.885 59.3141 154.115 56.6566 152.75 54.705C151.322 52.6625 149.305 51.4925 146.83 51.323L146.557 55.3137C147.789 55.3981 148.717 55.9166 149.472 56.9971C150.291 58.1686 150.944 60.0687 151.256 62.9065L155.232 62.4685ZM146.851 51.3246C142.452 50.9764 138.851 53.0788 136.132 57.043C133.481 60.9083 131.564 66.6541 130.251 74.0692L134.19 74.7667C135.467 67.5568 137.258 62.4735 139.431 59.3056C141.536 56.2367 143.876 55.1017 146.536 55.3121L146.851 51.3246ZM130.247 74.0936L129.333 79.6541L133.28 80.3029L134.194 74.7424L130.247 74.0936ZM129.341 79.6099L128.655 83.2662L132.587 84.0033L133.272 80.3471L129.341 79.6099Z" fill="white" mask="url(#path-4-outside-1_3514_18868)"/>
<defs>
<linearGradient id="paint0_linear_3514_18868" x1="13.2827" y1="92.0836" x2="85.8315" y2="102.344" gradientUnits="userSpaceOnUse">
<stop stop-opacity="0"/>
<stop offset="1"/>
</linearGradient>
</defs>
</svg>
