<svg width="214" height="186" viewBox="0 0 214 186" fill="none" xmlns="http://www.w3.org/2000/svg">
<path d="M26.3062 0H100.306L74.3062 186H0.306152L26.3062 0Z" fill="url(#paint0_linear_1500_17457)"/>
<path d="M100 0H214V186H74L100 0Z" fill="black"/>
<path d="M86.4499 66.6715C91.3625 33.9179 105.8 23 144.2 23H153.8C192.2 23 203.362 33.9179 198.45 66.6715L191.081 115.802C186.168 148.556 171.731 159.473 133.331 159.473H123.731C85.3308 159.473 74.1684 148.556 79.081 115.802L86.4499 66.6715Z" fill="#D3D3D3"/>
<mask id="path-4-outside-1_1500_17457" maskUnits="userSpaceOnUse" x="115" y="34" width="53" height="116" fill="black">
<rect fill="white" x="115" y="34" width="53" height="116"/>
<path d="M165.018 36.9414L146.203 148H125.408L140.033 63.5254L118.172 71.5234L121.371 52.8613L162.352 36.8652L165.018 36.9414Z"/>
</mask>
<path d="M165.018 36.9414L146.203 148H125.408L140.033 63.5254L118.172 71.5234L121.371 52.8613L162.352 36.8652L165.018 36.9414Z" fill="black"/>
<path d="M165.018 36.9414L166.989 37.2755L167.374 35.0079L165.075 34.9422L165.018 36.9414ZM146.203 148V150H147.893L148.175 148.334L146.203 148ZM125.408 148L123.438 147.659L123.032 150H125.408V148ZM140.033 63.5254L142.004 63.8666L142.594 60.4589L139.346 61.6471L140.033 63.5254ZM118.172 71.5234L116.201 71.1855L115.617 74.5876L118.859 73.4017L118.172 71.5234ZM121.371 52.8613L120.644 50.9982L119.591 51.4093L119.4 52.5234L121.371 52.8613ZM162.352 36.8652L162.409 34.8661L162.003 34.8545L161.624 35.0021L162.352 36.8652ZM165.018 36.9414L163.046 36.6073L144.231 147.666L146.203 148L148.175 148.334L166.989 37.2755L165.018 36.9414ZM146.203 148V146H125.408V148V150H146.203V148ZM125.408 148L127.379 148.341L142.004 63.8666L140.033 63.5254L138.063 63.1842L123.438 147.659L125.408 148ZM140.033 63.5254L139.346 61.6471L117.485 69.6452L118.172 71.5234L118.859 73.4017L140.72 65.4036L140.033 63.5254ZM118.172 71.5234L120.143 71.8614L123.342 53.1993L121.371 52.8613L119.4 52.5234L116.201 71.1855L118.172 71.5234ZM121.371 52.8613L122.098 54.7244L163.079 38.7283L162.352 36.8652L161.624 35.0021L120.644 50.9982L121.371 52.8613ZM162.352 36.8652L162.294 38.8644L164.96 38.9406L165.018 36.9414L165.075 34.9422L162.409 34.8661L162.352 36.8652Z" fill="white" mask="url(#path-4-outside-1_1500_17457)"/>
<defs>
<linearGradient id="paint0_linear_1500_17457" x1="13.2827" y1="92.0836" x2="85.8315" y2="102.344" gradientUnits="userSpaceOnUse">
<stop stop-opacity="0"/>
<stop offset="1"/>
</linearGradient>
</defs>
</svg>
