<svg width="214" height="186" viewBox="0 0 214 186" fill="none" xmlns="http://www.w3.org/2000/svg">
<path d="M26.3062 0H100.306L74.3062 186H0.306152L26.3062 0Z" fill="url(#paint0_linear_3512_20440)"/>
<path d="M100 0H214V186H74L100 0Z" fill="black"/>
<path d="M86.4499 66.6715C91.3625 33.9179 105.8 23 144.2 23H153.8C192.2 23 203.362 33.9179 198.45 66.6715L191.081 115.802C186.168 148.556 171.731 159.473 133.331 159.473H123.731C85.3308 159.473 74.1684 148.556 79.081 115.802L86.4499 66.6715Z" fill="#D3D3D3"/>
<mask id="path-4-outside-1_3512_20440" maskUnits="userSpaceOnUse" x="97" y="33" width="79" height="117" fill="black">
<rect fill="white" x="97" y="33" width="79" height="117"/>
<path d="M163.68 148H100.152L102.666 131.928L136.867 94.6035C146.262 84.2441 151.289 75.3574 151.949 67.9434L152.102 63.9062C152.102 60.707 151.492 58.1426 150.273 56.2129C149.055 54.2832 147.277 53.293 144.941 53.2422C138.035 53.0898 133.693 58.752 131.916 70.2285L131.688 71.9805L110.74 72.0566C111.248 65.3535 113.127 59.1582 116.377 53.4707C119.627 47.7324 123.918 43.2891 129.25 40.1406C134.582 36.9922 140.473 35.4434 146.922 35.4941C155.961 35.6973 162.893 38.6426 167.717 44.3301C172.541 49.9668 174.547 57.3809 173.734 66.5723C173.277 71.8535 171.754 77.0586 169.164 82.1875C166.574 87.2656 162.816 92.6484 157.891 98.3359L147.455 109.762L130.469 130.1H166.498L163.68 148Z"/>
</mask>
<path d="M163.68 148H100.152L102.666 131.928L136.867 94.6035C146.262 84.2441 151.289 75.3574 151.949 67.9434L152.102 63.9062C152.102 60.707 151.492 58.1426 150.273 56.2129C149.055 54.2832 147.277 53.293 144.941 53.2422C138.035 53.0898 133.693 58.752 131.916 70.2285L131.688 71.9805L110.74 72.0566C111.248 65.3535 113.127 59.1582 116.377 53.4707C119.627 47.7324 123.918 43.2891 129.25 40.1406C134.582 36.9922 140.473 35.4434 146.922 35.4941C155.961 35.6973 162.893 38.6426 167.717 44.3301C172.541 49.9668 174.547 57.3809 173.734 66.5723C173.277 71.8535 171.754 77.0586 169.164 82.1875C166.574 87.2656 162.816 92.6484 157.891 98.3359L147.455 109.762L130.469 130.1H166.498L163.68 148Z" fill="black"/>
<path d="M163.68 148V150H165.389L165.655 148.311L163.68 148ZM100.152 148L98.1764 147.691L97.8152 150H100.152V148ZM102.666 131.928L101.191 130.577L100.783 131.022L100.69 131.619L102.666 131.928ZM136.867 94.6035L138.342 95.9547L138.349 95.9471L136.867 94.6035ZM151.949 67.9434L153.941 68.1207L153.946 68.0698L153.948 68.0188L151.949 67.9434ZM152.102 63.9062L154.1 63.9817L154.102 63.944V63.9062H152.102ZM144.941 53.2422L144.897 55.2417L144.898 55.2417L144.941 53.2422ZM131.916 70.2285L129.94 69.9224L129.936 69.9461L129.933 69.9698L131.916 70.2285ZM131.688 71.9805L131.695 73.9805L133.444 73.9741L133.671 72.2391L131.688 71.9805ZM110.74 72.0566L108.746 71.9056L108.582 74.0645L110.748 74.0566L110.74 72.0566ZM116.377 53.4707L118.113 54.463L118.117 54.4563L116.377 53.4707ZM146.922 35.4941L146.967 33.4946L146.952 33.4943L146.938 33.4942L146.922 35.4941ZM167.717 44.3301L166.192 45.6238L166.197 45.6305L167.717 44.3301ZM173.734 66.5723L171.742 66.3962L171.742 66.3998L173.734 66.5723ZM169.164 82.1875L170.946 83.0962L170.949 83.089L169.164 82.1875ZM157.891 98.3359L159.367 99.6847L159.385 99.6652L159.402 99.6453L157.891 98.3359ZM147.455 109.762L145.978 108.413L145.948 108.446L145.92 108.48L147.455 109.762ZM130.469 130.1L128.934 128.818L126.193 132.1H130.469V130.1ZM166.498 130.1L168.474 130.411L168.838 128.1H166.498V130.1ZM163.68 146H100.152V150H163.68V146ZM102.128 148.309L104.642 132.237L100.69 131.619L98.1764 147.691L102.128 148.309ZM104.141 133.279L138.342 95.9547L135.393 93.2523L101.191 130.577L104.141 133.279ZM138.349 95.9471C147.814 85.5097 153.221 76.2109 153.941 68.1207L149.957 67.766C149.357 74.5039 144.71 82.9786 135.386 93.26L138.349 95.9471ZM153.948 68.0188L154.1 63.9817L150.103 63.8308L149.951 67.8679L153.948 68.0188ZM154.102 63.9062C154.102 60.4744 153.451 57.4982 151.964 55.1449L148.582 57.2809C149.534 58.7869 150.102 60.9397 150.102 63.9062H154.102ZM151.964 55.1449C150.377 52.632 147.972 51.3076 144.985 51.2427L144.898 55.2417C146.582 55.2783 147.732 55.9344 148.582 57.2809L151.964 55.1449ZM144.986 51.2427C140.871 51.1519 137.462 52.8402 134.918 56.1575C132.453 59.372 130.851 64.0382 129.94 69.9224L133.892 70.5346C134.759 64.9423 136.216 61.0392 138.092 58.5915C139.89 56.2468 142.106 55.1801 144.897 55.2417L144.986 51.2427ZM129.933 69.9698L129.704 71.7218L133.671 72.2391L133.899 70.4872L129.933 69.9698ZM131.68 69.9805L110.733 70.0567L110.748 74.0566L131.695 73.9805L131.68 69.9805ZM112.735 72.2077C113.221 65.7927 115.015 59.8858 118.113 54.463L114.64 52.4784C111.239 58.4306 109.276 64.9144 108.746 71.9056L112.735 72.2077ZM118.117 54.4563C121.206 49.0021 125.256 44.8216 130.267 41.8628L128.233 38.4184C122.58 41.7565 118.048 46.4627 114.637 52.4851L118.117 54.4563ZM130.267 41.8628C135.273 38.9068 140.804 37.446 146.906 37.4941L146.938 33.4942C140.141 33.4407 133.891 35.0775 128.233 38.4184L130.267 41.8628ZM146.877 37.4936C155.476 37.6869 161.815 40.4638 166.192 45.6238L169.242 43.0364C163.97 36.8213 156.445 33.7076 146.967 33.4946L146.877 37.4936ZM166.197 45.6305C170.591 50.7638 172.52 57.6019 171.742 66.3962L175.727 66.7484C176.574 57.1598 174.491 49.1698 169.236 43.0296L166.197 45.6305ZM171.742 66.3998C171.309 71.4065 169.863 76.3655 167.379 81.286L170.949 83.089C173.644 77.7517 175.246 72.3006 175.727 66.7447L171.742 66.3998ZM167.382 81.2788C164.885 86.1756 161.23 91.4249 156.379 97.0266L159.402 99.6453C164.403 93.872 168.263 88.3556 170.946 83.0962L167.382 81.2788ZM156.414 96.9872L145.978 108.413L148.932 111.11L159.367 99.6847L156.414 96.9872ZM145.92 108.48L128.934 128.818L132.004 131.382L148.99 111.044L145.92 108.48ZM130.469 132.1H166.498V128.1H130.469V132.1ZM164.522 129.789L161.704 147.689L165.655 148.311L168.474 130.411L164.522 129.789Z" fill="white" mask="url(#path-4-outside-1_3512_20440)"/>
<defs>
<linearGradient id="paint0_linear_3512_20440" x1="13.2827" y1="92.0836" x2="85.8315" y2="102.344" gradientUnits="userSpaceOnUse">
<stop stop-opacity="0"/>
<stop offset="1"/>
</linearGradient>
</defs>
</svg>
