<svg width="214" height="186" viewBox="0 0 214 186" fill="none" xmlns="http://www.w3.org/2000/svg">
<path d="M26.3062 0H100.306L74.3062 186H0.306152L26.3062 0Z" fill="url(#paint0_linear_3512_20441)"/>
<path d="M100 0H214V186H74L100 0Z" fill="black"/>
<path d="M86.4499 66.6715C91.3625 33.9179 105.8 23 144.2 23H153.8C192.2 23 203.362 33.9179 198.45 66.6715L191.081 115.802C186.168 148.556 171.731 159.473 133.331 159.473H123.731C85.3308 159.473 74.1684 148.556 79.081 115.802L86.4499 66.6715Z" fill="#D3D3D3"/>
<mask id="path-4-outside-1_3512_20441" maskUnits="userSpaceOnUse" x="100" y="33" width="77" height="119" fill="black">
<rect fill="white" x="100" y="33" width="77" height="119"/>
<path d="M129.174 82.7207L138.619 82.873C143.291 82.7715 146.896 80.7656 149.436 76.8555C152.025 72.8945 153.117 68.0703 152.711 62.3828C152.152 56.4414 149.537 53.3945 144.865 53.2422C141.92 53.2422 139.457 54.3594 137.477 56.5938C135.496 58.8281 134.176 61.875 133.516 65.7344L112.492 65.8105C113.203 56.8223 116.682 49.5098 122.928 43.873C129.174 38.1855 136.766 35.3926 145.703 35.4941C154.691 35.6973 161.801 38.6172 167.031 44.2539C172.262 49.8398 174.572 57.3047 173.963 66.6484C173.201 77.0586 167.311 85.3105 156.291 91.4043C160.252 93.7402 163.172 97.0156 165.051 101.23C166.93 105.445 167.691 110.473 167.336 116.312C166.879 122.711 165.025 128.475 161.775 133.604C158.576 138.682 154.209 142.643 148.674 145.486C143.139 148.33 137.096 149.676 130.545 149.523C121.861 149.32 114.98 146.299 109.902 140.459C104.875 134.568 102.514 126.926 102.818 117.531L123.842 117.607C123.689 121.822 124.4 125.199 125.975 127.738C127.549 130.227 129.783 131.521 132.678 131.623C137.045 131.725 140.6 129.77 143.342 125.758C146.084 121.746 147.277 116.643 146.922 110.447C146.77 107.4 145.906 104.963 144.332 103.135C142.758 101.307 140.523 100.316 137.629 100.164L126.432 100.088L129.174 82.7207Z"/>
</mask>
<path d="M129.174 82.7207L138.619 82.873C143.291 82.7715 146.896 80.7656 149.436 76.8555C152.025 72.8945 153.117 68.0703 152.711 62.3828C152.152 56.4414 149.537 53.3945 144.865 53.2422C141.92 53.2422 139.457 54.3594 137.477 56.5938C135.496 58.8281 134.176 61.875 133.516 65.7344L112.492 65.8105C113.203 56.8223 116.682 49.5098 122.928 43.873C129.174 38.1855 136.766 35.3926 145.703 35.4941C154.691 35.6973 161.801 38.6172 167.031 44.2539C172.262 49.8398 174.572 57.3047 173.963 66.6484C173.201 77.0586 167.311 85.3105 156.291 91.4043C160.252 93.7402 163.172 97.0156 165.051 101.23C166.93 105.445 167.691 110.473 167.336 116.312C166.879 122.711 165.025 128.475 161.775 133.604C158.576 138.682 154.209 142.643 148.674 145.486C143.139 148.33 137.096 149.676 130.545 149.523C121.861 149.32 114.98 146.299 109.902 140.459C104.875 134.568 102.514 126.926 102.818 117.531L123.842 117.607C123.689 121.822 124.4 125.199 125.975 127.738C127.549 130.227 129.783 131.521 132.678 131.623C137.045 131.725 140.6 129.77 143.342 125.758C146.084 121.746 147.277 116.643 146.922 110.447C146.77 107.4 145.906 104.963 144.332 103.135C142.758 101.307 140.523 100.316 137.629 100.164L126.432 100.088L129.174 82.7207Z" fill="black"/>
<path d="M129.174 82.7207L129.206 80.721L127.469 80.6929L127.198 82.4088L129.174 82.7207ZM138.619 82.873L138.587 84.8728L138.625 84.8734L138.663 84.8726L138.619 82.873ZM149.436 76.8555L147.762 75.761L147.758 75.7663L149.436 76.8555ZM152.711 62.3828L154.706 62.2403L154.704 62.2179L154.702 62.1956L152.711 62.3828ZM144.865 53.2422L144.93 51.2433L144.898 51.2422H144.865V53.2422ZM133.516 65.7344L133.523 67.7344L135.204 67.7283L135.487 66.0716L133.516 65.7344ZM112.492 65.8105L110.498 65.6528L110.327 67.8184L112.499 67.8105L112.492 65.8105ZM122.928 43.873L124.268 45.3578L124.274 45.3518L122.928 43.873ZM145.703 35.4941L145.748 33.4947L145.737 33.4944L145.726 33.4943L145.703 35.4941ZM167.031 44.2539L165.565 45.6143L165.571 45.6209L167.031 44.2539ZM173.963 66.6484L175.958 66.7944L175.958 66.7865L175.959 66.7786L173.963 66.6484ZM156.291 91.4043L155.323 89.6541L152.259 91.3484L155.275 93.127L156.291 91.4043ZM167.336 116.312L169.331 116.455L169.332 116.445L169.332 116.434L167.336 116.312ZM161.775 133.604L160.086 132.533L160.083 132.537L161.775 133.604ZM130.545 149.523L130.498 151.523L130.498 151.523L130.545 149.523ZM109.902 140.459L108.381 141.757L108.387 141.764L108.393 141.771L109.902 140.459ZM102.818 117.531L102.826 115.531L100.882 115.524L100.819 117.466L102.818 117.531ZM123.842 117.607L125.84 117.68L125.915 115.615L123.849 115.607L123.842 117.607ZM125.975 127.738L124.275 128.792L124.28 128.8L124.284 128.808L125.975 127.738ZM132.678 131.623L132.608 133.622L132.619 133.622L132.631 133.623L132.678 131.623ZM146.922 110.447L144.924 110.547L144.925 110.554L144.925 110.562L146.922 110.447ZM137.629 100.164L137.734 98.1668L137.688 98.1644L137.643 98.1641L137.629 100.164ZM126.432 100.088L124.456 99.776L124.094 102.072L126.418 102.088L126.432 100.088ZM129.142 84.7204L138.587 84.8728L138.651 80.8733L129.206 80.721L129.142 84.7204ZM138.663 84.8726C143.994 84.7567 148.212 82.4115 151.113 77.9447L147.758 75.7663C145.581 79.1198 142.588 80.7863 138.576 80.8735L138.663 84.8726ZM151.109 77.95C153.985 73.5526 155.137 68.2722 154.706 62.2403L150.716 62.5253C151.098 67.8684 150.066 72.2365 147.762 75.761L151.109 77.95ZM154.702 62.1956C154.402 59.0028 153.527 56.2952 151.848 54.339C150.115 52.3192 147.726 51.3344 144.93 51.2433L144.8 55.2411C146.676 55.3023 147.931 55.9171 148.813 56.9442C149.749 58.0349 150.461 59.8214 150.72 62.57L154.702 62.1956ZM144.865 51.2422C141.339 51.2422 138.334 52.6112 135.98 55.2671L138.973 57.9204C140.58 56.1075 142.501 55.2422 144.865 55.2422V51.2422ZM135.98 55.2671C133.686 57.8549 132.248 61.2822 131.544 65.3972L135.487 66.0716C136.103 62.4678 137.306 59.8013 138.973 57.9204L135.98 55.2671ZM133.508 63.7344L112.485 63.8106L112.499 67.8105L133.523 67.7344L133.508 63.7344ZM114.486 65.9682C115.16 57.4496 118.43 50.626 124.268 45.3578L121.588 42.3883C114.933 48.3935 111.246 56.195 110.498 65.6528L114.486 65.9682ZM124.274 45.3518C130.123 40.0261 137.217 37.3978 145.68 37.494L145.726 33.4943C136.315 33.3873 128.225 36.345 121.581 42.3943L124.274 45.3518ZM145.658 37.4936C154.205 37.6868 160.765 40.4412 165.565 45.6143L168.497 42.8935C162.837 36.7932 155.178 33.7078 145.748 33.4947L145.658 37.4936ZM165.571 45.6209C170.342 50.7156 172.549 57.5936 171.967 66.5183L175.959 66.7786C176.595 57.0158 174.182 48.9641 168.491 42.8869L165.571 45.6209ZM171.968 66.5025C171.266 76.0929 165.892 83.8096 155.323 89.6541L157.259 93.1545C168.729 86.8115 175.136 78.0243 175.958 66.7944L171.968 66.5025ZM155.275 93.127C158.877 95.251 161.514 98.2082 163.224 102.045L166.877 100.416C164.83 95.823 161.627 92.2295 157.307 89.6816L155.275 93.127ZM163.224 102.045C164.942 105.898 165.681 110.588 165.34 116.191L169.332 116.434C169.702 110.357 168.918 104.993 166.877 100.416L163.224 102.045ZM165.341 116.17C164.906 122.258 163.149 127.699 160.086 132.533L163.465 134.674C166.902 129.25 168.852 123.164 169.331 116.455L165.341 116.17ZM160.083 132.537C157.082 137.301 152.989 141.021 147.76 143.707L149.588 147.265C155.429 144.264 160.07 140.062 163.468 134.67L160.083 132.537ZM147.76 143.707C142.537 146.391 136.827 147.669 130.591 147.524L130.498 151.523C137.364 151.683 143.74 150.27 149.588 147.265L147.76 143.707ZM130.592 147.524C122.394 147.332 116.073 144.508 111.412 139.147L108.393 141.771C113.888 148.09 121.328 151.308 130.498 151.523L130.592 147.524ZM111.424 139.161C106.786 133.726 104.525 126.605 104.817 117.596L100.819 117.466C100.502 127.247 102.964 135.41 108.381 141.757L111.424 139.161ZM102.811 119.531L123.835 119.607L123.849 115.607L102.826 115.531L102.811 119.531ZM121.843 117.535C121.682 121.99 122.422 125.803 124.275 128.792L127.674 126.684C126.379 124.595 125.697 121.655 125.84 117.68L121.843 117.535ZM124.284 128.808C126.205 131.843 129.04 133.497 132.608 133.622L132.748 129.624C130.527 129.546 128.893 128.61 127.665 126.669L124.284 128.808ZM132.631 133.623C137.76 133.742 141.919 131.383 144.993 126.886L141.691 124.629C139.28 128.156 136.329 129.707 132.724 129.624L132.631 133.623ZM144.993 126.886C148.046 122.419 149.292 116.846 148.919 110.333L144.925 110.562C145.262 116.44 144.122 121.073 141.691 124.629L144.993 126.886ZM148.919 110.347C148.751 106.976 147.781 104.075 145.848 101.83L142.816 104.44C144.031 105.85 144.788 107.825 144.924 110.547L148.919 110.347ZM145.848 101.83C143.847 99.5062 141.055 98.3416 137.734 98.1668L137.524 102.161C139.992 102.291 141.669 103.107 142.816 104.44L145.848 101.83ZM137.643 98.1641L126.445 98.0879L126.418 102.088L137.615 102.164L137.643 98.1641ZM128.407 100.4L131.149 83.0326L127.198 82.4088L124.456 99.776L128.407 100.4Z" fill="white" mask="url(#path-4-outside-1_3512_20441)"/>
<defs>
<linearGradient id="paint0_linear_3512_20441" x1="13.2827" y1="92.0836" x2="85.8315" y2="102.344" gradientUnits="userSpaceOnUse">
<stop stop-opacity="0"/>
<stop offset="1"/>
</linearGradient>
</defs>
</svg>
