<svg width="214" height="186" viewBox="0 0 214 186" fill="none" xmlns="http://www.w3.org/2000/svg">
<path d="M26.3062 0H100.306L74.3062 186H0.306152L26.3062 0Z" fill="url(#paint0_linear_3512_20442)"/>
<path d="M100 0H214V186H74L100 0Z" fill="black"/>
<path d="M86.4499 66.6715C91.3625 33.9179 105.8 23 144.2 23H153.8C192.2 23 203.362 33.9179 198.45 66.6715L191.081 115.802C186.168 148.556 171.731 159.473 133.331 159.473H123.731C85.3308 159.473 74.1684 148.556 79.081 115.802L86.4499 66.6715Z" fill="#D3D3D3"/>
<mask id="path-4-outside-1_3512_20442" maskUnits="userSpaceOnUse" x="99" y="35" width="78" height="115" fill="black">
<rect fill="white" x="99" y="35" width="78" height="115"/>
<path d="M161.852 106.105H171.068L167.945 124.006H158.805L154.615 148H133.516L137.781 124.006H102.209L103.732 109.076L152.178 37.0938H173.811L161.852 106.105ZM125.137 106.105H140.828L147.912 68.7051L147.15 69.8477L125.137 106.105Z"/>
</mask>
<path d="M161.852 106.105H171.068L167.945 124.006H158.805L154.615 148H133.516L137.781 124.006H102.209L103.732 109.076L152.178 37.0938H173.811L161.852 106.105ZM125.137 106.105H140.828L147.912 68.7051L147.15 69.8477L125.137 106.105Z" fill="black"/>
<path d="M161.852 106.105L159.881 105.764L159.475 108.105H161.852V106.105ZM171.068 106.105L173.039 106.449L173.448 104.105H171.068V106.105ZM167.945 124.006V126.006H169.627L169.916 124.35L167.945 124.006ZM158.805 124.006V122.006H157.124L156.834 123.662L158.805 124.006ZM154.615 148V150H156.296L156.585 148.344L154.615 148ZM133.516 148L131.546 147.65L131.129 150H133.516V148ZM137.781 124.006L139.75 124.356L140.168 122.006H137.781V124.006ZM102.209 124.006L100.219 123.803L99.9945 126.006H102.209V124.006ZM103.732 109.076L102.073 107.959L101.794 108.375L101.743 108.873L103.732 109.076ZM152.178 37.0938V35.0938H151.113L150.519 35.9771L152.178 37.0938ZM173.811 37.0938L175.781 37.4352L176.187 35.0938H173.811V37.0938ZM125.137 106.105L123.427 105.068L121.583 108.105H125.137V106.105ZM140.828 106.105V108.105H142.485L142.793 106.478L140.828 106.105ZM147.912 68.7051L149.877 69.0773L146.248 67.5957L147.912 68.7051ZM147.15 69.8477L145.486 68.7383L145.463 68.7735L145.441 68.8097L147.15 69.8477ZM161.852 108.105H171.068V104.105H161.852V108.105ZM169.098 105.762L165.975 123.662L169.916 124.35L173.039 106.449L169.098 105.762ZM167.945 122.006H158.805V126.006H167.945V122.006ZM156.834 123.662L152.645 147.656L156.585 148.344L160.775 124.35L156.834 123.662ZM154.615 146H133.516V150H154.615V146ZM135.485 148.35L139.75 124.356L135.812 123.656L131.546 147.65L135.485 148.35ZM137.781 122.006H102.209V126.006H137.781V122.006ZM104.199 124.209L105.722 109.279L101.743 108.873L100.219 123.803L104.199 124.209ZM105.392 110.193L153.837 38.2104L150.519 35.9771L102.073 107.959L105.392 110.193ZM152.178 39.0938H173.811V35.0938H152.178V39.0938ZM171.84 36.7523L159.881 105.764L163.822 106.447L175.781 37.4352L171.84 36.7523ZM125.137 108.105H140.828V104.105H125.137V108.105ZM142.793 106.478L149.877 69.0773L145.947 68.3329L138.863 105.733L142.793 106.478ZM146.248 67.5957L145.486 68.7383L148.814 70.9571L149.576 69.8145L146.248 67.5957ZM145.441 68.8097L123.427 105.068L126.846 107.143L148.86 70.8856L145.441 68.8097Z" fill="white" mask="url(#path-4-outside-1_3512_20442)"/>
<defs>
<linearGradient id="paint0_linear_3512_20442" x1="13.2827" y1="92.0836" x2="85.8315" y2="102.344" gradientUnits="userSpaceOnUse">
<stop stop-opacity="0"/>
<stop offset="1"/>
</linearGradient>
</defs>
</svg>
