<svg width="214" height="186" viewBox="0 0 214 186" fill="none" xmlns="http://www.w3.org/2000/svg">
<path d="M26.3062 0H100.306L74.3062 186H0.306152L26.3062 0Z" fill="url(#paint0_linear_3512_20443)"/>
<path d="M100 0H214V186H74L100 0Z" fill="black"/>
<path d="M86.4499 66.6715C91.3625 33.9179 105.8 23 144.2 23H153.8C192.2 23 203.362 33.9179 198.45 66.6715L191.081 115.802C186.168 148.556 171.731 159.473 133.331 159.473H123.731C85.3308 159.473 74.1684 148.556 79.081 115.802L86.4499 66.6715Z" fill="#D3D3D3"/>
<mask id="path-4-outside-1_3512_20443" maskUnits="userSpaceOnUse" x="102" y="35" width="78" height="117" fill="black">
<rect fill="white" x="102" y="35" width="78" height="117"/>
<path d="M110.893 93.1562L124.984 37.0938H177.314L174.42 55.5273H139.609L133.211 79.3691C136.816 76.6777 140.955 75.2812 145.627 75.1797C152.584 75.0781 158.119 77.541 162.232 82.5684C166.396 87.5449 168.682 94.5273 169.088 103.516C169.545 117.176 166.32 128.348 159.414 137.031C152.508 145.715 143.697 149.904 132.982 149.6C124.451 149.396 117.57 146.197 112.34 140.002C107.16 133.807 104.672 126.139 104.875 116.998H125.67C125.975 126.545 128.895 131.395 134.43 131.547C138.949 131.75 142.428 129.262 144.865 124.082C147.201 119.055 148.344 112.58 148.293 104.658C148.191 100.748 147.328 97.625 145.703 95.2891C144.129 92.9531 141.818 91.7852 138.771 91.7852C134.709 91.6836 131.053 93.6641 127.803 97.7266L110.893 93.1562Z"/>
</mask>
<path d="M110.893 93.1562L124.984 37.0938H177.314L174.42 55.5273H139.609L133.211 79.3691C136.816 76.6777 140.955 75.2812 145.627 75.1797C152.584 75.0781 158.119 77.541 162.232 82.5684C166.396 87.5449 168.682 94.5273 169.088 103.516C169.545 117.176 166.32 128.348 159.414 137.031C152.508 145.715 143.697 149.904 132.982 149.6C124.451 149.396 117.57 146.197 112.34 140.002C107.16 133.807 104.672 126.139 104.875 116.998H125.67C125.975 126.545 128.895 131.395 134.43 131.547C138.949 131.75 142.428 129.262 144.865 124.082C147.201 119.055 148.344 112.58 148.293 104.658C148.191 100.748 147.328 97.625 145.703 95.2891C144.129 92.9531 141.818 91.7852 138.771 91.7852C134.709 91.6836 131.053 93.6641 127.803 97.7266L110.893 93.1562Z" fill="black"/>
<path d="M110.893 93.1562L108.953 92.6687L108.474 94.5743L110.371 95.087L110.893 93.1562ZM124.984 37.0938V35.0938H123.425L123.045 36.6062L124.984 37.0938ZM177.314 37.0938L179.29 37.404L179.653 35.0938H177.314V37.0938ZM174.42 55.5273V57.5273H176.13L176.396 55.8376L174.42 55.5273ZM139.609 55.5273V53.5273H138.075L137.678 55.0089L139.609 55.5273ZM133.211 79.3691L131.279 78.8507L129.784 84.4232L134.407 80.9718L133.211 79.3691ZM145.627 75.1797L145.598 73.1799L145.591 73.18L145.583 73.1802L145.627 75.1797ZM162.232 82.5684L160.685 83.8348L160.691 83.8434L160.699 83.8518L162.232 82.5684ZM169.088 103.516L171.087 103.449L171.086 103.437L171.086 103.425L169.088 103.516ZM132.982 149.6L133.039 147.6L133.03 147.6L132.982 149.6ZM112.34 140.002L110.805 141.285L110.812 141.292L112.34 140.002ZM104.875 116.998V114.998H102.919L102.875 116.954L104.875 116.998ZM125.67 116.998L127.669 116.934L127.607 114.998H125.67V116.998ZM134.43 131.547L134.519 129.549L134.502 129.548L134.485 129.548L134.43 131.547ZM144.865 124.082L146.675 124.934L146.679 124.925L144.865 124.082ZM148.293 104.658L150.293 104.645L150.293 104.626L150.292 104.606L148.293 104.658ZM145.703 95.2891L144.045 96.4068L144.053 96.419L144.061 96.4312L145.703 95.2891ZM138.771 91.7852L138.722 93.7845L138.746 93.7852H138.771V91.7852ZM127.803 97.7266L127.281 99.6573L128.546 99.9992L129.364 98.976L127.803 97.7266ZM112.832 93.6438L126.924 37.5813L123.045 36.6062L108.953 92.6687L112.832 93.6438ZM124.984 39.0938H177.314V35.0938H124.984V39.0938ZM175.339 36.7835L172.444 55.2171L176.396 55.8376L179.29 37.404L175.339 36.7835ZM174.42 53.5273H139.609V57.5273H174.42V53.5273ZM137.678 55.0089L131.279 78.8507L135.143 79.8875L141.541 56.0457L137.678 55.0089ZM134.407 80.9718C137.666 78.5396 141.398 77.2721 145.67 77.1792L145.583 73.1802C140.513 73.2904 135.967 74.8159 132.015 77.7664L134.407 80.9718ZM145.656 77.1795C152.053 77.0861 156.988 79.317 160.685 83.8348L163.78 81.3019C159.25 75.765 153.115 73.0702 145.598 73.1799L145.656 77.1795ZM160.699 83.8518C164.491 88.3838 166.696 94.8894 167.09 103.606L171.086 103.425C170.667 94.1653 168.302 86.706 163.766 81.2849L160.699 83.8518ZM167.089 103.583C167.534 116.882 164.395 127.555 157.849 135.786L160.979 138.276C168.245 129.14 171.556 117.47 171.087 103.449L167.089 103.583ZM157.849 135.786C151.318 143.997 143.099 147.886 133.039 147.6L132.926 151.599C144.295 151.922 153.697 147.432 160.979 138.276L157.849 135.786ZM133.03 147.6C125.037 147.41 118.708 144.444 113.868 138.712L110.812 141.292C116.433 147.95 123.865 151.383 132.935 151.599L133.03 147.6ZM113.874 138.719C109.046 132.945 106.681 125.767 106.875 117.042L102.875 116.954C102.663 126.51 105.274 134.669 110.805 141.285L113.874 138.719ZM104.875 118.998H125.67V114.998H104.875V118.998ZM123.671 117.062C123.828 121.97 124.656 125.972 126.375 128.827C128.177 131.82 130.907 133.451 134.375 133.546L134.485 129.548C132.417 129.491 130.92 128.62 129.802 126.764C128.601 124.769 127.817 121.573 127.669 116.934L123.671 117.062ZM134.34 133.545C137.019 133.665 139.466 132.98 141.592 131.46C143.688 129.961 145.358 127.732 146.675 124.934L143.056 123.23C141.935 125.612 140.647 127.217 139.265 128.206C137.912 129.174 136.359 129.632 134.519 129.549L134.34 133.545ZM146.679 124.925C149.181 119.54 150.345 112.745 150.293 104.645L146.293 104.671C146.343 112.415 145.221 118.569 143.051 123.239L146.679 124.925ZM150.292 104.606C150.184 100.447 149.262 96.9029 147.345 94.1469L144.061 96.4312C145.394 98.3471 146.199 101.049 146.294 104.71L150.292 104.606ZM147.362 94.1714C145.381 91.2326 142.419 89.7852 138.771 89.7852V93.7852C141.217 93.7852 142.877 94.6737 144.045 96.4068L147.362 94.1714ZM138.821 89.7858C133.964 89.6643 129.761 92.0767 126.241 96.4772L129.364 98.976C132.344 95.2514 135.454 93.7028 138.722 93.7845L138.821 89.7858ZM128.325 95.7958L111.414 91.2255L110.371 95.087L127.281 99.6573L128.325 95.7958Z" fill="white" mask="url(#path-4-outside-1_3512_20443)"/>
<defs>
<linearGradient id="paint0_linear_3512_20443" x1="13.2827" y1="92.0836" x2="85.8315" y2="102.344" gradientUnits="userSpaceOnUse">
<stop stop-opacity="0"/>
<stop offset="1"/>
</linearGradient>
</defs>
</svg>
