<svg width="214" height="186" viewBox="0 0 214 186" fill="none" xmlns="http://www.w3.org/2000/svg">
<path d="M26.3062 0H100.306L74.3062 186H0.306152L26.3062 0Z" fill="url(#paint0_linear_3512_20444)"/>
<path d="M100 0H214V186H74L100 0Z" fill="black"/>
<path d="M86.4499 66.6715C91.3625 33.9179 105.8 23 144.2 23H153.8C192.2 23 203.362 33.9179 198.45 66.6715L191.081 115.802C186.168 148.556 171.731 159.473 133.331 159.473H123.731C85.3308 159.473 74.1684 148.556 79.081 115.802L86.4499 66.6715Z" fill="#D3D3D3"/>
<mask id="path-4-outside-1_3512_20444" maskUnits="userSpaceOnUse" x="104" y="33" width="69" height="119" fill="black">
<rect fill="white" x="104" y="33" width="69" height="119"/>
<path d="M167.107 35.875L165.279 54.2324L164.518 54.1562C157.002 54.0547 150.502 56.2637 145.018 60.7832C139.533 65.252 135.014 72.2344 131.459 81.7305C136.842 76.3477 142.656 73.707 148.902 73.8086C155.504 73.9102 160.658 76.5762 164.365 81.8066C168.123 87.0371 170.129 94.1211 170.383 103.059C170.637 116.566 167.285 127.764 160.328 136.65C153.371 145.486 144.611 149.803 134.049 149.6C125.873 149.396 119.398 146.223 114.625 140.078C109.902 133.934 107.363 125.631 107.008 115.17C106.855 111.768 106.957 108.492 107.312 105.344L108.303 97.8027C110.842 78.8613 116.986 63.8555 126.736 52.7852C136.486 41.6641 148.826 36.0273 163.756 35.875H167.107ZM140.904 91.4043C136.334 91.252 132.348 94.2734 128.945 100.469C127.93 108.594 127.422 114.078 127.422 116.922C127.422 126.621 130.037 131.547 135.268 131.699C139.686 131.852 143.139 129.338 145.627 124.158C148.166 118.979 149.41 112.783 149.359 105.572C149.258 101.256 148.471 97.8281 146.998 95.2891C145.576 92.75 143.545 91.4551 140.904 91.4043Z"/>
</mask>
<path d="M167.107 35.875L165.279 54.2324L164.518 54.1562C157.002 54.0547 150.502 56.2637 145.018 60.7832C139.533 65.252 135.014 72.2344 131.459 81.7305C136.842 76.3477 142.656 73.707 148.902 73.8086C155.504 73.9102 160.658 76.5762 164.365 81.8066C168.123 87.0371 170.129 94.1211 170.383 103.059C170.637 116.566 167.285 127.764 160.328 136.65C153.371 145.486 144.611 149.803 134.049 149.6C125.873 149.396 119.398 146.223 114.625 140.078C109.902 133.934 107.363 125.631 107.008 115.17C106.855 111.768 106.957 108.492 107.312 105.344L108.303 97.8027C110.842 78.8613 116.986 63.8555 126.736 52.7852C136.486 41.6641 148.826 36.0273 163.756 35.875H167.107ZM140.904 91.4043C136.334 91.252 132.348 94.2734 128.945 100.469C127.93 108.594 127.422 114.078 127.422 116.922C127.422 126.621 130.037 131.547 135.268 131.699C139.686 131.852 143.139 129.338 145.627 124.158C148.166 118.979 149.41 112.783 149.359 105.572C149.258 101.256 148.471 97.8281 146.998 95.2891C145.576 92.75 143.545 91.4551 140.904 91.4043Z" fill="black"/>
<path d="M167.107 35.875L169.098 36.0732L169.316 33.875H167.107V35.875ZM165.279 54.2324L165.08 56.2225L167.071 56.4216L167.269 54.4306L165.279 54.2324ZM164.518 54.1562L164.717 52.1662L164.631 52.1576L164.545 52.1564L164.518 54.1562ZM145.018 60.7832L146.281 62.3337L146.289 62.3267L145.018 60.7832ZM131.459 81.7305L129.586 81.0293L132.873 83.1447L131.459 81.7305ZM148.902 73.8086L148.87 75.8083L148.872 75.8084L148.902 73.8086ZM164.365 81.8066L162.733 82.9631L162.741 82.9736L164.365 81.8066ZM170.383 103.059L172.382 103.021L172.382 103.011L172.382 103.002L170.383 103.059ZM160.328 136.65L161.9 137.888L161.903 137.883L160.328 136.65ZM134.049 149.6L133.999 151.599L134.01 151.599L134.049 149.6ZM114.625 140.078L113.039 141.297L113.046 141.305L114.625 140.078ZM107.008 115.17L109.007 115.102L109.006 115.091L109.006 115.08L107.008 115.17ZM107.312 105.344L105.33 105.083L105.327 105.101L105.325 105.119L107.312 105.344ZM108.303 97.8027L106.32 97.537L106.32 97.5423L108.303 97.8027ZM126.736 52.7852L128.237 54.107L128.24 54.1036L126.736 52.7852ZM163.756 35.875V33.875H163.746L163.735 33.8751L163.756 35.875ZM140.904 91.4043L140.838 93.4032L140.852 93.4037L140.866 93.4039L140.904 91.4043ZM128.945 100.469L127.192 99.506L127.008 99.8412L126.961 100.221L128.945 100.469ZM135.268 131.699L135.337 129.7L135.326 129.7L135.268 131.699ZM145.627 124.158L143.831 123.278L143.828 123.285L143.824 123.292L145.627 124.158ZM149.359 105.572L151.359 105.558L151.359 105.542L151.359 105.525L149.359 105.572ZM146.998 95.2891L145.253 96.2663L145.26 96.2794L145.268 96.2925L146.998 95.2891ZM165.117 35.6768L163.289 54.0342L167.269 54.4306L169.098 36.0732L165.117 35.6768ZM165.478 52.2423L164.717 52.1662L164.319 56.1463L165.08 56.2225L165.478 52.2423ZM164.545 52.1564C156.585 52.0489 149.618 54.4009 143.746 59.2398L146.289 62.3267C151.386 58.1265 157.419 56.0605 164.491 56.1561L164.545 52.1564ZM143.754 59.2327C137.901 64.0021 133.214 71.3368 129.586 81.0293L133.332 82.4316C136.813 73.132 141.165 66.5018 146.281 62.3337L143.754 59.2327ZM132.873 83.1447C137.963 78.0553 143.28 75.7174 148.87 75.8083L148.935 71.8089C142.032 71.6966 135.721 74.64 130.045 80.3163L132.873 83.1447ZM148.872 75.8084C154.858 75.9005 159.408 78.271 162.733 82.9631L165.997 80.6502C161.908 74.8814 156.15 71.9199 148.933 71.8088L148.872 75.8084ZM162.741 82.9736C166.191 87.7762 168.137 94.4271 168.384 103.115L172.382 103.002C172.121 93.8151 170.055 86.298 165.99 80.6397L162.741 82.9736ZM168.383 103.096C168.63 116.238 165.374 126.961 158.753 135.418L161.903 137.883C169.197 128.567 172.643 116.894 172.382 103.021L168.383 103.096ZM158.757 135.413C152.158 143.794 143.978 147.79 134.087 147.6L134.01 151.599C145.245 151.815 154.584 147.179 161.9 137.888L158.757 135.413ZM134.099 147.6C126.487 147.411 120.589 144.495 116.204 138.851L113.046 141.305C118.208 147.951 125.259 151.382 133.999 151.599L134.099 147.6ZM116.211 138.859C111.818 133.144 109.353 125.289 109.007 115.102L105.009 115.238C105.374 125.972 107.987 134.723 113.039 141.297L116.211 138.859ZM109.006 115.08C108.858 111.775 108.957 108.605 109.3 105.568L105.325 105.119C104.957 108.379 104.853 111.76 105.01 115.259L109.006 115.08ZM109.295 105.604L110.286 98.0631L106.32 97.5423L105.33 105.083L109.295 105.604ZM110.285 98.0685C112.787 79.4043 118.816 64.8043 128.237 54.107L125.235 51.4633C115.157 62.9066 108.897 78.3184 106.32 97.537L110.285 98.0685ZM128.24 54.1036C137.611 43.415 149.409 38.0215 163.776 37.8749L163.735 33.8751C148.243 34.0332 135.362 39.9132 125.232 51.4667L128.24 54.1036ZM163.756 37.875H167.107V33.875H163.756V37.875ZM140.971 89.4054C135.282 89.2158 130.74 93.0464 127.192 99.506L130.698 101.431C133.956 95.5004 137.386 93.2881 140.838 93.4032L140.971 89.4054ZM126.961 100.221C125.947 108.329 125.422 113.934 125.422 116.922H129.422C129.422 114.222 129.912 108.859 130.93 100.717L126.961 100.221ZM125.422 116.922C125.422 121.889 126.081 125.936 127.617 128.828C129.234 131.875 131.819 133.6 135.209 133.698L135.326 129.7C133.486 129.646 132.147 128.832 131.15 126.953C130.07 124.919 129.422 121.654 129.422 116.922H125.422ZM135.199 133.698C137.837 133.789 140.247 133.075 142.348 131.545C144.418 130.038 146.09 127.814 147.43 125.024L143.824 123.292C142.676 125.683 141.377 127.305 139.994 128.311C138.642 129.296 137.116 129.762 135.337 129.7L135.199 133.698ZM147.423 125.039C150.128 119.52 151.412 113.003 151.359 105.558L147.359 105.586C147.409 112.563 146.204 118.437 143.831 123.278L147.423 125.039ZM151.359 105.525C151.253 101.02 150.431 97.2209 148.728 94.2856L145.268 96.2925C146.511 98.4353 147.263 101.492 147.36 105.619L151.359 105.525ZM148.743 94.3119C147.017 91.2294 144.377 89.4707 140.943 89.4047L140.866 93.4039C142.713 93.4395 144.135 94.2706 145.253 96.2663L148.743 94.3119Z" fill="white" mask="url(#path-4-outside-1_3512_20444)"/>
<defs>
<linearGradient id="paint0_linear_3512_20444" x1="13.2827" y1="92.0836" x2="85.8315" y2="102.344" gradientUnits="userSpaceOnUse">
<stop stop-opacity="0"/>
<stop offset="1"/>
</linearGradient>
</defs>
</svg>
