<svg width="214" height="186" viewBox="0 0 214 186" fill="none" xmlns="http://www.w3.org/2000/svg">
<path d="M26.3062 0H100.306L74.3062 186H0.306152L26.3062 0Z" fill="url(#paint0_linear_3512_20445)"/>
<path d="M100 0H214V186H74L100 0Z" fill="black"/>
<path d="M86.4499 66.6715C91.3625 33.9179 105.8 23 144.2 23H153.8C192.2 23 203.362 33.9179 198.45 66.6715L191.081 115.802C186.168 148.556 171.731 159.473 133.331 159.473H123.731C85.3308 159.473 74.1684 148.556 79.081 115.802L86.4499 66.6715Z" fill="#D3D3D3"/>
<mask id="path-4-outside-1_3512_20445" maskUnits="userSpaceOnUse" x="103" y="35" width="80" height="115" fill="black">
<rect fill="white" x="103" y="35" width="80" height="115"/>
<path d="M178.609 50.5L129.707 148H106.779L155.453 54.9941H112.645L115.463 37.0938H180.666L178.609 50.5Z"/>
</mask>
<path d="M178.609 50.5L129.707 148H106.779L155.453 54.9941H112.645L115.463 37.0938H180.666L178.609 50.5Z" fill="black"/>
<path d="M178.609 50.5L180.397 51.3967L180.538 51.1149L180.586 50.8033L178.609 50.5ZM129.707 148V150H130.941L131.495 148.897L129.707 148ZM106.779 148L105.007 147.073L103.475 150H106.779V148ZM155.453 54.9941L157.225 55.9215L158.757 52.9941H155.453V54.9941ZM112.645 54.9941L110.669 54.6831L110.305 56.9941H112.645V54.9941ZM115.463 37.0938V35.0938H113.753L113.487 36.7827L115.463 37.0938ZM180.666 37.0938L182.643 37.397L182.996 35.0938H180.666V37.0938ZM176.822 49.6033L127.919 147.103L131.495 148.897L180.397 51.3967L176.822 49.6033ZM129.707 146H106.779V150H129.707V146ZM108.551 148.927L157.225 55.9215L153.681 54.0668L105.007 147.073L108.551 148.927ZM155.453 52.9941H112.645V56.9941H155.453V52.9941ZM114.62 55.3052L117.439 37.4048L113.487 36.7827L110.669 54.6831L114.62 55.3052ZM115.463 39.0938H180.666V35.0938H115.463V39.0938ZM178.689 36.7905L176.632 50.1967L180.586 50.8033L182.643 37.397L178.689 36.7905Z" fill="white" mask="url(#path-4-outside-1_3512_20445)"/>
<defs>
<linearGradient id="paint0_linear_3512_20445" x1="13.2827" y1="92.0836" x2="85.8315" y2="102.344" gradientUnits="userSpaceOnUse">
<stop stop-opacity="0"/>
<stop offset="1"/>
</linearGradient>
</defs>
</svg>
