<svg width="214" height="186" viewBox="0 0 214 186" fill="none" xmlns="http://www.w3.org/2000/svg">
<path d="M26.3062 0H100.306L74.3062 186H0.306152L26.3062 0Z" fill="url(#paint0_linear_3512_20446)"/>
<path d="M100 0H214V186H74L100 0Z" fill="black"/>
<path d="M86.4499 66.6715C91.3625 33.9179 105.8 23 144.2 23H153.8C192.2 23 203.362 33.9179 198.45 66.6715L191.081 115.802C186.168 148.556 171.731 159.473 133.331 159.473H123.731C85.3308 159.473 74.1684 148.556 79.081 115.802L86.4499 66.6715Z" fill="#D3D3D3"/>
<mask id="path-4-outside-1_3512_20446" maskUnits="userSpaceOnUse" x="103" y="33" width="74" height="119" fill="black">
<rect fill="white" x="103" y="33" width="74" height="119"/>
<path d="M174.344 65.9629C173.582 76.6777 167.996 85.1074 157.586 91.252C161.395 94.4512 164.061 98.3105 165.584 102.83C167.107 107.35 167.666 112.072 167.26 116.998C166.549 126.748 162.994 134.695 156.596 140.84C150.197 146.934 142.199 149.828 132.602 149.523C123.715 149.32 116.783 146.324 111.807 140.535C106.83 134.695 104.697 127.256 105.408 118.217C106.373 105.877 112.746 96.6348 124.527 90.4902C118.332 84.6504 115.564 76.9062 116.225 67.2578C116.631 61.1133 118.307 55.5527 121.252 50.5762C124.197 45.5996 128.057 41.8164 132.83 39.2266C137.654 36.5859 143.037 35.3418 148.979 35.4941C157.408 35.6973 163.934 38.6426 168.555 44.3301C173.176 50.0176 175.105 57.2285 174.344 65.9629ZM146.693 110.6C146.287 103.643 143.748 100.113 139.076 100.012C135.217 99.9102 132.094 101.941 129.707 106.105C127.371 110.219 126.355 115.271 126.66 121.264C126.762 124.361 127.473 126.875 128.793 128.805C130.164 130.734 132.068 131.725 134.506 131.775C138.365 131.877 141.412 129.871 143.646 125.758C145.932 121.645 146.947 116.592 146.693 110.6ZM153.396 63.0684C153.193 56.6699 151.086 53.4199 147.074 53.3184C143.824 53.3184 141.311 55.0449 139.533 58.498C137.756 61.9512 136.867 66.5723 136.867 72.3613C136.867 75.3574 137.4 77.7695 138.467 79.5977C139.533 81.4258 141.082 82.3652 143.113 82.416C146.465 82.416 149.029 80.5879 150.807 76.9316C152.584 73.2754 153.447 68.6543 153.396 63.0684Z"/>
</mask>
<path d="M174.344 65.9629C173.582 76.6777 167.996 85.1074 157.586 91.252C161.395 94.4512 164.061 98.3105 165.584 102.83C167.107 107.35 167.666 112.072 167.26 116.998C166.549 126.748 162.994 134.695 156.596 140.84C150.197 146.934 142.199 149.828 132.602 149.523C123.715 149.32 116.783 146.324 111.807 140.535C106.83 134.695 104.697 127.256 105.408 118.217C106.373 105.877 112.746 96.6348 124.527 90.4902C118.332 84.6504 115.564 76.9062 116.225 67.2578C116.631 61.1133 118.307 55.5527 121.252 50.5762C124.197 45.5996 128.057 41.8164 132.83 39.2266C137.654 36.5859 143.037 35.3418 148.979 35.4941C157.408 35.6973 163.934 38.6426 168.555 44.3301C173.176 50.0176 175.105 57.2285 174.344 65.9629ZM146.693 110.6C146.287 103.643 143.748 100.113 139.076 100.012C135.217 99.9102 132.094 101.941 129.707 106.105C127.371 110.219 126.355 115.271 126.66 121.264C126.762 124.361 127.473 126.875 128.793 128.805C130.164 130.734 132.068 131.725 134.506 131.775C138.365 131.877 141.412 129.871 143.646 125.758C145.932 121.645 146.947 116.592 146.693 110.6ZM153.396 63.0684C153.193 56.6699 151.086 53.4199 147.074 53.3184C143.824 53.3184 141.311 55.0449 139.533 58.498C137.756 61.9512 136.867 66.5723 136.867 72.3613C136.867 75.3574 137.4 77.7695 138.467 79.5977C139.533 81.4258 141.082 82.3652 143.113 82.416C146.465 82.416 149.029 80.5879 150.807 76.9316C152.584 73.2754 153.447 68.6543 153.396 63.0684Z" fill="black"/>
<path d="M174.344 65.9629L172.351 65.7891L172.35 65.8051L172.349 65.8211L174.344 65.9629ZM157.586 91.252L156.569 89.5296L154.136 90.9659L156.3 92.7834L157.586 91.252ZM167.26 116.998L165.267 116.834L165.266 116.843L165.265 116.853L167.26 116.998ZM156.596 140.84L157.975 142.288L157.981 142.282L156.596 140.84ZM132.602 149.523L132.665 147.524L132.656 147.524L132.647 147.524L132.602 149.523ZM111.807 140.535L110.284 141.832L110.29 141.839L111.807 140.535ZM105.408 118.217L107.402 118.374L107.402 118.373L105.408 118.217ZM124.527 90.4902L125.452 92.2635L127.945 90.9634L125.899 89.0349L124.527 90.4902ZM116.225 67.2578L118.22 67.3943L118.22 67.3898L116.225 67.2578ZM132.83 39.2266L133.784 40.9845L133.79 40.9809L132.83 39.2266ZM148.979 35.4941L148.927 37.4935L148.93 37.4936L148.979 35.4941ZM146.693 110.6L148.692 110.515L148.691 110.499L148.69 110.483L146.693 110.6ZM139.076 100.012L139.024 102.011L139.033 102.011L139.076 100.012ZM129.707 106.105L127.972 105.111L127.968 105.118L129.707 106.105ZM126.66 121.264L128.659 121.198L128.658 121.18L128.658 121.162L126.66 121.264ZM128.793 128.805L127.142 129.934L127.152 129.949L127.163 129.963L128.793 128.805ZM134.506 131.775L134.558 129.776L134.548 129.776L134.506 131.775ZM143.646 125.758L141.898 124.787L141.894 124.795L141.889 124.803L143.646 125.758ZM153.396 63.0684L155.396 63.0502L155.396 63.0275L155.395 63.0049L153.396 63.0684ZM147.074 53.3184L147.125 51.319L147.1 51.3184H147.074V53.3184ZM143.113 82.416L143.063 84.4154L143.088 84.416H143.113V82.416ZM172.349 65.8211C171.64 75.7901 166.496 83.6704 156.569 89.5296L158.603 92.9743C169.496 86.5444 175.524 77.5653 176.339 66.1047L172.349 65.8211ZM156.3 92.7834C159.84 95.7572 162.288 99.3124 163.689 103.469L167.479 102.191C165.833 97.3087 162.949 93.1452 158.872 89.7205L156.3 92.7834ZM163.689 103.469C165.122 107.721 165.651 112.169 165.267 116.834L169.253 117.162C169.681 111.975 169.093 106.978 167.479 102.191L163.689 103.469ZM165.265 116.853C164.586 126.164 161.215 133.631 155.21 139.397L157.981 142.282C164.773 135.76 168.512 127.332 169.254 117.143L165.265 116.853ZM155.216 139.392C149.241 145.082 141.779 147.814 132.665 147.524L132.538 151.522C142.62 151.842 151.153 148.785 157.975 142.288L155.216 139.392ZM132.647 147.524C124.225 147.331 117.868 144.519 113.323 139.231L110.29 141.839C115.698 148.13 123.205 151.309 132.556 151.523L132.647 147.524ZM113.329 139.238C108.758 133.874 106.725 126.988 107.402 118.374L103.414 118.06C102.67 127.524 104.903 135.517 110.284 141.832L113.329 139.238ZM107.402 118.373C108.309 106.779 114.228 98.1174 125.452 92.2635L123.602 88.7169C111.264 95.1521 104.437 104.975 103.414 118.061L107.402 118.373ZM125.899 89.0349C120.202 83.6645 117.594 76.5369 118.22 67.3943L114.229 67.1213C113.535 77.2756 116.462 85.6363 123.155 91.9456L125.899 89.0349ZM118.22 67.3898C118.607 61.5374 120.198 56.284 122.973 51.5948L119.531 49.5575C116.415 54.8214 114.655 60.6892 114.229 67.1259L118.22 67.3898ZM122.973 51.5948C125.747 46.9086 129.349 43.3906 133.784 40.9845L131.876 37.4686C126.764 40.2422 122.648 44.2907 119.531 49.5575L122.973 51.5948ZM133.79 40.9809C138.28 38.5234 143.309 37.3494 148.927 37.4935L149.03 33.4948C142.765 33.3342 137.028 34.6485 131.87 37.4722L133.79 40.9809ZM148.93 37.4936C156.873 37.6849 162.808 40.4291 167.002 45.5913L170.107 43.0689C165.059 36.856 157.943 33.7096 149.027 33.4947L148.93 37.4936ZM167.002 45.5913C171.233 50.7986 173.077 57.4638 172.351 65.7891L176.336 66.1367C177.134 56.9933 175.118 49.2366 170.107 43.0689L167.002 45.5913ZM148.69 110.483C148.477 106.833 147.695 103.773 146.108 101.567C144.441 99.2496 142.029 98.0754 139.12 98.0122L139.033 102.011C140.795 102.05 141.989 102.691 142.861 103.903C143.813 105.226 144.504 107.409 144.697 110.716L148.69 110.483ZM139.129 98.0124C134.344 97.8865 130.619 100.492 127.972 105.111L131.442 107.1C133.568 103.391 136.089 101.934 139.024 102.011L139.129 98.0124ZM127.968 105.118C125.399 109.641 124.344 115.094 124.663 121.365L128.658 121.162C128.367 115.449 129.343 110.797 131.446 107.093L127.968 105.118ZM124.661 121.329C124.771 124.686 125.548 127.603 127.142 129.934L130.444 127.675C129.398 126.147 128.752 124.036 128.659 121.198L124.661 121.329ZM127.163 129.963C128.913 132.427 131.416 133.711 134.464 133.775L134.548 129.776C132.721 129.738 131.415 129.042 130.423 127.646L127.163 129.963ZM134.453 133.775C139.239 133.901 142.902 131.317 145.404 126.712L141.889 124.803C139.922 128.425 137.491 129.853 134.558 129.776L134.453 133.775ZM145.395 126.729C147.902 122.216 148.957 116.776 148.692 110.515L144.695 110.684C144.938 116.408 143.961 121.073 141.898 124.787L145.395 126.729ZM155.395 63.0049C155.289 59.6538 154.684 56.8142 153.342 54.7439C151.914 52.5419 149.762 51.3858 147.125 51.319L147.024 55.3177C148.398 55.3525 149.306 55.8721 149.985 56.9202C150.75 58.0999 151.301 60.0845 151.397 63.1318L155.395 63.0049ZM147.074 51.3184C142.914 51.3184 139.794 53.6205 137.755 57.5828L141.311 59.4133C142.827 56.4693 144.735 55.3184 147.074 55.3184V51.3184ZM137.755 57.5828C135.778 61.4238 134.867 66.3975 134.867 72.3613H138.867C138.867 66.747 139.734 62.4785 141.311 59.4133L137.755 57.5828ZM134.867 72.3613C134.867 75.5721 135.435 78.3701 136.739 80.6054L140.194 78.5899C139.365 77.169 138.867 75.1427 138.867 72.3613H134.867ZM136.739 80.6054C138.137 83.0023 140.304 84.3464 143.063 84.4154L143.163 80.4166C141.86 80.384 140.929 79.8493 140.194 78.5899L136.739 80.6054ZM143.113 84.416C145.177 84.416 147.068 83.8451 148.711 82.6735C150.334 81.5169 151.612 79.8498 152.605 77.806L149.008 76.0573C148.224 77.6697 147.331 78.7448 146.389 79.4164C145.468 80.0729 144.401 80.416 143.113 80.416V84.416ZM152.605 77.806C154.559 73.7878 155.449 68.8359 155.396 63.0502L151.397 63.0865C151.446 68.4727 150.609 72.763 149.008 76.0573L152.605 77.806Z" fill="white" mask="url(#path-4-outside-1_3512_20446)"/>
<defs>
<linearGradient id="paint0_linear_3512_20446" x1="13.2827" y1="92.0836" x2="85.8315" y2="102.344" gradientUnits="userSpaceOnUse">
<stop stop-opacity="0"/>
<stop offset="1"/>
</linearGradient>
</defs>
</svg>
