<svg width="214" height="186" viewBox="0 0 214 186" fill="none" xmlns="http://www.w3.org/2000/svg">
<path d="M26.3062 0H100.306L74.3062 186H0.306152L26.3062 0Z" fill="url(#paint0_linear_3512_20447)"/>
<path d="M100 0H214V186H74L100 0Z" fill="black"/>
<path d="M86.4499 66.6715C91.3625 33.9179 105.8 23 144.2 23H153.8C192.2 23 203.362 33.9179 198.45 66.6715L191.081 115.802C186.168 148.556 171.731 159.473 133.331 159.473H123.731C85.3308 159.473 74.1684 148.556 79.081 115.802L86.4499 66.6715Z" fill="#D3D3D3"/>
<mask id="path-4-outside-1_3512_20447" maskUnits="userSpaceOnUse" x="109" y="33" width="67" height="119" fill="black">
<rect fill="white" x="109" y="33" width="67" height="119"/>
<path d="M116.986 130.633C124.553 130.836 130.951 128.855 136.182 124.691C141.412 120.527 145.576 114.002 148.674 105.115C143.494 109.787 138.492 112.123 133.668 112.123C127.016 112.123 121.76 109.584 117.9 104.506C114.041 99.4277 111.908 92.3691 111.502 83.3301C111.045 75.4082 112.34 67.5879 115.387 59.8691C118.484 52.1504 122.852 46.1328 128.488 41.8164C134.125 37.4492 140.422 35.3418 147.379 35.4941C152.762 35.6465 157.383 37.2207 161.242 40.2168C165.152 43.2129 168.098 47.5039 170.078 53.0898C172.109 58.625 173.176 64.6426 173.277 71.1426C173.379 76.2715 172.77 82.9238 171.449 91.0996C169.52 103.135 166.041 113.545 161.014 122.33C156.037 131.064 149.766 137.691 142.199 142.211C134.633 146.73 126.254 149.066 117.062 149.219H114.244L116.148 130.633H116.986ZM140.295 95.3652C143.545 95.3652 146.541 93.3848 149.283 89.4238L151.035 86.7578C152.203 77.1094 152.787 70.9902 152.787 68.4004C152.787 58.5488 150.375 53.5469 145.551 53.3945C141.234 53.293 137.908 56.2383 135.572 62.2305C133.236 68.2227 132.195 75.1035 132.449 82.873C132.602 86.8848 133.338 89.9824 134.658 92.166C136.029 94.2988 137.908 95.3652 140.295 95.3652Z"/>
</mask>
<path d="M116.986 130.633C124.553 130.836 130.951 128.855 136.182 124.691C141.412 120.527 145.576 114.002 148.674 105.115C143.494 109.787 138.492 112.123 133.668 112.123C127.016 112.123 121.76 109.584 117.9 104.506C114.041 99.4277 111.908 92.3691 111.502 83.3301C111.045 75.4082 112.34 67.5879 115.387 59.8691C118.484 52.1504 122.852 46.1328 128.488 41.8164C134.125 37.4492 140.422 35.3418 147.379 35.4941C152.762 35.6465 157.383 37.2207 161.242 40.2168C165.152 43.2129 168.098 47.5039 170.078 53.0898C172.109 58.625 173.176 64.6426 173.277 71.1426C173.379 76.2715 172.77 82.9238 171.449 91.0996C169.52 103.135 166.041 113.545 161.014 122.33C156.037 131.064 149.766 137.691 142.199 142.211C134.633 146.73 126.254 149.066 117.062 149.219H114.244L116.148 130.633H116.986ZM140.295 95.3652C143.545 95.3652 146.541 93.3848 149.283 89.4238L151.035 86.7578C152.203 77.1094 152.787 70.9902 152.787 68.4004C152.787 58.5488 150.375 53.5469 145.551 53.3945C141.234 53.293 137.908 56.2383 135.572 62.2305C133.236 68.2227 132.195 75.1035 132.449 82.873C132.602 86.8848 133.338 89.9824 134.658 92.166C136.029 94.2988 137.908 95.3652 140.295 95.3652Z" fill="black"/>
<path d="M116.986 130.633L117.04 128.634L117.013 128.633H116.986V130.633ZM148.674 105.115L150.562 105.774L147.334 103.63L148.674 105.115ZM111.502 83.3301L113.5 83.2403L113.499 83.2276L113.499 83.2149L111.502 83.3301ZM115.387 59.8691L113.531 59.1242L113.526 59.1348L115.387 59.8691ZM128.488 41.8164L129.704 43.4043L129.713 43.3974L128.488 41.8164ZM147.379 35.4941L147.435 33.4949L147.423 33.4946L147.379 35.4941ZM161.242 40.2168L160.016 41.7966L160.026 41.8043L161.242 40.2168ZM170.078 53.0898L168.193 53.7582L168.197 53.7685L168.201 53.7789L170.078 53.0898ZM173.277 71.1426L171.278 71.1738L171.278 71.1822L173.277 71.1426ZM171.449 91.0996L169.475 90.7808L169.474 90.783L171.449 91.0996ZM161.014 122.33L159.278 121.337L159.276 121.34L161.014 122.33ZM117.062 149.219V151.219H117.079L117.096 151.218L117.062 149.219ZM114.244 149.219L112.255 149.015L112.029 151.219H114.244V149.219ZM116.148 130.633V128.633H114.343L114.159 130.429L116.148 130.633ZM149.283 89.4238L150.928 90.5622L150.941 90.5424L150.955 90.5222L149.283 89.4238ZM151.035 86.7578L152.707 87.8562L152.964 87.464L153.021 86.9982L151.035 86.7578ZM145.551 53.3945L145.614 51.3955L145.606 51.3953L145.598 51.3951L145.551 53.3945ZM132.449 82.873L130.45 82.9384L130.451 82.9489L132.449 82.873ZM134.658 92.166L132.947 93.2009L132.961 93.2244L132.976 93.2475L134.658 92.166ZM116.933 132.632C124.904 132.846 131.78 130.752 137.427 126.256L134.936 123.127C130.123 126.959 124.202 128.826 117.04 128.634L116.933 132.632ZM137.427 126.256C143.051 121.779 147.389 114.878 150.562 105.774L146.785 104.457C143.764 113.126 139.774 119.275 134.936 123.127L137.427 126.256ZM147.334 103.63C142.36 108.116 137.816 110.123 133.668 110.123V114.123C139.169 114.123 144.628 111.458 150.013 106.6L147.334 103.63ZM133.668 110.123C127.609 110.123 122.955 107.852 119.493 103.296L116.308 105.716C120.564 111.316 126.422 114.123 133.668 114.123V110.123ZM119.493 103.296C115.963 98.6507 113.895 92.0369 113.5 83.2403L109.504 83.4199C109.921 92.7014 112.12 100.205 116.308 105.716L119.493 103.296ZM113.499 83.2149C113.059 75.596 114.302 68.065 117.247 60.6035L113.526 59.1348C110.378 67.1108 109.031 75.2204 109.505 83.4453L113.499 83.2149ZM117.243 60.614C120.23 53.1709 124.398 47.4673 129.704 43.4043L127.272 40.2285C121.305 44.7983 116.739 51.1299 113.531 59.1243L117.243 60.614ZM129.713 43.3974C134.997 39.3035 140.849 37.3516 147.335 37.4937L147.423 33.4946C139.995 33.332 133.253 35.5949 127.263 40.2354L129.713 43.3974ZM147.322 37.4933C152.326 37.635 156.526 39.0877 160.016 41.7966L162.469 38.637C158.239 35.3537 153.197 33.658 147.435 33.4949L147.322 37.4933ZM160.026 41.8043C163.571 44.5211 166.315 48.4619 168.193 53.7582L171.963 52.4215C169.88 46.5459 166.733 41.9047 162.459 38.6293L160.026 41.8043ZM168.201 53.7789C170.147 59.0827 171.179 64.8755 171.278 71.1738L175.277 71.1113C175.172 64.4097 174.072 58.1673 171.956 52.4008L168.201 53.7789ZM171.278 71.1822C171.376 76.141 170.786 82.6609 169.475 90.7808L173.424 91.4185C174.753 83.1868 175.382 76.4019 175.277 71.103L171.278 71.1822ZM169.474 90.783C167.575 102.627 164.164 112.799 159.278 121.337L162.75 123.323C167.918 114.291 171.464 103.642 173.424 91.4162L169.474 90.783ZM159.276 121.34C154.446 129.817 148.404 136.175 141.174 140.494L143.225 143.928C151.127 139.208 157.628 132.311 162.751 123.32L159.276 121.34ZM141.174 140.494C133.921 144.826 125.887 147.072 117.029 147.219L117.096 151.218C126.621 151.061 135.345 148.635 143.225 143.928L141.174 140.494ZM117.062 147.219H114.244V151.219H117.062V147.219ZM116.234 149.423L118.138 130.837L114.159 130.429L112.255 149.015L116.234 149.423ZM116.148 132.633H116.986V128.633H116.148V132.633ZM140.295 97.3652C144.477 97.3652 148.002 94.7878 150.928 90.5622L147.639 88.2854C145.08 91.9817 142.613 93.3652 140.295 93.3652V97.3652ZM150.955 90.5222L152.707 87.8562L149.364 85.6595L147.612 88.3255L150.955 90.5222ZM153.021 86.9982C154.184 77.3894 154.787 71.1368 154.787 68.4004H150.787C150.787 70.8436 150.222 76.8294 149.05 86.5175L153.021 86.9982ZM154.787 68.4004C154.787 63.3721 154.181 59.2984 152.779 56.3915C152.066 54.9123 151.116 53.6718 149.877 52.7891C148.623 51.8961 147.179 51.4449 145.614 51.3955L145.488 55.3935C146.335 55.4203 147.001 55.6515 147.556 56.0471C148.126 56.453 148.684 57.1072 149.177 58.129C150.187 60.2241 150.787 63.5771 150.787 68.4004H154.787ZM145.598 51.3951C140.039 51.2643 136.173 55.1827 133.709 61.5041L137.436 62.9569C139.643 57.2939 142.43 55.3216 145.504 55.394L145.598 51.3951ZM133.709 61.5041C131.256 67.7951 130.189 74.9537 130.45 82.9384L134.448 82.8077C134.201 75.2534 135.216 68.6502 137.436 62.9569L133.709 61.5041ZM130.451 82.9489C130.609 87.1236 131.378 90.6067 132.947 93.2009L136.37 91.1312C135.298 89.3581 134.594 86.6459 134.448 82.7971L130.451 82.9489ZM132.976 93.2475C134.687 95.91 137.178 97.3652 140.295 97.3652V93.3652C138.638 93.3652 137.371 92.6877 136.341 91.0845L132.976 93.2475Z" fill="white" mask="url(#path-4-outside-1_3512_20447)"/>
<defs>
<linearGradient id="paint0_linear_3512_20447" x1="13.2827" y1="92.0836" x2="85.8315" y2="102.344" gradientUnits="userSpaceOnUse">
<stop stop-opacity="0"/>
<stop offset="1"/>
</linearGradient>
</defs>
</svg>
