<svg width="214" height="186" viewBox="0 0 214 186" fill="none" xmlns="http://www.w3.org/2000/svg">
<path d="M26.3062 0H100.306L74.3062 186H0.306152L26.3062 0Z" fill="url(#paint0_linear_3512_20366)"/>
<path d="M100 0H214V186H74L100 0Z" fill="black"/>
<path d="M86.4499 66.6715C91.3625 33.9179 105.8 23 144.2 23H153.8C192.2 23 203.362 33.9179 198.45 66.6715L191.081 115.802C186.168 148.556 171.731 159.473 133.331 159.473H123.731C85.3308 159.473 74.1684 148.556 79.081 115.802L86.4499 66.6715Z" fill="#D3D3D3"/>
<mask id="path-4-outside-1_3512_20366" maskUnits="userSpaceOnUse" x="83" y="35" width="94" height="115" fill="black">
<rect fill="white" x="83" y="35" width="94" height="115"/>
<path d="M149.664 125.301H120.186L110.512 148H86.7461L139.609 37.0938H159.643L174.191 148H151.568L149.664 125.301ZM128.184 106.639H148.141L145.018 67.334L128.184 106.639Z"/>
</mask>
<path d="M149.664 125.301H120.186L110.512 148H86.7461L139.609 37.0938H159.643L174.191 148H151.568L149.664 125.301ZM128.184 106.639H148.141L145.018 67.334L128.184 106.639Z" fill="black"/>
<path d="M149.664 125.301L151.657 125.134L151.503 123.301H149.664V125.301ZM120.186 125.301V123.301H118.864L118.346 124.517L120.186 125.301ZM110.512 148V150H111.833L112.352 148.784L110.512 148ZM86.7461 148L84.9407 147.139L83.5772 150H86.7461V148ZM139.609 37.0938V35.0938H138.347L137.804 36.2332L139.609 37.0938ZM159.643 37.0938L161.626 36.8336L161.397 35.0938H159.643V37.0938ZM174.191 148V150H176.471L176.174 147.74L174.191 148ZM151.568 148L149.575 148.167L149.729 150H151.568V148ZM128.184 106.639L126.345 105.851L125.151 108.639H128.184V106.639ZM148.141 106.639V108.639H150.306L150.134 106.48L148.141 106.639ZM145.018 67.334L147.011 67.1756L143.179 66.5466L145.018 67.334ZM149.664 123.301H120.186V127.301H149.664V123.301ZM118.346 124.517L108.672 147.216L112.352 148.784L122.025 126.085L118.346 124.517ZM110.512 146H86.7461V150H110.512V146ZM88.5515 148.861L141.415 37.9543L137.804 36.2332L84.9407 147.139L88.5515 148.861ZM139.609 39.0938H159.643V35.0938H139.609V39.0938ZM157.66 37.3539L172.208 148.26L176.174 147.74L161.626 36.8336L157.66 37.3539ZM174.191 146H151.568V150H174.191V146ZM153.561 147.833L151.657 125.134L147.671 125.468L149.575 148.167L153.561 147.833ZM128.184 108.639H148.141V104.639H128.184V108.639ZM150.134 106.48L147.011 67.1756L143.024 67.4924L146.147 106.797L150.134 106.48ZM143.179 66.5466L126.345 105.851L130.022 107.426L146.856 68.1214L143.179 66.5466Z" fill="white" mask="url(#path-4-outside-1_3512_20366)"/>
<defs>
<linearGradient id="paint0_linear_3512_20366" x1="13.2827" y1="92.0836" x2="85.8315" y2="102.344" gradientUnits="userSpaceOnUse">
<stop stop-opacity="0"/>
<stop offset="1"/>
</linearGradient>
</defs>
</svg>
