<svg width="214" height="186" viewBox="0 0 214 186" fill="none" xmlns="http://www.w3.org/2000/svg">
<path d="M26.3062 0H100.306L74.3062 186H0.306152L26.3062 0Z" fill="url(#paint0_linear_3512_20372)"/>
<path d="M100 0H214V186H74L100 0Z" fill="black"/>
<path d="M86.4499 66.6715C91.3625 33.9179 105.8 23 144.2 23H153.8C192.2 23 203.362 33.9179 198.45 66.6715L191.081 115.802C186.168 148.556 171.731 159.473 133.331 159.473H123.731C85.3308 159.473 74.1684 148.556 79.081 115.802L86.4499 66.6715Z" fill="#D3D3D3"/>
<mask id="path-4-outside-1_3512_20372" maskUnits="userSpaceOnUse" x="94" y="35" width="87" height="115" fill="black">
<rect fill="white" x="94" y="35" width="87" height="115"/>
<path d="M96.8008 148L115.996 37.0938L146.693 37.1699C157.357 37.1699 165.482 39.7598 171.068 44.9395C176.654 50.0684 179.117 57.3809 178.457 66.877C177.594 78.1504 171.703 86.3262 160.785 91.4043C164.695 93.0293 167.564 95.873 169.393 99.9355C171.221 103.947 171.932 108.898 171.525 114.789C170.764 125.098 167.082 133.223 160.48 139.164C153.93 145.055 145.119 148 134.049 148H96.8008ZM127.041 99.7832L121.861 129.414L134.658 129.566C139.482 129.465 143.266 127.713 146.008 124.311C148.801 120.857 150.248 115.957 150.35 109.609C150.35 103.516 147.785 100.266 142.656 99.8594L127.041 99.7832ZM129.783 83.4824L140.143 83.6348C145.678 83.5332 149.867 81.6543 152.711 77.998C155.555 74.3418 156.773 69.6699 156.367 63.9824C155.859 58.8535 152.812 56.1367 147.227 55.832L134.658 55.7559L129.783 83.4824Z"/>
</mask>
<path d="M96.8008 148L115.996 37.0938L146.693 37.1699C157.357 37.1699 165.482 39.7598 171.068 44.9395C176.654 50.0684 179.117 57.3809 178.457 66.877C177.594 78.1504 171.703 86.3262 160.785 91.4043C164.695 93.0293 167.564 95.873 169.393 99.9355C171.221 103.947 171.932 108.898 171.525 114.789C170.764 125.098 167.082 133.223 160.48 139.164C153.93 145.055 145.119 148 134.049 148H96.8008ZM127.041 99.7832L121.861 129.414L134.658 129.566C139.482 129.465 143.266 127.713 146.008 124.311C148.801 120.857 150.248 115.957 150.35 109.609C150.35 103.516 147.785 100.266 142.656 99.8594L127.041 99.7832ZM129.783 83.4824L140.143 83.6348C145.678 83.5332 149.867 81.6543 152.711 77.998C155.555 74.3418 156.773 69.6699 156.367 63.9824C155.859 58.8535 152.812 56.1367 147.227 55.832L134.658 55.7559L129.783 83.4824Z" fill="black"/>
<path d="M96.8008 148L94.8301 147.659L94.4249 150H96.8008V148ZM115.996 37.0938L116.001 35.0938L114.313 35.0896L114.025 36.7527L115.996 37.0938ZM146.693 37.1699L146.688 39.1699H146.693V37.1699ZM171.068 44.9395L169.708 46.406L169.716 46.4126L171.068 44.9395ZM178.457 66.877L180.451 67.0297L180.452 67.0157L178.457 66.877ZM160.785 91.4043L159.942 89.5909L155.821 91.5073L160.018 93.2512L160.785 91.4043ZM169.393 99.9355L167.569 100.756L167.573 100.765L169.393 99.9355ZM171.525 114.789L173.52 114.936L173.521 114.927L171.525 114.789ZM160.48 139.164L161.818 140.651L161.818 140.651L160.48 139.164ZM127.041 99.7832L127.051 97.7832L125.362 97.775L125.071 99.4388L127.041 99.7832ZM121.861 129.414L119.891 129.07L119.486 131.386L121.838 131.414L121.861 129.414ZM134.658 129.566L134.634 131.566L134.667 131.567L134.7 131.566L134.658 129.566ZM146.008 124.311L144.453 123.053L144.451 123.055L146.008 124.311ZM150.35 109.609L152.349 109.641L152.35 109.625V109.609H150.35ZM142.656 99.8594L142.814 97.8656L142.74 97.8598L142.666 97.8594L142.656 99.8594ZM129.783 83.4824L127.813 83.1361L127.407 85.4477L129.754 85.4822L129.783 83.4824ZM140.143 83.6348L140.113 85.6346L140.146 85.635L140.179 85.6344L140.143 83.6348ZM156.367 63.9824L158.362 63.8399L158.36 63.8126L158.357 63.7854L156.367 63.9824ZM147.227 55.832L147.335 53.835L147.287 53.8324L147.239 53.8321L147.227 55.832ZM134.658 55.7559L134.67 53.7559L132.981 53.7457L132.688 55.4095L134.658 55.7559ZM98.7715 148.341L117.967 37.4348L114.025 36.7527L94.8301 147.659L98.7715 148.341ZM115.991 39.0937L146.688 39.1699L146.698 35.1699L116.001 35.0938L115.991 39.0937ZM146.693 39.1699C157.055 39.1699 164.618 41.6857 169.708 46.406L172.428 43.4729C166.347 37.8338 157.659 35.1699 146.693 35.1699V39.1699ZM169.716 46.4126C174.741 51.0272 177.092 57.6795 176.462 66.7383L180.452 67.0157C181.143 57.0822 178.567 49.1095 172.421 43.4663L169.716 46.4126ZM176.463 66.7242C175.659 77.221 170.257 84.7933 159.942 89.5909L161.629 93.2177C173.15 87.8591 179.528 79.0798 180.451 67.0297L176.463 66.7242ZM160.018 93.2512C163.432 94.67 165.937 97.1311 167.569 100.756L171.216 99.1148C169.191 94.615 165.959 91.3886 161.553 89.5574L160.018 93.2512ZM167.573 100.765C169.224 104.389 169.921 108.985 169.53 114.651L173.521 114.927C173.942 108.812 173.217 103.506 171.213 99.1062L167.573 100.765ZM169.531 114.642C168.8 124.526 165.298 132.137 159.143 137.677L161.818 140.651C168.866 134.308 172.727 125.669 173.52 114.936L169.531 114.642ZM159.143 137.677C153.047 143.159 144.757 146 134.049 146V150C145.481 150 154.813 146.95 161.818 140.651L159.143 137.677ZM134.049 146H96.8008V150H134.049V146ZM125.071 99.4388L119.891 129.07L123.831 129.758L129.011 100.128L125.071 99.4388ZM121.838 131.414L134.634 131.566L134.682 127.567L121.885 127.414L121.838 131.414ZM134.7 131.566C140.045 131.453 144.411 129.479 147.565 125.566L144.451 123.055C142.12 125.947 138.92 127.476 134.616 127.567L134.7 131.566ZM147.563 125.568C150.735 121.646 152.244 116.249 152.349 109.641L148.35 109.577C148.252 115.665 146.866 120.069 144.453 123.053L147.563 125.568ZM152.35 109.609C152.35 106.317 151.662 103.473 149.996 101.363C148.289 99.1983 145.789 98.1013 142.814 97.8656L142.498 101.853C144.652 102.024 146 102.755 146.856 103.84C147.755 104.98 148.35 106.808 148.35 109.609H152.35ZM142.666 97.8594L127.051 97.7832L127.031 101.783L142.646 101.859L142.666 97.8594ZM129.754 85.4822L140.113 85.6346L140.172 81.635L129.813 81.4826L129.754 85.4822ZM140.179 85.6344C146.188 85.5242 151.001 83.4538 154.29 79.2259L151.132 76.7702C148.733 79.8548 145.168 81.5422 140.106 81.6351L140.179 85.6344ZM154.29 79.2259C157.502 75.0951 158.795 69.9011 158.362 63.8399L154.372 64.1249C154.752 69.4388 153.607 73.5885 151.132 76.7702L154.29 79.2259ZM158.357 63.7854C158.068 60.8579 157.021 58.3789 155.032 56.6054C153.064 54.8505 150.415 54.003 147.335 53.835L147.118 57.8291C149.624 57.9658 151.291 58.629 152.37 59.5909C153.428 60.5342 154.159 61.978 154.377 64.1795L158.357 63.7854ZM147.239 53.8321L134.67 53.7559L134.646 57.7558L147.214 57.832L147.239 53.8321ZM132.688 55.4095L127.813 83.1361L131.753 83.8288L136.628 56.1022L132.688 55.4095Z" fill="white" mask="url(#path-4-outside-1_3512_20372)"/>
<defs>
<linearGradient id="paint0_linear_3512_20372" x1="13.2827" y1="92.0836" x2="85.8315" y2="102.344" gradientUnits="userSpaceOnUse">
<stop stop-opacity="0"/>
<stop offset="1"/>
</linearGradient>
</defs>
</svg>
