<svg width="214" height="186" viewBox="0 0 214 186" fill="none" xmlns="http://www.w3.org/2000/svg">
<path d="M26.3062 0H100.306L74.3062 186H0.306152L26.3062 0Z" fill="url(#paint0_linear_3512_20378)"/>
<path d="M100 0H214V186H74L100 0Z" fill="black"/>
<path d="M86.4499 66.6715C91.3625 33.9179 105.8 23 144.2 23H153.8C192.2 23 203.362 33.9179 198.45 66.6715L191.081 115.802C186.168 148.556 171.731 159.473 133.331 159.473H123.731C85.3308 159.473 74.1684 148.556 79.081 115.802L86.4499 66.6715Z" fill="#D3D3D3"/>
<mask id="path-4-outside-1_3512_20378" maskUnits="userSpaceOnUse" x="99" y="33" width="86" height="119" fill="black">
<rect fill="white" x="99" y="33" width="86" height="119"/>
<path d="M174.801 110.98C173.43 123.016 168.986 132.537 161.471 139.545C154.006 146.502 144.535 149.828 133.059 149.523C123.207 149.32 115.59 146.07 110.207 139.773C104.824 133.477 101.98 124.742 101.676 113.57C101.574 109.762 101.777 105.928 102.285 102.068L105.104 83.7109C107.49 68.0195 112.645 56.0098 120.566 47.6816C128.539 39.3535 138.416 35.3164 150.197 35.5703C160.506 35.7227 168.428 39.1504 173.963 45.8535C179.498 52.5059 182.266 62.1797 182.266 74.875L160.252 74.7988L160.404 67.2578C160.252 58.7266 156.266 54.334 148.445 54.0801C142.402 53.877 137.629 56.0859 134.125 60.707C130.621 65.2773 128.26 72.7168 127.041 83.0254L124.299 102.145C123.588 108.238 123.207 112.225 123.156 114.104C122.648 125.072 126.508 130.734 134.734 131.09C139.863 131.344 143.951 129.998 146.998 127.053C150.045 124.057 152.178 118.75 153.396 111.133L174.801 110.98Z"/>
</mask>
<path d="M174.801 110.98C173.43 123.016 168.986 132.537 161.471 139.545C154.006 146.502 144.535 149.828 133.059 149.523C123.207 149.32 115.59 146.07 110.207 139.773C104.824 133.477 101.98 124.742 101.676 113.57C101.574 109.762 101.777 105.928 102.285 102.068L105.104 83.7109C107.49 68.0195 112.645 56.0098 120.566 47.6816C128.539 39.3535 138.416 35.3164 150.197 35.5703C160.506 35.7227 168.428 39.1504 173.963 45.8535C179.498 52.5059 182.266 62.1797 182.266 74.875L160.252 74.7988L160.404 67.2578C160.252 58.7266 156.266 54.334 148.445 54.0801C142.402 53.877 137.629 56.0859 134.125 60.707C130.621 65.2773 128.26 72.7168 127.041 83.0254L124.299 102.145C123.588 108.238 123.207 112.225 123.156 114.104C122.648 125.072 126.508 130.734 134.734 131.09C139.863 131.344 143.951 129.998 146.998 127.053C150.045 124.057 152.178 118.75 153.396 111.133L174.801 110.98Z" fill="black"/>
<path d="M174.801 110.98L176.788 111.207L177.043 108.964L174.787 108.981L174.801 110.98ZM161.471 139.545L162.834 141.008L162.835 141.008L161.471 139.545ZM133.059 149.523L133.112 147.524L133.1 147.524L133.059 149.523ZM101.676 113.57L99.6765 113.624L99.6765 113.625L101.676 113.57ZM102.285 102.068L100.308 101.765L100.305 101.786L100.302 101.807L102.285 102.068ZM105.104 83.7109L107.08 84.0144L107.081 84.0117L105.104 83.7109ZM120.566 47.6816L119.122 46.2986L119.117 46.3032L120.566 47.6816ZM150.197 35.5703L150.154 37.5699L150.168 37.5701L150.197 35.5703ZM173.963 45.8535L172.421 47.127L172.425 47.1327L173.963 45.8535ZM182.266 74.875L182.259 76.875L184.266 76.8819V74.875H182.266ZM160.252 74.7988L158.252 74.7584L158.211 76.7918L160.245 76.7988L160.252 74.7988ZM160.404 67.2578L162.404 67.2982L162.405 67.2602L162.404 67.2221L160.404 67.2578ZM148.445 54.0801L148.378 56.0789L148.38 56.079L148.445 54.0801ZM134.125 60.707L135.712 61.9239L135.719 61.9154L134.125 60.707ZM127.041 83.0254L129.021 83.3093L129.024 83.2848L129.027 83.2602L127.041 83.0254ZM124.299 102.145L122.319 101.861L122.315 101.887L122.312 101.913L124.299 102.145ZM123.156 114.104L125.154 114.196L125.155 114.177L125.156 114.158L123.156 114.104ZM134.734 131.09L134.833 129.092L134.821 129.092L134.734 131.09ZM146.998 127.053L148.388 128.491L148.394 128.485L148.4 128.479L146.998 127.053ZM153.396 111.133L153.382 109.133L151.689 109.145L151.422 110.817L153.396 111.133ZM172.814 110.754C171.486 122.405 167.214 131.455 160.107 138.082L162.835 141.008C170.759 133.619 175.373 123.626 176.788 111.207L172.814 110.754ZM160.107 138.082C153.075 144.635 144.135 147.817 133.112 147.524L133.006 151.523C144.935 151.839 154.937 148.369 162.834 141.008L160.107 138.082ZM133.1 147.524C123.7 147.33 116.669 144.255 111.727 138.474L108.687 141.073C114.511 147.886 122.714 151.311 133.017 151.523L133.1 147.524ZM111.727 138.474C106.731 132.629 103.972 124.39 103.675 113.516L99.6765 113.625C99.9893 125.095 102.917 134.324 108.687 141.073L111.727 138.474ZM103.675 113.517C103.576 109.816 103.774 106.087 104.268 102.329L100.302 101.807C99.781 105.769 99.5721 109.708 99.6765 113.624L103.675 113.517ZM104.262 102.372L107.08 84.0144L103.127 83.4074L100.308 101.765L104.262 102.372ZM107.081 84.0117C109.429 68.5751 114.465 56.9979 122.016 49.0601L119.117 46.3032C110.824 55.0217 105.552 67.4639 103.126 83.4102L107.081 84.0117ZM122.011 49.0647C129.587 41.1515 138.919 37.3277 150.154 37.5698L150.24 33.5708C137.913 33.3051 127.492 37.5555 119.122 46.2986L122.011 49.0647ZM150.168 37.5701C160.01 37.7155 167.329 40.9612 172.421 47.127L175.505 44.5801C169.526 37.3396 161.001 33.7298 150.227 33.5705L150.168 37.5701ZM172.425 47.1327C177.55 53.291 180.266 62.4351 180.266 74.875H184.266C184.266 61.9243 181.447 51.7207 175.5 44.5743L172.425 47.1327ZM182.273 72.875L160.259 72.7988L160.245 76.7988L182.259 76.875L182.273 72.875ZM162.252 74.8392L162.404 67.2982L158.405 67.2174L158.252 74.7584L162.252 74.8392ZM162.404 67.2221C162.323 62.6813 161.218 58.9055 158.781 56.2209C156.319 53.5074 152.782 52.2198 148.51 52.0811L148.38 56.079C151.929 56.1942 154.295 57.2299 155.819 58.909C157.369 60.6169 158.333 63.3031 158.405 67.2935L162.404 67.2221ZM148.513 52.0812C141.853 51.8574 136.447 54.3344 132.531 59.4986L135.719 61.9154C138.811 57.8374 142.952 55.8965 148.378 56.0789L148.513 52.0812ZM132.538 59.4902C128.702 64.4936 126.287 72.371 125.055 82.7906L129.027 83.2602C130.233 73.0626 132.54 66.0611 135.712 61.9239L132.538 59.4902ZM125.061 82.7414L122.319 101.861L126.279 102.428L129.021 83.3093L125.061 82.7414ZM122.312 101.913C121.604 107.986 121.211 112.065 121.157 114.049L125.156 114.158C125.203 112.384 125.572 108.49 126.285 102.376L122.312 101.913ZM121.158 114.011C120.896 119.687 121.736 124.356 124.017 127.703C126.376 131.163 130.047 132.889 134.648 133.088L134.821 129.092C131.195 128.935 128.823 127.652 127.323 125.45C125.745 123.136 124.909 119.489 125.154 114.196L121.158 114.011ZM134.635 133.087C140.191 133.362 144.861 131.9 148.388 128.491L145.608 125.615C143.041 128.096 139.536 129.325 134.833 129.092L134.635 133.087ZM148.4 128.479C151.913 125.025 154.133 119.19 155.371 111.449L151.422 110.817C150.223 118.31 148.177 123.088 145.596 125.627L148.4 128.479ZM153.411 113.133L174.815 112.98L174.787 108.981L153.382 109.133L153.411 113.133Z" fill="white" mask="url(#path-4-outside-1_3512_20378)"/>
<defs>
<linearGradient id="paint0_linear_3512_20378" x1="13.2827" y1="92.0836" x2="85.8315" y2="102.344" gradientUnits="userSpaceOnUse">
<stop stop-opacity="0"/>
<stop offset="1"/>
</linearGradient>
</defs>
</svg>
