<svg width="214" height="186" viewBox="0 0 214 186" fill="none" xmlns="http://www.w3.org/2000/svg">
<path d="M26.3062 0H100.306L74.3062 186H0.306152L26.3062 0Z" fill="url(#paint0_linear_3512_20384)"/>
<path d="M100 0H214V186H74L100 0Z" fill="black"/>
<path d="M86.4499 66.6715C91.3625 33.9179 105.8 23 144.2 23H153.8C192.2 23 203.362 33.9179 198.45 66.6715L191.081 115.802C186.168 148.556 171.731 159.473 133.331 159.473H123.731C85.3308 159.473 74.1684 148.556 79.081 115.802L86.4499 66.6715Z" fill="#D3D3D3"/>
<mask id="path-4-outside-1_3512_20384" maskUnits="userSpaceOnUse" x="94" y="35" width="87" height="115" fill="black">
<rect fill="white" x="94" y="35" width="87" height="115"/>
<path d="M97.0723 148L116.268 37.0938L143.613 37.1699C151.688 37.373 158.492 39.4805 164.027 43.4922C169.613 47.5039 173.6 53.0645 175.986 60.1738C178.424 67.2832 179.084 75.2305 177.967 84.0156L175.529 100.24C173.295 115.17 167.887 126.85 159.305 135.279C150.773 143.709 140.033 147.949 127.084 148H97.0723ZM134.93 55.7559L122.133 129.414L127.541 129.566C135.107 129.566 140.973 127.383 145.137 123.016C149.301 118.598 152.094 111.514 153.516 101.764L156.105 83.7871C156.816 77.9473 157.096 73.6816 156.943 70.9902C156.689 65.9121 155.395 62.1543 153.059 59.7168C150.723 57.2793 147.27 55.9844 142.699 55.832L134.93 55.7559Z"/>
</mask>
<path d="M97.0723 148L116.268 37.0938L143.613 37.1699C151.688 37.373 158.492 39.4805 164.027 43.4922C169.613 47.5039 173.6 53.0645 175.986 60.1738C178.424 67.2832 179.084 75.2305 177.967 84.0156L175.529 100.24C173.295 115.17 167.887 126.85 159.305 135.279C150.773 143.709 140.033 147.949 127.084 148H97.0723ZM134.93 55.7559L122.133 129.414L127.541 129.566C135.107 129.566 140.973 127.383 145.137 123.016C149.301 118.598 152.094 111.514 153.516 101.764L156.105 83.7871C156.816 77.9473 157.096 73.6816 156.943 70.9902C156.689 65.9121 155.395 62.1543 153.059 59.7168C150.723 57.2793 147.27 55.9844 142.699 55.832L134.93 55.7559Z" fill="black"/>
<path d="M97.0723 148L95.1016 147.659L94.6964 150H97.0723V148ZM116.268 37.0938L116.273 35.0938L114.585 35.0891L114.297 36.7527L116.268 37.0938ZM143.613 37.1699L143.664 35.1706L143.641 35.17L143.619 35.1699L143.613 37.1699ZM164.027 43.4922L162.854 45.1116L162.861 45.1167L164.027 43.4922ZM175.986 60.1738L174.09 60.8104L174.094 60.8225L175.986 60.1738ZM177.967 84.0156L179.945 84.3128L179.948 84.2904L179.951 84.2679L177.967 84.0156ZM175.529 100.24L173.551 99.9431L173.551 99.9442L175.529 100.24ZM159.305 135.279L157.903 133.852L157.899 133.857L159.305 135.279ZM127.084 148V150L127.092 150L127.084 148ZM134.93 55.7559L134.949 53.756L133.25 53.7393L132.959 55.4135L134.93 55.7559ZM122.133 129.414L120.162 129.072L119.767 131.348L122.076 131.413L122.133 129.414ZM127.541 129.566L127.485 131.566L127.513 131.566H127.541V129.566ZM145.137 123.016L146.584 124.396L146.592 124.387L145.137 123.016ZM153.516 101.764L155.495 102.052L155.495 102.049L153.516 101.764ZM156.105 83.7871L158.085 84.0723L158.088 84.0506L158.091 84.0288L156.105 83.7871ZM156.943 70.9902L154.946 71.0901L154.947 71.1033L156.943 70.9902ZM142.699 55.832L142.766 53.8331L142.742 53.8324L142.719 53.8321L142.699 55.832ZM99.043 148.341L118.238 37.4348L114.297 36.7527L95.1016 147.659L99.043 148.341ZM116.262 39.0937L143.608 39.1699L143.619 35.1699L116.273 35.0938L116.262 39.0937ZM143.563 39.1693C151.308 39.3641 157.702 41.3777 162.854 45.1116L165.201 41.8728C159.282 37.5832 152.067 35.382 143.664 35.1706L143.563 39.1693ZM162.861 45.1167C168.075 48.8614 171.824 54.0607 174.09 60.8103L177.882 59.5373C175.375 52.0682 171.152 46.1464 165.194 41.8677L162.861 45.1167ZM174.094 60.8225C176.417 67.5953 177.068 75.2278 175.983 83.7633L179.951 84.2679C181.1 75.2331 180.431 66.9711 177.878 59.5252L174.094 60.8225ZM175.989 83.7185L173.551 99.9431L177.507 100.537L179.945 84.3128L175.989 83.7185ZM173.551 99.9442C171.365 114.555 166.104 125.797 157.903 133.852L160.706 136.706C169.67 127.902 175.225 115.784 177.507 100.536L173.551 99.9442ZM157.899 133.857C149.772 141.887 139.548 145.951 127.076 146L127.092 150C140.519 149.947 151.775 145.531 160.71 136.702L157.899 133.857ZM127.084 146H97.0723V150H127.084V146ZM132.959 55.4135L120.162 129.072L124.103 129.756L136.9 56.0982L132.959 55.4135ZM122.076 131.413L127.485 131.566L127.597 127.567L122.189 127.415L122.076 131.413ZM127.541 131.566C135.507 131.566 141.952 129.254 146.584 124.396L143.689 121.635C139.994 125.511 134.708 127.566 127.541 127.566V131.566ZM146.592 124.387C151.164 119.537 154.047 111.977 155.495 102.052L151.537 101.475C150.14 111.05 147.438 117.659 143.681 121.644L146.592 124.387ZM155.495 102.049L158.085 84.0723L154.126 83.5019L151.536 101.478L155.495 102.049ZM158.091 84.0288C158.803 78.1755 159.103 73.759 158.94 70.8772L154.947 71.1033C155.088 73.6043 154.829 77.719 154.12 83.5454L158.091 84.0288ZM158.941 70.8904C158.675 65.5667 157.304 61.2567 154.503 58.333L151.615 61.1006C153.485 63.0519 154.704 66.2576 154.946 71.0901L158.941 70.8904ZM154.503 58.333C151.693 55.4009 147.669 53.9966 142.766 53.8331L142.633 57.8309C146.87 57.9722 149.753 59.1577 151.615 61.1006L154.503 58.333ZM142.719 53.8321L134.949 53.756L134.91 57.7558L142.68 57.8319L142.719 53.8321Z" fill="white" mask="url(#path-4-outside-1_3512_20384)"/>
<defs>
<linearGradient id="paint0_linear_3512_20384" x1="13.2827" y1="92.0836" x2="85.8315" y2="102.344" gradientUnits="userSpaceOnUse">
<stop stop-opacity="0"/>
<stop offset="1"/>
</linearGradient>
</defs>
</svg>
