<svg width="214" height="186" viewBox="0 0 214 186" fill="none" xmlns="http://www.w3.org/2000/svg">
<path d="M26.3062 0H100.306L74.3062 186H0.306152L26.3062 0Z" fill="url(#paint0_linear_3512_20390)"/>
<path d="M100 0H214V186H74L100 0Z" fill="black"/>
<path d="M86.4499 66.6715C91.3625 33.9179 105.8 23 144.2 23H153.8C192.2 23 203.362 33.9179 198.45 66.6715L191.081 115.802C186.168 148.556 171.731 159.473 133.331 159.473H123.731C85.3308 159.473 74.1684 148.556 79.081 115.802L86.4499 66.6715Z" fill="#D3D3D3"/>
<mask id="path-4-outside-1_3512_20390" maskUnits="userSpaceOnUse" x="99" y="35" width="87" height="115" fill="black">
<rect fill="white" x="99" y="35" width="87" height="115"/>
<path d="M166.117 100.012H132.297L127.193 129.414H167.26L163.984 148H102.133L121.328 37.0938H183.104L179.828 55.7559H139.99L135.42 81.959H169.316L166.117 100.012Z"/>
</mask>
<path d="M166.117 100.012H132.297L127.193 129.414H167.26L163.984 148H102.133L121.328 37.0938H183.104L179.828 55.7559H139.99L135.42 81.959H169.316L166.117 100.012Z" fill="black"/>
<path d="M166.117 100.012V102.012H167.794L168.087 100.361L166.117 100.012ZM132.297 100.012V98.0117H130.614L130.326 99.6697L132.297 100.012ZM127.193 129.414L125.223 129.072L124.816 131.414H127.193V129.414ZM167.26 129.414L169.229 129.761L169.643 127.414H167.26V129.414ZM163.984 148V150H165.663L165.954 148.347L163.984 148ZM102.133 148L100.162 147.659L99.7569 150H102.133V148ZM121.328 37.0938V35.0938H119.645L119.357 36.7527L121.328 37.0938ZM183.104 37.0938L185.073 37.4395L185.485 35.0938H183.104V37.0938ZM179.828 55.7559V57.7559H181.508L181.798 56.1016L179.828 55.7559ZM139.99 55.7559V53.7559H138.309L138.02 55.4122L139.99 55.7559ZM135.42 81.959L133.45 81.6153L133.041 83.959H135.42V81.959ZM169.316 81.959L171.286 82.308L171.702 79.959H169.316V81.959ZM166.117 98.0117H132.297V102.012H166.117V98.0117ZM130.326 99.6697L125.223 129.072L129.164 129.756L134.267 100.354L130.326 99.6697ZM127.193 131.414H167.26V127.414H127.193V131.414ZM165.29 129.067L162.015 147.653L165.954 148.347L169.229 129.761L165.29 129.067ZM163.984 146H102.133V150H163.984V146ZM104.104 148.341L123.299 37.4348L119.357 36.7527L100.162 147.659L104.104 148.341ZM121.328 39.0938H183.104V35.0938H121.328V39.0938ZM181.134 36.748L177.858 55.4101L181.798 56.1016L185.073 37.4395L181.134 36.748ZM179.828 53.7559H139.99V57.7559H179.828V53.7559ZM138.02 55.4122L133.45 81.6153L137.39 82.3026L141.96 56.0995L138.02 55.4122ZM135.42 83.959H169.316V79.959H135.42V83.959ZM167.347 81.61L164.148 99.6627L168.087 100.361L171.286 82.308L167.347 81.61Z" fill="white" mask="url(#path-4-outside-1_3512_20390)"/>
<defs>
<linearGradient id="paint0_linear_3512_20390" x1="13.2827" y1="92.0836" x2="85.8315" y2="102.344" gradientUnits="userSpaceOnUse">
<stop stop-opacity="0"/>
<stop offset="1"/>
</linearGradient>
</defs>
</svg>
