<svg width="214" height="186" viewBox="0 0 214 186" fill="none" xmlns="http://www.w3.org/2000/svg">
<path d="M26.3062 0H100.306L74.3062 186H0.306152L26.3062 0Z" fill="url(#paint0_linear_3512_20396)"/>
<path d="M100 0H214V186H74L100 0Z" fill="black"/>
<path d="M86.4499 66.6715C91.3625 33.9179 105.8 23 144.2 23H153.8C192.2 23 203.362 33.9179 198.45 66.6715L191.081 115.802C186.168 148.556 171.731 159.473 133.331 159.473H123.731C85.3308 159.473 74.1684 148.556 79.081 115.802L86.4499 66.6715Z" fill="#D3D3D3"/>
<mask id="path-4-outside-1_3512_20396" maskUnits="userSpaceOnUse" x="101" y="35" width="85" height="115" fill="black">
<rect fill="white" x="101" y="35" width="85" height="115"/>
<path d="M167.227 102.754H133.482L125.637 148H103.775L122.971 37.0938H182.689L179.414 55.7559H141.633L136.682 84.168H170.502L167.227 102.754Z"/>
</mask>
<path d="M167.227 102.754H133.482L125.637 148H103.775L122.971 37.0938H182.689L179.414 55.7559H141.633L136.682 84.168H170.502L167.227 102.754Z" fill="black"/>
<path d="M167.227 102.754V104.754H168.905L169.196 103.101L167.227 102.754ZM133.482 102.754V100.754H131.799L131.512 102.412L133.482 102.754ZM125.637 148V150H127.32L127.607 148.342L125.637 148ZM103.775 148L101.805 147.659L101.4 150H103.775V148ZM122.971 37.0938V35.0938H121.287L121 36.7527L122.971 37.0938ZM182.689 37.0938L184.659 37.4395L185.071 35.0938H182.689V37.0938ZM179.414 55.7559V57.7559H181.094L181.384 56.1016L179.414 55.7559ZM141.633 55.7559V53.7559H139.951L139.663 55.4125L141.633 55.7559ZM136.682 84.168L134.711 83.8246L134.303 86.168H136.682V84.168ZM170.502 84.168L172.472 84.5151L172.885 82.168H170.502V84.168ZM167.227 100.754H133.482V104.754H167.227V100.754ZM131.512 102.412L123.666 147.658L127.607 148.342L135.453 103.096L131.512 102.412ZM125.637 146H103.775V150H125.637V146ZM105.746 148.341L124.941 37.4348L121 36.7527L101.805 147.659L105.746 148.341ZM122.971 39.0938H182.689V35.0938H122.971V39.0938ZM180.72 36.748L177.444 55.4101L181.384 56.1016L184.659 37.4395L180.72 36.748ZM179.414 53.7559H141.633V57.7559H179.414V53.7559ZM139.663 55.4125L134.711 83.8246L138.652 84.5113L143.603 56.0992L139.663 55.4125ZM136.682 86.168H170.502V82.168H136.682V86.168ZM168.532 83.8209L165.257 102.407L169.196 103.101L172.472 84.5151L168.532 83.8209Z" fill="white" mask="url(#path-4-outside-1_3512_20396)"/>
<defs>
<linearGradient id="paint0_linear_3512_20396" x1="13.2827" y1="92.0836" x2="85.8315" y2="102.344" gradientUnits="userSpaceOnUse">
<stop stop-opacity="0"/>
<stop offset="1"/>
</linearGradient>
</defs>
</svg>
