<svg width="214" height="186" viewBox="0 0 214 186" fill="none" xmlns="http://www.w3.org/2000/svg">
<path d="M26.3062 0H100.306L74.3062 186H0.306152L26.3062 0Z" fill="url(#paint0_linear_3512_20402)"/>
<path d="M100 0H214V186H74L100 0Z" fill="black"/>
<path d="M86.4499 66.6715C91.3625 33.9179 105.8 23 144.2 23H153.8C192.2 23 203.362 33.9179 198.45 66.6715L191.081 115.802C186.168 148.556 171.731 159.473 133.331 159.473H123.731C85.3308 159.473 74.1684 148.556 79.081 115.802L86.4499 66.6715Z" fill="#D3D3D3"/>
<mask id="path-4-outside-1_3512_20402" maskUnits="userSpaceOnUse" x="99" y="33" width="85" height="119" fill="black">
<rect fill="white" x="99" y="33" width="85" height="119"/>
<path d="M171.297 135.432C167.184 140.002 161.826 143.531 155.225 146.02C148.623 148.457 141.539 149.625 133.973 149.523C127.32 149.473 121.557 148.025 116.682 145.182C111.807 142.287 108.023 138.123 105.332 132.689C102.691 127.205 101.27 120.908 101.066 113.799C100.914 109.939 101.092 106.004 101.6 101.992L104.342 83.6348C106.678 68.1973 111.705 56.2637 119.424 47.834C127.143 39.4043 137.197 35.3164 149.588 35.5703C160.15 35.7734 168.098 38.9727 173.43 45.168C178.812 51.3125 181.555 60.4277 181.656 72.5137L160.404 72.4375L160.176 66.3438C159.516 58.4219 155.631 54.334 148.521 54.0801C138.01 53.6738 131.104 60.6055 127.803 74.875L126.66 80.5879L123.613 101.992C122.953 106.867 122.699 111.031 122.852 114.484C123.105 120.172 124.375 124.311 126.66 126.9C128.996 129.439 132.271 130.76 136.486 130.861C140.447 130.963 144.865 129.668 149.74 126.977L153.625 106.562H138.314L141.285 89.6523H178.305L171.297 135.432Z"/>
</mask>
<path d="M171.297 135.432C167.184 140.002 161.826 143.531 155.225 146.02C148.623 148.457 141.539 149.625 133.973 149.523C127.32 149.473 121.557 148.025 116.682 145.182C111.807 142.287 108.023 138.123 105.332 132.689C102.691 127.205 101.27 120.908 101.066 113.799C100.914 109.939 101.092 106.004 101.6 101.992L104.342 83.6348C106.678 68.1973 111.705 56.2637 119.424 47.834C127.143 39.4043 137.197 35.3164 149.588 35.5703C160.15 35.7734 168.098 38.9727 173.43 45.168C178.812 51.3125 181.555 60.4277 181.656 72.5137L160.404 72.4375L160.176 66.3438C159.516 58.4219 155.631 54.334 148.521 54.0801C138.01 53.6738 131.104 60.6055 127.803 74.875L126.66 80.5879L123.613 101.992C122.953 106.867 122.699 111.031 122.852 114.484C123.105 120.172 124.375 124.311 126.66 126.9C128.996 129.439 132.271 130.76 136.486 130.861C140.447 130.963 144.865 129.668 149.74 126.977L153.625 106.562H138.314L141.285 89.6523H178.305L171.297 135.432Z" fill="black"/>
<path d="M171.297 135.432L172.783 136.77L173.183 136.325L173.274 135.734L171.297 135.432ZM155.225 146.02L155.917 147.896L155.93 147.891L155.225 146.02ZM133.973 149.523L134 147.524L133.988 147.523L133.973 149.523ZM116.682 145.182L115.661 146.901L115.667 146.905L115.674 146.909L116.682 145.182ZM105.332 132.689L103.53 133.557L103.535 133.567L103.54 133.577L105.332 132.689ZM101.066 113.799L103.066 113.742L103.065 113.731L103.065 113.72L101.066 113.799ZM101.6 101.992L99.6216 101.697L99.6183 101.719L99.6154 101.741L101.6 101.992ZM104.342 83.6348L102.364 83.3355L102.364 83.3393L104.342 83.6348ZM149.588 35.5703L149.547 37.5699L149.549 37.5699L149.588 35.5703ZM173.43 45.168L171.914 46.4726L171.92 46.4793L171.925 46.4859L173.43 45.168ZM181.656 72.5137L181.649 74.5137L183.673 74.5209L183.656 72.4969L181.656 72.5137ZM160.404 72.4375L158.406 72.5124L158.478 74.4306L160.397 74.4375L160.404 72.4375ZM160.176 66.3438L162.174 66.2688L162.173 66.2232L162.169 66.1777L160.176 66.3438ZM148.521 54.0801L148.444 56.0786L148.45 56.0788L148.521 54.0801ZM127.803 74.875L125.854 74.4243L125.847 74.4534L125.842 74.4828L127.803 74.875ZM126.66 80.5879L124.699 80.1957L124.688 80.2506L124.68 80.306L126.66 80.5879ZM123.613 101.992L121.633 101.71L121.631 101.724L123.613 101.992ZM122.852 114.484L120.854 114.573L120.854 114.574L122.852 114.484ZM126.66 126.9L125.16 128.224L125.174 128.239L125.188 128.255L126.66 126.9ZM136.486 130.861L136.538 128.862L136.535 128.862L136.486 130.861ZM149.74 126.977L150.707 128.727L151.529 128.273L151.705 127.35L149.74 126.977ZM153.625 106.562L155.59 106.936L156.041 104.562H153.625V106.562ZM138.314 106.562L136.345 106.216L135.932 108.562H138.314V106.562ZM141.285 89.6523V87.6523H139.606L139.315 89.3063L141.285 89.6523ZM178.305 89.6523L180.282 89.955L180.634 87.6523H178.305V89.6523ZM169.81 134.094C165.941 138.393 160.866 141.756 154.519 144.148L155.93 147.891C162.787 145.307 168.427 141.611 172.783 136.77L169.81 134.094ZM154.532 144.143C148.177 146.49 141.339 147.622 134 147.524L133.946 151.523C141.739 151.628 149.069 150.424 155.917 147.896L154.532 144.143ZM133.988 147.523C127.622 147.475 122.213 146.093 117.689 143.454L115.674 146.909C120.9 149.958 127.019 151.47 133.957 151.523L133.988 147.523ZM117.703 143.462C113.183 140.778 109.657 136.915 107.124 131.802L103.54 133.577C106.39 139.332 110.43 143.796 115.661 146.901L117.703 143.462ZM107.134 131.822C104.634 126.63 103.262 120.617 103.066 113.742L99.0672 113.856C99.277 121.199 100.749 127.78 103.53 133.557L107.134 131.822ZM103.065 113.72C102.917 109.976 103.089 106.151 103.584 102.243L99.6154 101.741C99.0944 105.857 98.9111 109.903 99.068 113.878L103.065 113.72ZM103.578 102.288L106.32 83.9302L102.364 83.3393L99.6216 101.697L103.578 102.288ZM106.319 83.934C108.617 68.7493 113.53 57.2322 120.899 49.1846L117.949 46.4833C109.88 55.2951 104.739 67.6452 102.364 83.3355L106.319 83.934ZM120.899 49.1846C128.194 41.2179 137.677 37.3267 149.547 37.5699L149.629 33.5707C136.718 33.3062 126.091 37.5907 117.949 46.4833L120.899 49.1846ZM149.549 37.5699C159.72 37.7655 167.055 40.8266 171.914 46.4726L174.946 43.8633C169.141 37.1187 160.581 33.7813 149.626 33.5707L149.549 37.5699ZM171.925 46.4859C176.871 52.1316 179.557 60.7002 179.656 72.5305L183.656 72.4969C183.552 60.1553 180.754 50.4934 174.934 43.8501L171.925 46.4859ZM181.663 70.5137L160.411 70.4375L160.397 74.4375L181.649 74.5137L181.663 70.5137ZM162.403 72.3626L162.174 66.2688L158.177 66.4187L158.406 72.5124L162.403 72.3626ZM162.169 66.1777C161.816 61.9453 160.579 58.4448 158.217 55.9587C155.826 53.4426 152.527 52.2219 148.593 52.0814L148.45 56.0788C151.625 56.1922 153.824 57.1423 155.317 58.7142C156.839 60.3159 157.875 62.8203 158.183 66.5098L162.169 66.1777ZM148.599 52.0816C142.832 51.8587 137.921 53.6689 134.041 57.5625C130.225 61.3931 127.55 67.0944 125.854 74.4243L129.751 75.3257C131.357 68.3861 133.785 63.4868 136.875 60.3857C139.902 57.3477 143.7 55.8952 148.444 56.0786L148.599 52.0816ZM125.842 74.4828L124.699 80.1957L128.621 80.9801L129.764 75.2672L125.842 74.4828ZM124.68 80.306L121.633 101.71L125.593 102.274L128.64 80.8697L124.68 80.306ZM121.631 101.724C120.961 106.672 120.694 110.962 120.854 114.573L124.85 114.396C124.704 111.1 124.945 107.063 125.595 102.261L121.631 101.724ZM120.854 114.574C121.116 120.444 122.432 125.131 125.16 128.224L128.16 125.577C126.318 123.49 125.095 119.899 124.85 114.395L120.854 114.574ZM125.188 128.255C127.971 131.279 131.81 132.749 136.438 132.861L136.535 128.862C132.733 128.77 130.022 127.6 128.132 125.546L125.188 128.255ZM136.435 132.861C140.867 132.974 145.641 131.524 150.707 128.727L148.774 125.226C144.09 127.811 140.028 128.951 136.538 128.862L136.435 132.861ZM151.705 127.35L155.59 106.936L151.66 106.189L147.775 126.603L151.705 127.35ZM153.625 104.562H138.314V108.562H153.625V104.562ZM140.284 106.909L143.255 89.9984L139.315 89.3063L136.345 106.216L140.284 106.909ZM141.285 91.6523H178.305V87.6523H141.285V91.6523ZM176.328 89.3497L169.32 135.129L173.274 135.734L180.282 89.955L176.328 89.3497Z" fill="white" mask="url(#path-4-outside-1_3512_20402)"/>
<defs>
<linearGradient id="paint0_linear_3512_20402" x1="13.2827" y1="92.0836" x2="85.8315" y2="102.344" gradientUnits="userSpaceOnUse">
<stop stop-opacity="0"/>
<stop offset="1"/>
</linearGradient>
</defs>
</svg>
