<svg width="214" height="186" viewBox="0 0 214 186" fill="none" xmlns="http://www.w3.org/2000/svg">
<path d="M26.3062 0H100.306L74.3062 186H0.306152L26.3062 0Z" fill="url(#paint0_linear_3512_20408)"/>
<path d="M100 0H214V186H74L100 0Z" fill="black"/>
<path d="M86.4499 66.6715C91.3625 33.9179 105.8 23 144.2 23H153.8C192.2 23 203.362 33.9179 198.45 66.6715L191.081 115.802C186.168 148.556 171.731 159.473 133.331 159.473H123.731C85.3308 159.473 74.1684 148.556 79.081 115.802L86.4499 66.6715Z" fill="#D3D3D3"/>
<mask id="path-4-outside-1_3512_20408" maskUnits="userSpaceOnUse" x="90" y="35" width="101" height="115" fill="black">
<rect fill="white" x="90" y="35" width="101" height="115"/>
<path d="M168.402 148H146.617L154.844 100.545H122.928L114.701 148H92.8398L112.035 37.0938H133.896L126.127 81.959H158.043L165.889 37.0938H187.674L168.402 148Z"/>
</mask>
<path d="M168.402 148H146.617L154.844 100.545H122.928L114.701 148H92.8398L112.035 37.0938H133.896L126.127 81.959H158.043L165.889 37.0938H187.674L168.402 148Z" fill="black"/>
<path d="M168.402 148V150H170.085L170.373 148.342L168.402 148ZM146.617 148L144.647 147.658L144.241 150H146.617V148ZM154.844 100.545L156.814 100.887L157.22 98.5449H154.844V100.545ZM122.928 100.545V98.5449H121.245L120.957 100.203L122.928 100.545ZM114.701 148V150H116.384L116.672 148.342L114.701 148ZM92.8398 148L90.8691 147.659L90.464 150H92.8398V148ZM112.035 37.0938V35.0938H110.352L110.064 36.7527L112.035 37.0938ZM133.896 37.0938L135.867 37.435L136.273 35.0938H133.896V37.0938ZM126.127 81.959L124.156 81.6177L123.751 83.959H126.127V81.959ZM158.043 81.959V83.959H159.724L160.013 82.3035L158.043 81.959ZM165.889 37.0938V35.0938H164.208L163.919 36.7492L165.889 37.0938ZM187.674 37.0938L189.644 37.4361L190.051 35.0938H187.674V37.0938ZM168.402 146H146.617V150H168.402V146ZM148.588 148.342L156.814 100.887L152.873 100.203L144.647 147.658L148.588 148.342ZM154.844 98.5449H122.928V102.545H154.844V98.5449ZM120.957 100.203L112.731 147.658L116.672 148.342L124.898 100.887L120.957 100.203ZM114.701 146H92.8398V150H114.701V146ZM94.8105 148.341L114.006 37.4348L110.064 36.7527L90.8691 147.659L94.8105 148.341ZM112.035 39.0938H133.896V35.0938H112.035V39.0938ZM131.926 36.7525L124.156 81.6177L128.098 82.3003L135.867 37.435L131.926 36.7525ZM126.127 83.959H158.043V79.959H126.127V83.959ZM160.013 82.3035L167.859 37.4383L163.919 36.7492L156.073 81.6145L160.013 82.3035ZM165.889 39.0938H187.674V35.0938H165.889V39.0938ZM185.703 36.7514L166.432 147.658L170.373 148.342L189.644 37.4361L185.703 36.7514Z" fill="white" mask="url(#path-4-outside-1_3512_20408)"/>
<defs>
<linearGradient id="paint0_linear_3512_20408" x1="13.2827" y1="92.0836" x2="85.8315" y2="102.344" gradientUnits="userSpaceOnUse">
<stop stop-opacity="0"/>
<stop offset="1"/>
</linearGradient>
</defs>
</svg>
