<svg width="214" height="186" viewBox="0 0 214 186" fill="none" xmlns="http://www.w3.org/2000/svg">
<path d="M26.3062 0H100.306L74.3062 186H0.306152L26.3062 0Z" fill="url(#paint0_linear_3514_18855)"/>
<path d="M100 0H214V186H74L100 0Z" fill="black"/>
<path d="M86.4499 66.6715C91.3625 33.9179 105.8 23 144.2 23H153.8C192.2 23 203.362 33.9179 198.45 66.6715L191.081 115.802C186.168 148.556 171.731 159.473 133.331 159.473H123.731C85.3308 159.473 74.1684 148.556 79.081 115.802L86.4499 66.6715Z" fill="#D3D3D3"/>
<mask id="path-4-outside-1_3514_18855" maskUnits="userSpaceOnUse" x="105.378" y="35.4359" width="68.0576" height="113.728" fill="black">
<rect fill="white" x="105.378" y="35.4359" width="68.0576" height="113.728"/>
<path d="M108.247 147.186L110.224 134.003L122.369 131.743L134.176 53.0243L122.709 50.7644L124.697 37.5064H170.552L168.564 50.7644L156.418 53.0243L144.612 131.743L156.079 134.003L154.102 147.186H108.247Z"/>
</mask>
<path d="M108.247 147.186L110.224 134.003L122.369 131.743L134.176 53.0243L122.709 50.7644L124.697 37.5064H170.552L168.564 50.7644L156.418 53.0243L144.612 131.743L156.079 134.003L154.102 147.186H108.247Z" fill="black"/>
<path d="M108.247 147.186H106.247L105.95 149.164H107.95L108.247 147.186ZM110.224 134.003L110.135 132.061L108.469 132.371L108.224 134.003H110.224ZM122.369 131.743L122.458 133.685L124.125 133.375L124.369 131.743H122.369ZM134.176 53.0243H136.176L136.421 51.3925L134.847 51.0824L134.176 53.0243ZM122.709 50.7644H120.709L120.464 52.3962L122.037 52.7062L122.709 50.7644ZM124.697 37.5064L124.994 35.5286H122.994L122.697 37.5064H124.697ZM170.552 37.5064H172.552L172.849 35.5286H170.849L170.552 37.5064ZM168.564 50.7644L168.653 52.7062L170.319 52.3962L170.564 50.7644H168.564ZM156.418 53.0243L156.33 51.0824L154.663 51.3925L154.418 53.0243H156.418ZM144.612 131.743H142.612L142.367 133.375L143.94 133.685L144.612 131.743ZM156.079 134.003H158.079L158.324 132.371L156.751 132.061L156.079 134.003ZM154.102 147.186L153.805 149.164H155.805L156.102 147.186H154.102ZM110.247 147.186L112.224 134.003H108.224L106.247 147.186H110.247ZM110.313 135.945L122.458 133.685L122.281 129.802L110.135 132.061L110.313 135.945ZM124.369 131.743L136.176 53.0243H132.176L120.369 131.743H124.369ZM134.847 51.0824L123.38 48.8226L122.037 52.7062L133.505 54.9661L134.847 51.0824ZM124.709 50.7644L126.697 37.5064H122.697L120.709 50.7644H124.709ZM124.4 39.4843H170.256L170.849 35.5286H124.994L124.4 39.4843ZM168.552 37.5064L166.564 50.7644H170.564L172.552 37.5064H168.552ZM168.475 48.8226L156.33 51.0824L156.507 54.9661L168.653 52.7062L168.475 48.8226ZM154.418 53.0243L142.612 131.743H146.612L158.418 53.0243H154.418ZM143.94 133.685L155.408 135.945L156.751 132.061L145.283 129.802L143.94 133.685ZM154.079 134.003L152.102 147.186H156.102L158.079 134.003H154.079ZM154.399 145.208H108.543L107.95 149.164H153.805L154.399 145.208Z" fill="white" mask="url(#path-4-outside-1_3514_18855)"/>
<defs>
<linearGradient id="paint0_linear_3514_18855" x1="13.2827" y1="92.0836" x2="85.8315" y2="102.344" gradientUnits="userSpaceOnUse">
<stop stop-opacity="0"/>
<stop offset="1"/>
</linearGradient>
</defs>
</svg>
