<svg width="214" height="186" viewBox="0 0 214 186" fill="none" xmlns="http://www.w3.org/2000/svg">
<path d="M26.3062 0H100.306L74.3062 186H0.306152L26.3062 0Z" fill="url(#paint0_linear_3512_20420)"/>
<path d="M100 0H214V186H74L100 0Z" fill="black"/>
<path d="M86.4499 66.6715C91.3625 33.9179 105.8 23 144.2 23H153.8C192.2 23 203.362 33.9179 198.45 66.6715L191.081 115.802C186.168 148.556 171.731 159.473 133.331 159.473H123.731C85.3308 159.473 74.1684 148.556 79.081 115.802L86.4499 66.6715Z" fill="#D3D3D3"/>
<mask id="path-4-outside-1_3512_20420" maskUnits="userSpaceOnUse" x="101" y="35" width="82" height="117" fill="black">
<rect fill="white" x="101" y="35" width="82" height="117"/>
<path d="M157.781 37.0938H179.643L166.541 113.875C165.068 124.641 161.057 133.35 154.506 140.002C147.955 146.604 139.932 149.803 130.436 149.6C121.244 149.396 114.287 146.223 109.564 140.078C104.842 133.883 102.76 125.58 103.318 115.17L125.408 115.246L125.256 120.045C125.154 123.346 125.713 125.986 126.932 127.967C128.15 129.947 130.004 130.963 132.492 131.014C138.484 131.166 142.445 126.24 144.375 116.236L157.781 37.0938Z"/>
</mask>
<path d="M157.781 37.0938H179.643L166.541 113.875C165.068 124.641 161.057 133.35 154.506 140.002C147.955 146.604 139.932 149.803 130.436 149.6C121.244 149.396 114.287 146.223 109.564 140.078C104.842 133.883 102.76 125.58 103.318 115.17L125.408 115.246L125.256 120.045C125.154 123.346 125.713 125.986 126.932 127.967C128.15 129.947 130.004 130.963 132.492 131.014C138.484 131.166 142.445 126.24 144.375 116.236L157.781 37.0938Z" fill="black"/>
<path d="M157.781 37.0938V35.0938H156.092L155.809 36.7597L157.781 37.0938ZM179.643 37.0938L181.614 37.4302L182.013 35.0938H179.643V37.0938ZM166.541 113.875L164.57 113.539L164.564 113.571L164.559 113.604L166.541 113.875ZM154.506 140.002L155.926 141.411L155.931 141.405L154.506 140.002ZM130.436 149.6L130.391 151.599L130.393 151.599L130.436 149.6ZM109.564 140.078L107.974 141.291L107.979 141.297L109.564 140.078ZM103.318 115.17L103.325 113.17L101.423 113.163L101.321 115.063L103.318 115.17ZM125.408 115.246L127.407 115.31L127.472 113.253L125.415 113.246L125.408 115.246ZM125.256 120.045L123.257 119.981L123.257 119.983L125.256 120.045ZM132.492 131.014L132.543 129.014L132.533 129.014L132.492 131.014ZM144.375 116.236L146.339 116.615L146.343 116.593L146.347 116.57L144.375 116.236ZM157.781 39.0938H179.643V35.0938H157.781V39.0938ZM177.671 36.7573L164.57 113.539L168.513 114.211L181.614 37.4302L177.671 36.7573ZM164.559 113.604C163.135 124.015 159.281 132.302 153.081 138.599L155.931 141.405C162.832 134.397 167.001 125.267 168.523 114.146L164.559 113.604ZM153.086 138.593C146.931 144.797 139.44 147.792 130.478 147.6L130.393 151.599C140.424 151.814 148.98 148.41 155.926 141.411L153.086 138.593ZM130.48 147.6C121.768 147.408 115.433 144.432 111.15 138.859L107.979 141.297C113.141 148.013 120.72 151.385 130.391 151.599L130.48 147.6ZM111.155 138.866C106.805 133.159 104.774 125.375 105.315 115.277L101.321 115.063C100.746 125.785 102.878 134.606 107.974 141.291L111.155 138.866ZM103.311 117.17L125.401 117.246L125.415 113.246L103.325 113.17L103.311 117.17ZM123.409 115.183L123.257 119.981L127.255 120.108L127.407 115.31L123.409 115.183ZM123.257 119.983C123.148 123.518 123.735 126.589 125.228 129.015L128.635 126.919C127.69 125.384 127.161 123.173 127.255 120.106L123.257 119.983ZM125.228 129.015C126.832 131.622 129.34 132.95 132.451 133.013L132.533 129.014C130.667 128.976 129.468 128.273 128.635 126.919L125.228 129.015ZM132.441 133.013C136.099 133.106 139.169 131.605 141.516 128.687C143.789 125.86 145.346 121.762 146.339 116.615L142.411 115.858C141.474 120.714 140.086 124.081 138.398 126.18C136.784 128.188 134.877 129.074 132.543 129.014L132.441 133.013ZM146.347 116.57L159.753 37.4278L155.809 36.7597L142.403 115.902L146.347 116.57Z" fill="white" mask="url(#path-4-outside-1_3512_20420)"/>
<defs>
<linearGradient id="paint0_linear_3512_20420" x1="13.2827" y1="92.0836" x2="85.8315" y2="102.344" gradientUnits="userSpaceOnUse">
<stop stop-opacity="0"/>
<stop offset="1"/>
</linearGradient>
</defs>
</svg>
