<svg width="214" height="186" viewBox="0 0 214 186" fill="none" xmlns="http://www.w3.org/2000/svg">
<path d="M26.3062 0H100.306L74.3062 186H0.306152L26.3062 0Z" fill="url(#paint0_linear_3512_20426)"/>
<path d="M100 0H214V186H74L100 0Z" fill="black"/>
<path d="M86.4499 66.6715C91.3625 33.9179 105.8 23 144.2 23H153.8C192.2 23 203.362 33.9179 198.45 66.6715L191.081 115.802C186.168 148.556 171.731 159.473 133.331 159.473H123.731C85.3308 159.473 74.1684 148.556 79.081 115.802L86.4499 66.6715Z" fill="#D3D3D3"/>
<mask id="path-4-outside-1_3512_20426" maskUnits="userSpaceOnUse" x="95" y="35" width="103" height="115" fill="black">
<rect fill="white" x="95" y="35" width="103" height="115"/>
<path d="M136.225 105.496L125.104 117.227L119.771 148H97.9102L117.105 37.0938H138.967L130.74 84.2441L139.576 72.5137L165.17 37.0938H193.125L152.982 86.834L173.244 148H148.336L136.225 105.496Z"/>
</mask>
<path d="M136.225 105.496L125.104 117.227L119.771 148H97.9102L117.105 37.0938H138.967L130.74 84.2441L139.576 72.5137L165.17 37.0938H193.125L152.982 86.834L173.244 148H148.336L136.225 105.496Z" fill="black"/>
<path d="M136.225 105.496L138.148 104.948L137.187 101.574L134.773 104.12L136.225 105.496ZM125.104 117.227L123.652 115.851L123.236 116.289L123.133 116.885L125.104 117.227ZM119.771 148V150H121.455L121.742 148.341L119.771 148ZM97.9102 148L95.9395 147.659L95.5343 150H97.9102V148ZM117.105 37.0938V35.0938H115.422L115.135 36.7527L117.105 37.0938ZM138.967 37.0938L140.937 37.4375L141.346 35.0938H138.967V37.0938ZM130.74 84.2441L128.77 83.9004L132.338 85.4475L130.74 84.2441ZM139.576 72.5137L141.174 73.717L141.186 73.7011L141.197 73.685L139.576 72.5137ZM165.17 37.0938V35.0938H164.148L163.549 35.9224L165.17 37.0938ZM193.125 37.0938L194.681 38.3498L197.309 35.0938H193.125V37.0938ZM152.982 86.834L151.426 85.5779L150.741 86.4271L151.084 87.4629L152.982 86.834ZM173.244 148V150H176.014L175.143 147.371L173.244 148ZM148.336 148L146.412 148.548L146.826 150H148.336V148ZM134.773 104.12L123.652 115.851L126.555 118.603L137.676 106.872L134.773 104.12ZM123.133 116.885L117.801 147.659L121.742 148.341L127.074 117.568L123.133 116.885ZM119.771 146H97.9102V150H119.771V146ZM99.8809 148.341L119.076 37.4348L115.135 36.7527L95.9395 147.659L99.8809 148.341ZM117.105 39.0938H138.967V35.0938H117.105V39.0938ZM136.997 36.75L128.77 83.9004L132.71 84.5879L140.937 37.4375L136.997 36.75ZM132.338 85.4475L141.174 73.717L137.979 71.3104L129.143 83.0408L132.338 85.4475ZM141.197 73.685L166.791 38.2651L163.549 35.9224L137.955 71.3423L141.197 73.685ZM165.17 39.0938H193.125V35.0938H165.17V39.0938ZM191.569 35.8377L151.426 85.5779L154.539 88.09L194.681 38.3498L191.569 35.8377ZM151.084 87.4629L171.346 148.629L175.143 147.371L154.881 86.2051L151.084 87.4629ZM173.244 146H148.336V150H173.244V146ZM150.259 147.452L138.148 104.948L134.301 106.044L146.412 148.548L150.259 147.452Z" fill="white" mask="url(#path-4-outside-1_3512_20426)"/>
<defs>
<linearGradient id="paint0_linear_3512_20426" x1="13.2827" y1="92.0836" x2="85.8315" y2="102.344" gradientUnits="userSpaceOnUse">
<stop stop-opacity="0"/>
<stop offset="1"/>
</linearGradient>
</defs>
</svg>
