<svg width="214" height="186" viewBox="0 0 214 186" fill="none" xmlns="http://www.w3.org/2000/svg">
<path d="M26.3062 0H100.306L74.3062 186H0.306152L26.3062 0Z" fill="url(#paint0_linear_3512_20432)"/>
<path d="M100 0H214V186H74L100 0Z" fill="black"/>
<path d="M86.4499 66.6715C91.3625 33.9179 105.8 23 144.2 23H153.8C192.2 23 203.362 33.9179 198.45 66.6715L191.081 115.802C186.168 148.556 171.731 159.473 133.331 159.473H123.731C85.3308 159.473 74.1684 148.556 79.081 115.802L86.4499 66.6715Z" fill="#D3D3D3"/>
<mask id="path-4-outside-1_3512_20432" maskUnits="userSpaceOnUse" x="100" y="35" width="69" height="115" fill="black">
<rect fill="white" x="100" y="35" width="69" height="115"/>
<path d="M128.107 129.414H166.27L162.994 148H103.047L122.242 37.0938H144.104L128.107 129.414Z"/>
</mask>
<path d="M128.107 129.414H166.27L162.994 148H103.047L122.242 37.0938H144.104L128.107 129.414Z" fill="black"/>
<path d="M128.107 129.414L126.137 129.073L125.731 131.414H128.107V129.414ZM166.27 129.414L168.239 129.761L168.653 127.414H166.27V129.414ZM162.994 148V150H164.673L164.964 148.347L162.994 148ZM103.047 148L101.076 147.659L100.671 150H103.047V148ZM122.242 37.0938V35.0938H120.559L120.271 36.7527L122.242 37.0938ZM144.104 37.0938L146.074 37.4352L146.48 35.0938H144.104V37.0938ZM128.107 131.414H166.27V127.414H128.107V131.414ZM164.3 129.067L161.024 147.653L164.964 148.347L168.239 129.761L164.3 129.067ZM162.994 146H103.047V150H162.994V146ZM105.018 148.341L124.213 37.4348L120.271 36.7527L101.076 147.659L105.018 148.341ZM122.242 39.0938H144.104V35.0938H122.242V39.0938ZM142.133 36.7523L126.137 129.073L130.078 129.756L146.074 37.4352L142.133 36.7523Z" fill="white" mask="url(#path-4-outside-1_3512_20432)"/>
<defs>
<linearGradient id="paint0_linear_3512_20432" x1="13.2827" y1="92.0836" x2="85.8315" y2="102.344" gradientUnits="userSpaceOnUse">
<stop stop-opacity="0"/>
<stop offset="1"/>
</linearGradient>
</defs>
</svg>
