<svg width="214" height="186" viewBox="0 0 214 186" fill="none" xmlns="http://www.w3.org/2000/svg">
<path d="M26.3062 0H100.306L74.3062 186H0.306152L26.3062 0Z" fill="url(#paint0_linear_3512_20510)"/>
<path d="M100 0H214V186H74L100 0Z" fill="black"/>
<path d="M86.4499 66.6715C91.3625 33.9179 105.8 23 144.2 23H153.8C192.2 23 203.362 33.9179 198.45 66.6715L191.081 115.802C186.168 148.556 171.731 159.473 133.331 159.473H123.731C85.3308 159.473 74.1684 148.556 79.081 115.802L86.4499 66.6715Z" fill="#D3D3D3"/>
<mask id="path-4-outside-1_3512_20510" maskUnits="userSpaceOnUse" x="79" y="35" width="123" height="115" fill="black">
<rect fill="white" x="79" y="35" width="123" height="115"/>
<path d="M129.326 37.0938L135.801 116.846L169.85 37.0938H198.643L179.371 148H157.434L162.766 117.303L172.363 73.5039L138.391 148H123.537L115.158 70.9902L108.836 118.75L103.809 148H81.9473L101.143 37.0938H129.326Z"/>
</mask>
<path d="M129.326 37.0938L135.801 116.846L169.85 37.0938H198.643L179.371 148H157.434L162.766 117.303L172.363 73.5039L138.391 148H123.537L115.158 70.9902L108.836 118.75L103.809 148H81.9473L101.143 37.0938H129.326Z" fill="black"/>
<path d="M129.326 37.0938L131.32 36.9319L131.17 35.0938H129.326V37.0938ZM135.801 116.846L133.807 117.008L137.64 117.631L135.801 116.846ZM169.85 37.0938V35.0938H168.529L168.01 36.3085L169.85 37.0938ZM198.643 37.0938L200.613 37.4361L201.02 35.0938H198.643V37.0938ZM179.371 148V150H181.054L181.342 148.342L179.371 148ZM157.434 148L155.463 147.658L155.056 150H157.434V148ZM162.766 117.303L160.812 116.875L160.803 116.917L160.795 116.96L162.766 117.303ZM172.363 73.5039L174.317 73.932L170.544 72.6741L172.363 73.5039ZM138.391 148V150H139.677L140.21 148.83L138.391 148ZM123.537 148L121.549 148.216L121.743 150H123.537V148ZM115.158 70.9902L117.146 70.7739L113.175 70.7278L115.158 70.9902ZM108.836 118.75L110.807 119.089L110.814 119.051L110.819 119.012L108.836 118.75ZM103.809 148V150H105.494L105.78 148.339L103.809 148ZM81.9473 148L79.9766 147.659L79.5714 150H81.9473V148ZM101.143 37.0938V35.0938H99.459L99.1719 36.7527L101.143 37.0938ZM127.333 37.2556L133.807 117.008L137.794 116.684L131.32 36.9319L127.333 37.2556ZM137.64 117.631L171.689 37.879L168.01 36.3085L133.961 116.06L137.64 117.631ZM169.85 39.0938H198.643V35.0938H169.85V39.0938ZM196.672 36.7514L177.401 147.658L181.342 148.342L200.613 37.4361L196.672 36.7514ZM179.371 146H157.434V150H179.371V146ZM159.404 148.342L164.736 117.645L160.795 116.96L155.463 147.658L159.404 148.342ZM164.719 117.731L174.317 73.932L170.41 73.0758L160.812 116.875L164.719 117.731ZM170.544 72.6741L136.571 147.17L140.21 148.83L174.183 74.3338L170.544 72.6741ZM138.391 146H123.537V150H138.391V146ZM125.525 147.784L117.146 70.7739L113.17 71.2066L121.549 148.216L125.525 147.784ZM113.175 70.7278L106.853 118.488L110.819 119.012L117.141 71.2527L113.175 70.7278ZM106.865 118.411L101.837 147.661L105.78 148.339L110.807 119.089L106.865 118.411ZM103.809 146H81.9473V150H103.809V146ZM83.918 148.341L103.113 37.4348L99.1719 36.7527L79.9766 147.659L83.918 148.341ZM101.143 39.0938H129.326V35.0938H101.143V39.0938Z" fill="white" mask="url(#path-4-outside-1_3512_20510)"/>
<defs>
<linearGradient id="paint0_linear_3512_20510" x1="13.2827" y1="92.0836" x2="85.8315" y2="102.344" gradientUnits="userSpaceOnUse">
<stop stop-opacity="0"/>
<stop offset="1"/>
</linearGradient>
</defs>
</svg>
