<svg width="214" height="186" viewBox="0 0 214 186" fill="none" xmlns="http://www.w3.org/2000/svg">
<path d="M26.3062 0H100.306L74.3062 186H0.306152L26.3062 0Z" fill="url(#paint0_linear_3512_20516)"/>
<path d="M100 0H214V186H74L100 0Z" fill="black"/>
<path d="M86.4499 66.6715C91.3625 33.9179 105.8 23 144.2 23H153.8C192.2 23 203.362 33.9179 198.45 66.6715L191.081 115.802C186.168 148.556 171.731 159.473 133.331 159.473H123.731C85.3308 159.473 74.1684 148.556 79.081 115.802L86.4499 66.6715Z" fill="#D3D3D3"/>
<mask id="path-4-outside-1_3512_20516" maskUnits="userSpaceOnUse" x="90" y="35" width="100" height="115" fill="black">
<rect fill="white" x="90" y="35" width="100" height="115"/>
<path d="M168.326 148H146.998L127.65 74.4941L114.854 148H92.9922L112.188 37.0938H133.592L153.016 110.676L165.812 37.0938H187.598L168.326 148Z"/>
</mask>
<path d="M168.326 148H146.998L127.65 74.4941L114.854 148H92.9922L112.188 37.0938H133.592L153.016 110.676L165.812 37.0938H187.598L168.326 148Z" fill="black"/>
<path d="M168.326 148V150H170.009L170.297 148.342L168.326 148ZM146.998 148L145.064 148.509L145.456 150H146.998V148ZM127.65 74.4941L129.585 73.9851L125.68 74.1511L127.65 74.4941ZM114.854 148V150H116.535L116.824 148.343L114.854 148ZM92.9922 148L91.0215 147.659L90.6163 150H92.9922V148ZM112.188 37.0938V35.0938H110.504L110.217 36.7527L112.188 37.0938ZM133.592 37.0938L135.526 36.5833L135.132 35.0938H133.592V37.0938ZM153.016 110.676L151.082 111.186L154.986 111.018L153.016 110.676ZM165.812 37.0938V35.0938H164.13L163.842 36.7511L165.812 37.0938ZM187.598 37.0938L189.568 37.4361L189.975 35.0938H187.598V37.0938ZM168.326 146H146.998V150H168.326V146ZM148.932 147.491L129.585 73.9851L125.716 75.0032L145.064 148.509L148.932 147.491ZM125.68 74.1511L112.883 147.657L116.824 148.343L129.621 74.8372L125.68 74.1511ZM114.854 146H92.9922V150H114.854V146ZM94.9629 148.341L114.158 37.4348L110.217 36.7527L91.0215 147.659L94.9629 148.341ZM112.188 39.0938H133.592V35.0938H112.188V39.0938ZM131.658 37.6042L151.082 111.186L154.949 110.165L135.526 36.5833L131.658 37.6042ZM154.986 111.018L167.783 37.4364L163.842 36.7511L151.045 110.333L154.986 111.018ZM165.812 39.0938H187.598V35.0938H165.812V39.0938ZM185.627 36.7514L166.356 147.658L170.297 148.342L189.568 37.4361L185.627 36.7514Z" fill="white" mask="url(#path-4-outside-1_3512_20516)"/>
<defs>
<linearGradient id="paint0_linear_3512_20516" x1="13.2827" y1="92.0836" x2="85.8315" y2="102.344" gradientUnits="userSpaceOnUse">
<stop stop-opacity="0"/>
<stop offset="1"/>
</linearGradient>
</defs>
</svg>
