<svg width="214" height="186" viewBox="0 0 214 186" fill="none" xmlns="http://www.w3.org/2000/svg">
<path d="M26.3062 0H100.306L74.3062 186H0.306152L26.3062 0Z" fill="url(#paint0_linear_3512_20522)"/>
<path d="M100 0H214V186H74L100 0Z" fill="black"/>
<path d="M86.4499 66.6715C91.3625 33.9179 105.8 23 144.2 23H153.8C192.2 23 203.362 33.9179 198.45 66.6715L191.081 115.802C186.168 148.556 171.731 159.473 133.331 159.473H123.731C85.3308 159.473 74.1684 148.556 79.081 115.802L86.4499 66.6715Z" fill="#D3D3D3"/>
<mask id="path-4-outside-1_3512_20522" maskUnits="userSpaceOnUse" x="97" y="33" width="87" height="119" fill="black">
<rect fill="white" x="97" y="33" width="87" height="119"/>
<path d="M132.416 149.523C122.666 149.32 114.922 146.121 109.184 139.926C103.496 133.73 100.398 125.123 99.8906 114.104C99.6875 110.295 99.8398 106.436 100.348 102.525L103.166 84.0918C104.639 74.2402 107.508 65.5059 111.773 57.8887C116.039 50.2715 121.346 44.6094 127.693 40.9023C134.041 37.1953 141.201 35.418 149.174 35.5703C159.025 35.7734 166.744 39.1504 172.33 45.7012C177.967 52.2012 180.988 61.1133 181.395 72.4375C181.496 76.7031 181.268 80.7402 180.709 84.5488L178.195 101.535C175.91 116.77 170.756 128.652 162.732 137.184C154.76 145.664 144.654 149.777 132.416 149.523ZM158.848 83.7871C159.457 78.5566 159.762 74.5195 159.762 71.6758C159.508 60.3516 155.42 54.5371 147.498 54.2324C141.404 53.9785 136.479 56.2891 132.721 61.1641C129.014 65.9883 126.424 73.5801 124.951 83.9395L122.285 102.602C121.676 107.629 121.447 111.564 121.6 114.408C121.854 125.072 126.043 130.582 134.168 130.938C139.957 131.141 144.705 129.008 148.412 124.539C152.119 120.07 154.709 112.758 156.182 102.602L158.848 83.7871Z"/>
</mask>
<path d="M132.416 149.523C122.666 149.32 114.922 146.121 109.184 139.926C103.496 133.73 100.398 125.123 99.8906 114.104C99.6875 110.295 99.8398 106.436 100.348 102.525L103.166 84.0918C104.639 74.2402 107.508 65.5059 111.773 57.8887C116.039 50.2715 121.346 44.6094 127.693 40.9023C134.041 37.1953 141.201 35.418 149.174 35.5703C159.025 35.7734 166.744 39.1504 172.33 45.7012C177.967 52.2012 180.988 61.1133 181.395 72.4375C181.496 76.7031 181.268 80.7402 180.709 84.5488L178.195 101.535C175.91 116.77 170.756 128.652 162.732 137.184C154.76 145.664 144.654 149.777 132.416 149.523ZM158.848 83.7871C159.457 78.5566 159.762 74.5195 159.762 71.6758C159.508 60.3516 155.42 54.5371 147.498 54.2324C141.404 53.9785 136.479 56.2891 132.721 61.1641C129.014 65.9883 126.424 73.5801 124.951 83.9395L122.285 102.602C121.676 107.629 121.447 111.564 121.6 114.408C121.854 125.072 126.043 130.582 134.168 130.938C139.957 131.141 144.705 129.008 148.412 124.539C152.119 120.07 154.709 112.758 156.182 102.602L158.848 83.7871Z" fill="black"/>
<path d="M132.416 149.523L132.374 151.523H132.375L132.416 149.523ZM109.184 139.926L107.71 141.278L107.716 141.285L109.184 139.926ZM99.8906 114.104L101.889 114.011L101.888 114.004L101.888 113.997L99.8906 114.104ZM100.348 102.525L98.3706 102.223L98.3672 102.245L98.3643 102.268L100.348 102.525ZM103.166 84.0918L105.143 84.3941L105.144 84.3875L103.166 84.0918ZM149.174 35.5703L149.215 33.5707L149.212 33.5707L149.174 35.5703ZM172.33 45.7012L170.808 46.9989L170.814 47.0052L170.819 47.0115L172.33 45.7012ZM181.395 72.4375L183.394 72.3899L183.394 72.3778L183.393 72.3658L181.395 72.4375ZM180.709 84.5488L182.687 84.8416L182.688 84.8391L180.709 84.5488ZM178.195 101.535L180.173 101.832L180.174 101.828L178.195 101.535ZM162.732 137.184L161.276 135.813L161.275 135.814L162.732 137.184ZM158.848 83.7871L160.828 84.0677L160.831 84.0432L160.834 84.0186L158.848 83.7871ZM159.762 71.6758H161.762V71.6534L161.761 71.631L159.762 71.6758ZM147.498 54.2324L147.415 56.2307L147.421 56.2309L147.498 54.2324ZM132.721 61.1641L131.137 59.943L131.135 59.9454L132.721 61.1641ZM124.951 83.9395L126.931 84.2223L126.931 84.2209L124.951 83.9395ZM122.285 102.602L120.305 102.319L120.302 102.34L120.3 102.361L122.285 102.602ZM121.6 114.408L123.599 114.361L123.598 114.331L123.597 114.301L121.6 114.408ZM134.168 130.938L134.081 132.936L134.089 132.936L134.098 132.936L134.168 130.938ZM156.182 102.602L158.161 102.889L158.162 102.882L156.182 102.602ZM132.458 147.524C123.159 147.33 115.963 144.302 110.651 138.567L107.716 141.285C113.881 147.941 122.173 151.31 132.374 151.523L132.458 147.524ZM110.657 138.573C105.374 132.819 102.382 124.71 101.889 114.011L97.8927 114.196C98.4153 125.536 101.618 134.642 107.71 141.278L110.657 138.573ZM101.888 113.997C101.691 110.314 101.838 106.577 102.331 102.783L98.3643 102.268C97.8414 106.295 97.6836 110.276 97.8935 114.21L101.888 113.997ZM102.325 102.828L105.143 84.3941L101.189 83.7895L98.3706 102.223L102.325 102.828ZM105.144 84.3875C106.586 74.7419 109.387 66.2443 113.518 58.8659L110.028 56.9115C105.629 64.7674 102.691 73.7385 101.188 83.7961L105.144 84.3875ZM113.518 58.8659C117.643 51.5011 122.716 46.1255 128.702 42.6294L126.685 39.1753C119.976 43.0933 114.435 49.0419 110.028 56.9115L113.518 58.8659ZM128.702 42.6294C134.706 39.1233 141.498 37.424 149.136 37.5699L149.212 33.5707C140.904 33.4119 133.376 35.2673 126.685 39.1753L128.702 42.6294ZM149.133 37.5699C158.504 37.7631 165.648 40.9478 170.808 46.9989L173.852 44.4035C167.84 37.353 159.546 33.7838 149.215 33.5707L149.133 37.5699ZM170.819 47.0115C176.073 53.0704 179.001 61.4958 179.396 72.5092L183.393 72.3658C182.976 60.7308 179.86 51.3319 173.841 44.3909L170.819 47.0115ZM179.395 72.4851C179.494 76.6497 179.271 80.5731 178.73 84.2586L182.688 84.8391C183.264 80.9074 183.498 76.7565 183.394 72.3899L179.395 72.4851ZM178.731 84.2561L176.217 101.242L180.174 101.828L182.687 84.8416L178.731 84.2561ZM176.217 101.238C173.974 116.196 168.944 127.659 161.276 135.813L164.189 138.554C172.567 129.645 177.846 117.343 180.173 101.832L176.217 101.238ZM161.275 135.814C153.713 143.858 144.163 147.767 132.458 147.524L132.375 151.523C145.146 151.788 155.807 147.47 164.19 138.554L161.275 135.814ZM160.834 84.0186C161.446 78.7641 161.762 74.6363 161.762 71.6758H157.762C157.762 74.4028 157.468 78.3492 156.861 83.5557L160.834 84.0186ZM161.761 71.631C161.63 65.7881 160.512 61.0433 158.141 57.6715C155.694 54.1898 152.077 52.4071 147.575 52.2339L147.421 56.2309C150.841 56.3625 153.229 57.6393 154.869 59.9721C156.587 62.4148 157.639 66.2393 157.762 71.7206L161.761 71.631ZM147.581 52.2342C140.831 51.9529 135.287 54.5592 131.137 59.943L134.305 62.3851C137.67 58.0189 141.977 56.0041 147.415 56.2307L147.581 52.2342ZM131.135 59.9454C127.117 65.1745 124.462 73.1719 122.971 83.658L126.931 84.2209C128.386 73.9882 130.911 66.802 134.307 62.3827L131.135 59.9454ZM122.971 83.6566L120.305 102.319L124.265 102.884L126.931 84.2223L122.971 83.6566ZM120.3 102.361C119.685 107.43 119.441 111.499 119.602 114.515L123.597 114.301C123.454 111.63 123.666 107.828 124.271 102.842L120.3 102.361ZM119.6 114.456C119.732 119.995 120.886 124.522 123.34 127.749C125.859 131.062 129.54 132.737 134.081 132.936L134.255 128.939C130.671 128.783 128.195 127.525 126.524 125.328C124.789 123.045 123.721 119.485 123.599 114.361L119.6 114.456ZM134.098 132.936C140.508 133.161 145.85 130.76 149.951 125.816L146.873 123.262C143.56 127.255 139.406 129.12 134.238 128.939L134.098 132.936ZM149.951 125.816C154.012 120.921 156.671 113.166 158.161 102.889L154.202 102.315C152.747 112.349 150.226 119.219 146.873 123.262L149.951 125.816ZM158.162 102.882L160.828 84.0677L156.867 83.5065L154.201 102.321L158.162 102.882Z" fill="white" mask="url(#path-4-outside-1_3512_20522)"/>
<defs>
<linearGradient id="paint0_linear_3512_20522" x1="13.2827" y1="92.0836" x2="85.8315" y2="102.344" gradientUnits="userSpaceOnUse">
<stop stop-opacity="0"/>
<stop offset="1"/>
</linearGradient>
</defs>
</svg>
