<svg width="214" height="186" viewBox="0 0 214 186" fill="none" xmlns="http://www.w3.org/2000/svg">
<path d="M26.3062 0H100.306L74.3062 186H0.306152L26.3062 0Z" fill="url(#paint0_linear_3512_20528)"/>
<path d="M100 0H214V186H74L100 0Z" fill="black"/>
<path d="M86.4499 66.6715C91.3625 33.9179 105.8 23 144.2 23H153.8C192.2 23 203.362 33.9179 198.45 66.6715L191.081 115.802C186.168 148.556 171.731 159.473 133.331 159.473H123.731C85.3308 159.473 74.1684 148.556 79.081 115.802L86.4499 66.6715Z" fill="#D3D3D3"/>
<mask id="path-4-outside-1_3512_20528" maskUnits="userSpaceOnUse" x="94" y="35" width="90" height="115" fill="black">
<rect fill="white" x="94" y="35" width="90" height="115"/>
<path d="M125.408 109L118.629 148H96.7676L115.963 37.0938L151.535 37.1699C161.234 37.4746 168.826 40.9531 174.311 47.6055C179.846 54.207 182.182 62.7383 181.318 73.1992C180.303 84.0664 176.189 92.7754 168.979 99.3262C161.768 105.826 152.576 109.076 141.404 109.076L125.408 109ZM128.607 90.3379L142.699 90.4902C148.133 90.3887 152.348 88.3066 155.344 84.2441C158.34 80.1309 159.762 74.6211 159.609 67.7148C159.508 64.2109 158.67 61.418 157.096 59.3359C155.521 57.2539 153.338 56.1113 150.545 55.9082L134.625 55.7559L128.607 90.3379Z"/>
</mask>
<path d="M125.408 109L118.629 148H96.7676L115.963 37.0938L151.535 37.1699C161.234 37.4746 168.826 40.9531 174.311 47.6055C179.846 54.207 182.182 62.7383 181.318 73.1992C180.303 84.0664 176.189 92.7754 168.979 99.3262C161.768 105.826 152.576 109.076 141.404 109.076L125.408 109ZM128.607 90.3379L142.699 90.4902C148.133 90.3887 152.348 88.3066 155.344 84.2441C158.34 80.1309 159.762 74.6211 159.609 67.7148C159.508 64.2109 158.67 61.418 157.096 59.3359C155.521 57.2539 153.338 56.1113 150.545 55.9082L134.625 55.7559L128.607 90.3379Z" fill="black"/>
<path d="M125.408 109L125.418 107L123.727 106.992L123.438 108.657L125.408 109ZM118.629 148V150H120.311L120.599 148.343L118.629 148ZM96.7676 148L94.7969 147.659L94.3917 150H96.7676V148ZM115.963 37.0938L115.967 35.0938L114.28 35.0901L113.992 36.7527L115.963 37.0938ZM151.535 37.1699L151.598 35.1709L151.569 35.17L151.539 35.1699L151.535 37.1699ZM174.311 47.6055L172.767 48.8777L172.773 48.8841L172.778 48.8905L174.311 47.6055ZM181.318 73.1992L183.31 73.3853L183.311 73.3745L183.312 73.3637L181.318 73.1992ZM168.979 99.3262L170.318 100.812L170.323 100.807L168.979 99.3262ZM141.404 109.076L141.395 111.076H141.404V109.076ZM128.607 90.3379L126.637 89.995L126.234 92.3123L128.586 92.3378L128.607 90.3379ZM142.699 90.4902L142.678 92.4901L142.707 92.4904L142.737 92.4899L142.699 90.4902ZM155.344 84.2441L156.953 85.4312L156.96 85.4217L155.344 84.2441ZM159.609 67.7148L161.609 67.6707L161.609 67.6569L159.609 67.7148ZM150.545 55.9082L150.69 53.9135L150.627 53.9089L150.564 53.9083L150.545 55.9082ZM134.625 55.7559L134.644 53.756L132.946 53.7397L132.655 55.413L134.625 55.7559ZM123.438 108.657L116.658 147.657L120.599 148.343L127.379 109.343L123.438 108.657ZM118.629 146H96.7676V150H118.629V146ZM98.7383 148.341L117.934 37.4348L113.992 36.7527L94.7969 147.659L98.7383 148.341ZM115.959 39.0937L151.531 39.1699L151.539 35.1699L115.967 35.0938L115.959 39.0937ZM151.472 39.1689C160.677 39.4581 167.697 42.7278 172.767 48.8777L175.854 46.3332C169.955 39.1784 161.792 35.4911 151.598 35.1709L151.472 39.1689ZM172.778 48.8905C177.903 55.0034 180.155 62.9768 179.325 73.0347L183.312 73.3637C184.208 62.4997 181.788 53.4106 175.843 46.3205L172.778 48.8905ZM179.327 73.0131C178.352 83.4478 174.43 91.6718 167.634 97.8458L170.323 100.807C177.949 93.879 182.254 84.685 183.31 73.3853L179.327 73.0131ZM167.639 97.8406C160.851 103.96 152.161 107.076 141.404 107.076V111.076C152.991 111.076 162.684 107.693 170.318 100.812L167.639 97.8406ZM141.414 107.076L125.418 107L125.399 111L141.395 111.076L141.414 107.076ZM128.586 92.3378L142.678 92.4901L142.721 88.4903L128.629 88.338L128.586 92.3378ZM142.737 92.4899C148.737 92.3777 153.557 90.0371 156.953 85.4312L153.734 83.0571C151.139 86.5762 147.529 88.3996 142.662 88.4906L142.737 92.4899ZM156.96 85.4217C160.293 80.8465 161.767 74.8603 161.609 67.6707L157.61 67.7589C157.756 74.3819 156.387 79.4152 153.727 83.0666L156.96 85.4217ZM161.609 67.6569C161.499 63.8778 160.589 60.6399 158.691 58.1297L155.5 60.5422C156.751 62.196 157.517 64.544 157.61 67.7728L161.609 67.6569ZM158.691 58.1297C156.742 55.5518 154.01 54.1549 150.69 53.9135L150.4 57.9029C152.666 58.0677 154.301 58.956 155.5 60.5422L158.691 58.1297ZM150.564 53.9083L134.644 53.756L134.606 57.7558L150.526 57.9081L150.564 53.9083ZM132.655 55.413L126.637 89.995L130.578 90.6808L136.595 56.0987L132.655 55.413Z" fill="white" mask="url(#path-4-outside-1_3512_20528)"/>
<defs>
<linearGradient id="paint0_linear_3512_20528" x1="13.2827" y1="92.0836" x2="85.8315" y2="102.344" gradientUnits="userSpaceOnUse">
<stop stop-opacity="0"/>
<stop offset="1"/>
</linearGradient>
</defs>
</svg>
