<svg width="214" height="186" viewBox="0 0 214 186" fill="none" xmlns="http://www.w3.org/2000/svg">
<path d="M26.3062 0H100.306L74.3062 186H0.306152L26.3062 0Z" fill="url(#paint0_linear_3512_20534)"/>
<path d="M100 0H214V186H74L100 0Z" fill="black"/>
<path d="M86.4499 66.6715C91.3625 33.9179 105.8 23 144.2 23H153.8C192.2 23 203.362 33.9179 198.45 66.6715L191.081 115.802C186.168 148.556 171.731 159.473 133.331 159.473H123.731C85.3308 159.473 74.1684 148.556 79.081 115.802L86.4499 66.6715Z" fill="#D3D3D3"/>
<mask id="path-4-outside-1_3512_20534" maskUnits="userSpaceOnUse" x="97" y="33" width="87" height="138" fill="black">
<rect fill="white" x="97" y="33" width="87" height="138"/>
<path d="M156.562 141.449L168.979 155.693L153.973 167.805L137.596 149.219C135.463 149.473 133.609 149.549 132.035 149.447C125.688 149.396 120.102 147.898 115.277 144.953C110.453 141.957 106.721 137.615 104.08 131.928C101.49 126.24 100.094 119.842 99.8906 112.732C99.7383 108.467 99.9414 104.455 100.5 100.697L102.938 84.4727C105.273 69.1367 110.428 57.1016 118.4 48.3672C126.424 39.582 136.631 35.3164 149.021 35.5703C158.924 35.7734 166.668 39.1504 172.254 45.7012C177.891 52.2012 180.912 61.1133 181.318 72.4375C181.42 76.3477 181.217 80.2324 180.709 84.0918L178.043 101.688C175.148 120.223 167.988 133.477 156.562 141.449ZM158.848 83.7871C159.457 78.5566 159.762 74.5195 159.762 71.6758C159.508 60.4023 155.369 54.5879 147.346 54.2324C135.768 53.7754 128.404 62.6875 125.256 80.9688L122.361 101.23C121.752 106.461 121.473 110.498 121.523 113.342C121.523 118.928 122.59 123.219 124.723 126.215C126.855 129.211 129.928 130.785 133.939 130.938C139.576 131.242 144.273 129.16 148.031 124.691C151.789 120.172 154.48 112.834 156.105 102.678L158.848 83.7871Z"/>
</mask>
<path d="M156.562 141.449L168.979 155.693L153.973 167.805L137.596 149.219C135.463 149.473 133.609 149.549 132.035 149.447C125.688 149.396 120.102 147.898 115.277 144.953C110.453 141.957 106.721 137.615 104.08 131.928C101.49 126.24 100.094 119.842 99.8906 112.732C99.7383 108.467 99.9414 104.455 100.5 100.697L102.938 84.4727C105.273 69.1367 110.428 57.1016 118.4 48.3672C126.424 39.582 136.631 35.3164 149.021 35.5703C158.924 35.7734 166.668 39.1504 172.254 45.7012C177.891 52.2012 180.912 61.1133 181.318 72.4375C181.42 76.3477 181.217 80.2324 180.709 84.0918L178.043 101.688C175.148 120.223 167.988 133.477 156.562 141.449ZM158.848 83.7871C159.457 78.5566 159.762 74.5195 159.762 71.6758C159.508 60.4023 155.369 54.5879 147.346 54.2324C135.768 53.7754 128.404 62.6875 125.256 80.9688L122.361 101.23C121.752 106.461 121.473 110.498 121.523 113.342C121.523 118.928 122.59 123.219 124.723 126.215C126.855 129.211 129.928 130.785 133.939 130.938C139.576 131.242 144.273 129.16 148.031 124.691C151.789 120.172 154.48 112.834 156.105 102.678L158.848 83.7871Z" fill="black"/>
<path d="M156.562 141.449L155.418 139.809L153.591 141.084L155.055 142.763L156.562 141.449ZM168.979 155.693L170.235 157.25L171.851 155.945L170.486 154.379L168.979 155.693ZM153.973 167.805L152.472 169.127L153.738 170.564L155.229 169.361L153.973 167.805ZM137.596 149.219L139.096 147.897L138.402 147.109L137.359 147.233L137.596 149.219ZM132.035 149.447L132.164 147.451L132.108 147.448L132.051 147.447L132.035 149.447ZM115.277 144.953L114.222 146.652L114.229 146.656L114.235 146.66L115.277 144.953ZM104.08 131.928L102.26 132.757L102.263 132.763L102.266 132.77L104.08 131.928ZM99.8906 112.732L101.89 112.675L101.89 112.668L101.889 112.661L99.8906 112.732ZM100.5 100.697L98.5222 100.4L98.5217 100.403L100.5 100.697ZM102.938 84.4727L100.96 84.1715L100.96 84.1755L102.938 84.4727ZM118.4 48.3672L116.924 47.0184L116.923 47.0189L118.4 48.3672ZM149.021 35.5703L149.062 33.5707L149.062 33.5707L149.021 35.5703ZM172.254 45.7012L170.732 46.9989L170.737 47.0052L170.743 47.0115L172.254 45.7012ZM181.318 72.4375L183.318 72.3856L183.317 72.3757L183.317 72.3658L181.318 72.4375ZM180.709 84.0918L182.686 84.3914L182.689 84.3721L182.692 84.3527L180.709 84.0918ZM178.043 101.688L180.019 101.996L180.02 101.987L178.043 101.688ZM158.848 83.7871L160.827 84.0744L160.831 84.0465L160.834 84.0186L158.848 83.7871ZM159.762 71.6758H161.762V71.6533L161.761 71.6307L159.762 71.6758ZM147.346 54.2324L147.434 52.2344L147.425 52.234L147.346 54.2324ZM125.256 80.9688L123.285 80.6293L123.28 80.6575L123.276 80.6859L125.256 80.9688ZM122.361 101.23L120.381 100.948L120.378 100.973L120.375 100.999L122.361 101.23ZM121.523 113.342H123.523V113.324L123.523 113.306L121.523 113.342ZM133.939 130.938L134.047 128.94L134.031 128.94L134.015 128.939L133.939 130.938ZM148.031 124.691L149.562 125.979L149.569 125.97L148.031 124.691ZM156.105 102.678L158.08 102.994L158.083 102.979L158.085 102.965L156.105 102.678ZM155.055 142.763L167.471 157.008L170.486 154.379L158.07 140.135L155.055 142.763ZM167.722 154.137L152.717 166.248L155.229 169.361L170.235 157.25L167.722 154.137ZM155.473 166.482L139.096 147.897L136.095 150.541L152.472 169.127L155.473 166.482ZM137.359 147.233C135.307 147.477 133.582 147.543 132.164 147.451L131.906 151.443C133.637 151.555 135.618 151.468 137.832 151.205L137.359 147.233ZM132.051 147.447C126.02 147.399 120.798 145.98 116.32 143.246L114.235 146.66C119.405 149.817 125.355 151.394 132.019 151.447L132.051 147.447ZM116.333 143.254C111.873 140.485 108.388 136.458 105.894 131.086L102.266 132.77C105.053 138.773 109.033 143.429 114.222 146.652L116.333 143.254ZM105.9 131.099C103.435 125.685 102.086 119.555 101.89 112.675L97.8914 112.79C98.1011 120.129 99.5453 126.795 102.26 132.757L105.9 131.099ZM101.889 112.661C101.741 108.503 101.94 104.614 102.478 100.991L98.5217 100.403C97.9431 104.296 97.7357 108.431 97.8919 112.804L101.889 112.661ZM102.478 100.994L104.915 84.7698L100.96 84.1755L98.5222 100.4L102.478 100.994ZM104.915 84.7738C107.209 69.7086 112.243 58.0795 119.878 49.7155L116.923 47.0189C108.613 56.1236 103.337 68.5649 100.96 84.1715L104.915 84.7738ZM119.877 49.7159C127.494 41.376 137.139 37.3272 148.981 37.5699L149.062 33.5707C136.123 33.3056 125.354 37.7881 116.924 47.0184L119.877 49.7159ZM148.98 37.5699C158.407 37.7632 165.574 40.9502 170.732 46.9989L173.776 44.4035C167.762 37.3505 159.441 33.7836 149.062 33.5707L148.98 37.5699ZM170.743 47.0115C175.997 53.0704 178.925 61.4958 179.32 72.5092L183.317 72.3658C182.9 60.7308 179.784 51.3319 173.765 44.3909L170.743 47.0115ZM179.319 72.4894C179.418 76.2955 179.22 80.0757 178.726 83.8309L182.692 84.3527C183.213 80.3891 183.422 76.3998 183.318 72.3856L179.319 72.4894ZM178.732 83.7922L176.066 101.388L180.02 101.987L182.686 84.3914L178.732 83.7922ZM176.067 101.379C173.226 119.569 166.258 132.245 155.418 139.809L157.707 143.089C169.718 134.708 177.071 120.876 180.019 101.996L176.067 101.379ZM160.834 84.0186C161.446 78.7641 161.762 74.6363 161.762 71.6758H157.762C157.762 74.4028 157.468 78.3492 156.861 83.5557L160.834 84.0186ZM161.761 71.6307C161.63 65.8075 160.497 61.0725 158.097 57.7001C155.622 54.2236 151.973 52.4355 147.434 52.2344L147.257 56.2305C150.741 56.3848 153.174 57.6817 154.838 60.0196C156.576 62.4617 157.639 66.2706 157.762 71.7208L161.761 71.6307ZM147.425 52.234C141.014 51.9809 135.678 54.3613 131.598 59.2999C127.598 64.1406 124.886 71.3322 123.285 80.6293L127.227 81.3082C128.774 72.3241 131.318 65.919 134.681 61.8476C137.964 57.8741 142.1 56.0269 147.267 56.2309L147.425 52.234ZM123.276 80.6859L120.381 100.948L124.341 101.513L127.236 81.2516L123.276 80.6859ZM120.375 100.999C119.762 106.257 119.471 110.399 119.524 113.378L123.523 113.306C123.475 110.597 123.742 106.665 124.348 101.462L120.375 100.999ZM119.523 113.342C119.523 119.141 120.624 123.906 123.093 127.375L126.352 125.055C124.556 122.532 123.523 118.715 123.523 113.342H119.523ZM123.093 127.375C125.622 130.927 129.297 132.763 133.864 132.936L134.015 128.939C130.558 128.808 128.089 127.495 126.352 125.055L123.093 127.375ZM133.832 132.935C140.12 133.275 145.416 130.909 149.562 125.979L146.501 123.404C143.131 127.411 139.032 129.21 134.047 128.94L133.832 132.935ZM149.569 125.97C153.67 121.038 156.436 113.273 158.08 102.994L154.131 102.362C152.525 112.395 149.908 119.306 146.493 123.413L149.569 125.97ZM158.085 102.965L160.827 84.0744L156.868 83.4998L154.126 102.39L158.085 102.965Z" fill="white" mask="url(#path-4-outside-1_3512_20534)"/>
<defs>
<linearGradient id="paint0_linear_3512_20534" x1="13.2827" y1="92.0836" x2="85.8315" y2="102.344" gradientUnits="userSpaceOnUse">
<stop stop-opacity="0"/>
<stop offset="1"/>
</linearGradient>
</defs>
</svg>
