<svg width="214" height="186" viewBox="0 0 214 186" fill="none" xmlns="http://www.w3.org/2000/svg">
<path d="M26.3062 0H100.306L74.3062 186H0.306152L26.3062 0Z" fill="url(#paint0_linear_3512_20540)"/>
<path d="M100 0H214V186H74L100 0Z" fill="black"/>
<path d="M86.4499 66.6715C91.3625 33.9179 105.8 23 144.2 23H153.8C192.2 23 203.362 33.9179 198.45 66.6715L191.081 115.802C186.168 148.556 171.731 159.473 133.331 159.473H123.731C85.3308 159.473 74.1684 148.556 79.081 115.802L86.4499 66.6715Z" fill="#D3D3D3"/>
<mask id="path-4-outside-1_3512_20540" maskUnits="userSpaceOnUse" x="95" y="35" width="88" height="115" fill="black">
<rect fill="white" x="95" y="35" width="88" height="115"/>
<path d="M137.977 107.477H126.855L119.848 148H97.9863L117.182 37.0938L150.697 37.1699C160.6 37.4746 168.191 40.5215 173.473 46.3105C178.754 52.0996 180.988 59.9961 180.176 70C178.906 85.1836 172 95.7461 159.457 101.688L170.578 146.781V148H147.117L137.977 107.477ZM130.055 88.8145L141.557 88.9668C146.838 88.8652 151.002 86.7832 154.049 82.7207C157.096 78.6074 158.594 73.1738 158.543 66.4199C158.34 59.7676 155.42 56.2383 149.783 55.832L135.844 55.7559L130.055 88.8145Z"/>
</mask>
<path d="M137.977 107.477H126.855L119.848 148H97.9863L117.182 37.0938L150.697 37.1699C160.6 37.4746 168.191 40.5215 173.473 46.3105C178.754 52.0996 180.988 59.9961 180.176 70C178.906 85.1836 172 95.7461 159.457 101.688L170.578 146.781V148H147.117L137.977 107.477ZM130.055 88.8145L141.557 88.9668C146.838 88.8652 151.002 86.7832 154.049 82.7207C157.096 78.6074 158.594 73.1738 158.543 66.4199C158.34 59.7676 155.42 56.2383 149.783 55.832L135.844 55.7559L130.055 88.8145Z" fill="black"/>
<path d="M137.977 107.477L139.928 107.036L139.576 105.477H137.977V107.477ZM126.855 107.477V105.477H125.172L124.885 107.136L126.855 107.477ZM119.848 148V150H121.531L121.818 148.341L119.848 148ZM97.9863 148L96.0156 147.659L95.6104 150H97.9863V148ZM117.182 37.0938L117.186 35.0938L115.499 35.0899L115.211 36.7527L117.182 37.0938ZM150.697 37.1699L150.759 35.1709L150.73 35.17L150.702 35.1699L150.697 37.1699ZM180.176 70L182.169 70.1666L182.169 70.1619L180.176 70ZM159.457 101.688L158.601 99.88L157.124 100.58L157.515 102.166L159.457 101.688ZM170.578 146.781H172.578V146.538L172.52 146.302L170.578 146.781ZM170.578 148V150H172.578V148H170.578ZM147.117 148L145.166 148.44L145.518 150H147.117V148ZM130.055 88.8145L128.085 88.4695L127.68 90.7832L130.028 90.8143L130.055 88.8145ZM141.557 88.9668L141.53 90.9666L141.563 90.967L141.595 90.9664L141.557 88.9668ZM154.049 82.7207L155.649 83.9207L155.656 83.9112L154.049 82.7207ZM158.543 66.4199L160.543 66.4049L160.543 66.3819L160.542 66.3589L158.543 66.4199ZM149.783 55.832L149.927 53.8372L149.861 53.8324L149.794 53.8321L149.783 55.832ZM135.844 55.7559L135.855 53.7559L134.165 53.7467L133.874 55.4109L135.844 55.7559ZM137.977 105.477H126.855V109.477H137.977V105.477ZM124.885 107.136L117.877 147.659L121.818 148.341L128.826 107.817L124.885 107.136ZM119.848 146H97.9863V150H119.848V146ZM99.957 148.341L119.152 37.4348L115.211 36.7527L96.0156 147.659L99.957 148.341ZM117.177 39.0937L150.693 39.1699L150.702 35.1699L117.186 35.0938L117.177 39.0937ZM150.636 39.169C160.149 39.4617 167.169 42.3683 171.995 47.6585L174.95 44.9626C169.214 38.6746 161.051 35.4875 150.759 35.1709L150.636 39.169ZM171.995 47.6585C176.804 52.9298 178.963 60.2227 178.182 69.8381L182.169 70.1619C183.013 59.7695 180.704 51.2694 174.95 44.9626L171.995 47.6585ZM178.183 69.8334C176.966 84.3907 170.427 94.2784 158.601 99.88L160.313 103.495C173.573 97.2138 180.847 85.9765 182.169 70.1666L178.183 69.8334ZM157.515 102.166L168.636 147.26L172.52 146.302L161.399 101.209L157.515 102.166ZM168.578 146.781V148H172.578V146.781H168.578ZM170.578 146H147.117V150H170.578V146ZM149.068 147.56L139.928 107.036L136.026 107.917L145.166 148.44L149.068 147.56ZM130.028 90.8143L141.53 90.9666L141.583 86.967L130.081 86.8146L130.028 90.8143ZM141.595 90.9664C147.463 90.8536 152.215 88.4986 155.649 83.9207L152.449 81.5207C149.788 85.0678 146.212 86.8769 141.518 86.9672L141.595 90.9664ZM155.656 83.9112C159.033 79.3525 160.596 73.4544 160.543 66.4049L156.543 66.435C156.592 72.8932 155.159 77.8623 152.442 81.5303L155.656 83.9112ZM160.542 66.3589C160.433 62.7829 159.588 59.7405 157.742 57.5088C155.855 55.2289 153.154 54.0698 149.927 53.8372L149.639 57.8269C152.049 58.0005 153.626 58.8091 154.66 60.0586C155.733 61.3562 156.45 63.4046 156.544 66.481L160.542 66.3589ZM149.794 53.8321L135.855 53.7559L135.833 57.7558L149.772 57.832L149.794 53.8321ZM133.874 55.4109L128.085 88.4695L132.025 89.1594L137.814 56.1008L133.874 55.4109Z" fill="white" mask="url(#path-4-outside-1_3512_20540)"/>
<defs>
<linearGradient id="paint0_linear_3512_20540" x1="13.2827" y1="92.0836" x2="85.8315" y2="102.344" gradientUnits="userSpaceOnUse">
<stop stop-opacity="0"/>
<stop offset="1"/>
</linearGradient>
</defs>
</svg>
