<svg width="214" height="186" viewBox="0 0 214 186" fill="none" xmlns="http://www.w3.org/2000/svg">
<path d="M26.3062 0H100.306L74.3062 186H0.306152L26.3062 0Z" fill="url(#paint0_linear_3512_20546)"/>
<path d="M100 0H214V186H74L100 0Z" fill="black"/>
<path d="M86.4499 66.6715C91.3625 33.9179 105.8 23 144.2 23H153.8C192.2 23 203.362 33.9179 198.45 66.6715L191.081 115.802C186.168 148.556 171.731 159.473 133.331 159.473H123.731C85.3308 159.473 74.1684 148.556 79.081 115.802L86.4499 66.6715Z" fill="#D3D3D3"/>
<mask id="path-4-outside-1_3512_20546" maskUnits="userSpaceOnUse" x="99" y="33" width="84" height="119" fill="black">
<rect fill="white" x="99" y="33" width="84" height="119"/>
<path d="M150.012 118.293C150.52 114.535 149.961 111.412 148.336 108.924C146.762 106.385 143.436 103.922 138.357 101.535C133.33 99.0977 129.115 96.584 125.713 93.9941C116.42 86.9355 112.154 78.0234 112.916 67.2578C113.373 61.0625 115.303 55.5527 118.705 50.7285C122.158 45.8535 126.754 42.0703 132.492 39.3789C138.23 36.6875 144.375 35.418 150.926 35.5703C160.422 35.7734 167.836 39.0742 173.168 45.4727C178.551 51.8203 181.039 59.9707 180.633 69.9238L158.848 69.8477C159.406 59.4375 156.08 54.1562 148.869 54.0039C145.162 53.9023 141.963 55.1211 139.271 57.6602C136.631 60.1484 135.031 63.373 134.473 67.334C133.711 73.2754 137.824 78.3535 146.812 82.5684C155.801 86.7832 162.25 91.5312 166.16 96.8125C170.527 102.652 172.381 109.762 171.721 118.141C170.959 127.789 167.15 135.508 160.295 141.297C153.439 147.035 144.883 149.803 134.625 149.6C124.316 149.396 116.166 145.893 110.174 139.088C104.182 132.283 101.439 123.574 101.947 112.961L123.885 113.037C123.479 119.588 124.316 124.285 126.398 127.129C128.531 129.922 131.857 131.318 136.377 131.318C140.338 131.268 143.461 130.049 145.746 127.662C148.031 125.225 149.453 122.102 150.012 118.293Z"/>
</mask>
<path d="M150.012 118.293C150.52 114.535 149.961 111.412 148.336 108.924C146.762 106.385 143.436 103.922 138.357 101.535C133.33 99.0977 129.115 96.584 125.713 93.9941C116.42 86.9355 112.154 78.0234 112.916 67.2578C113.373 61.0625 115.303 55.5527 118.705 50.7285C122.158 45.8535 126.754 42.0703 132.492 39.3789C138.23 36.6875 144.375 35.418 150.926 35.5703C160.422 35.7734 167.836 39.0742 173.168 45.4727C178.551 51.8203 181.039 59.9707 180.633 69.9238L158.848 69.8477C159.406 59.4375 156.08 54.1562 148.869 54.0039C145.162 53.9023 141.963 55.1211 139.271 57.6602C136.631 60.1484 135.031 63.373 134.473 67.334C133.711 73.2754 137.824 78.3535 146.812 82.5684C155.801 86.7832 162.25 91.5312 166.16 96.8125C170.527 102.652 172.381 109.762 171.721 118.141C170.959 127.789 167.15 135.508 160.295 141.297C153.439 147.035 144.883 149.803 134.625 149.6C124.316 149.396 116.166 145.893 110.174 139.088C104.182 132.283 101.439 123.574 101.947 112.961L123.885 113.037C123.479 119.588 124.316 124.285 126.398 127.129C128.531 129.922 131.857 131.318 136.377 131.318C140.338 131.268 143.461 130.049 145.746 127.662C148.031 125.225 149.453 122.102 150.012 118.293Z" fill="black"/>
<path d="M150.012 118.293L151.991 118.583L151.992 118.572L151.994 118.561L150.012 118.293ZM148.336 108.924L146.636 109.978L146.649 109.998L146.661 110.017L148.336 108.924ZM138.357 101.535L137.485 103.335L137.496 103.34L137.507 103.345L138.357 101.535ZM125.713 93.9941L126.924 92.4027L126.923 92.4015L125.713 93.9941ZM112.916 67.2578L110.921 67.1107L110.921 67.1167L112.916 67.2578ZM118.705 50.7285L117.073 49.5725L117.071 49.5758L118.705 50.7285ZM150.926 35.5703L150.879 37.5698L150.883 37.5699L150.926 35.5703ZM173.168 45.4727L171.632 46.753L171.637 46.7596L171.643 46.7662L173.168 45.4727ZM180.633 69.9238L180.626 71.9238L182.553 71.9305L182.631 70.0054L180.633 69.9238ZM158.848 69.8477L156.851 69.7405L156.738 71.8403L158.841 71.8476L158.848 69.8477ZM148.869 54.0039L148.814 56.0032L148.827 56.0035L148.869 54.0039ZM139.271 57.6602L140.643 59.1157L140.644 59.1149L139.271 57.6602ZM134.473 67.334L132.492 67.0547L132.49 67.0672L132.489 67.0797L134.473 67.334ZM166.16 96.8125L164.553 98.0026L164.558 98.0103L166.16 96.8125ZM171.721 118.141L173.715 118.298L173.715 118.298L171.721 118.141ZM160.295 141.297L161.579 142.831L161.585 142.825L160.295 141.297ZM134.625 149.6L134.665 147.6L134.664 147.6L134.625 149.6ZM101.947 112.961L101.954 110.961L100.041 110.954L99.9496 112.865L101.947 112.961ZM123.885 113.037L125.881 113.161L126.012 111.044L123.892 111.037L123.885 113.037ZM126.398 127.129L124.785 128.31L124.797 128.327L124.809 128.343L126.398 127.129ZM136.377 131.318V133.318H136.39L136.403 133.318L136.377 131.318ZM145.746 127.662L147.191 129.045L147.198 129.038L147.205 129.03L145.746 127.662ZM151.994 118.561C152.548 114.462 151.964 110.822 150.01 107.83L146.661 110.017C147.958 112.003 148.491 114.608 148.03 118.025L151.994 118.561ZM150.036 107.87C148.146 104.821 144.375 102.154 139.208 99.7251L137.507 103.345C142.496 105.69 145.378 107.948 146.636 109.978L150.036 107.87ZM139.23 99.7355C134.288 97.3394 130.194 94.892 126.924 92.4027L124.502 95.5855C128.036 98.276 132.372 100.856 137.485 103.335L139.23 99.7355ZM126.923 92.4015C118.115 85.7117 114.201 77.4285 114.911 67.399L110.921 67.1167C110.107 78.6184 114.725 88.1593 124.503 95.5868L126.923 92.4015ZM114.911 67.405C115.342 61.5515 117.157 56.3933 120.339 51.8812L117.071 49.5758C113.448 54.7121 111.404 60.5735 110.921 67.1107L114.911 67.405ZM120.337 51.8846C123.578 47.3091 127.897 43.7434 133.341 41.1896L131.643 37.5682C125.611 40.3972 120.738 44.3979 117.073 49.5725L120.337 51.8846ZM133.341 41.1896C138.79 38.6341 144.627 37.4244 150.879 37.5698L150.972 33.5709C144.123 33.4116 137.671 34.7409 131.643 37.5682L133.341 41.1896ZM150.883 37.5699C159.891 37.7625 166.724 40.8641 171.632 46.753L174.704 44.1923C168.948 37.2843 160.953 33.7843 150.969 33.5708L150.883 37.5699ZM171.643 46.7662C176.639 52.6582 179.025 60.2862 178.634 69.8423L182.631 70.0054C183.054 59.6553 180.463 50.9825 174.693 44.1791L171.643 46.7662ZM180.64 67.9238L158.855 67.8477L158.841 71.8476L180.626 71.9238L180.64 67.9238ZM160.845 69.9548C161.133 64.5868 160.452 60.1687 158.464 57.0133C156.383 53.708 153.067 52.0921 148.911 52.0044L148.827 56.0035C151.882 56.068 153.835 57.169 155.08 59.1449C156.418 61.2707 157.121 64.6984 156.851 69.7405L160.845 69.9548ZM148.924 52.0047C144.689 51.8886 140.976 53.3022 137.899 56.2054L140.644 59.1149C142.949 56.94 145.635 55.916 148.814 56.0032L148.924 52.0047ZM137.9 56.2046C134.894 59.0368 133.107 62.6929 132.492 67.0547L136.453 67.6133C136.955 64.0532 138.367 61.2601 140.643 59.1157L137.9 56.2046ZM132.489 67.0797C131.551 74.3924 136.784 80.0746 145.963 84.3792L147.662 80.7576C138.865 76.6324 135.871 72.1584 136.456 67.5883L132.489 67.0797ZM145.963 84.3792C154.792 88.5192 160.915 93.0899 164.553 98.0026L167.768 95.6224C163.585 89.9726 156.809 85.0472 147.662 80.7576L145.963 84.3792ZM164.558 98.0103C168.591 103.402 170.355 110.01 169.727 117.984L173.715 118.298C174.407 109.513 172.464 101.902 167.762 95.6147L164.558 98.0103ZM169.727 117.983C169.004 127.146 165.418 134.353 159.005 139.769L161.585 142.825C168.883 136.662 172.914 128.433 173.715 118.298L169.727 117.983ZM159.011 139.763C152.58 145.146 144.515 147.795 134.665 147.6L134.585 151.599C145.25 151.81 154.299 148.924 161.579 142.831L159.011 139.763ZM134.664 147.6C124.832 147.406 117.244 144.09 111.675 137.766L108.673 140.41C115.088 147.695 123.801 151.387 134.586 151.599L134.664 147.6ZM111.675 137.766C106.085 131.418 103.457 123.246 103.945 113.057L99.9496 112.865C99.4215 123.902 102.279 133.149 108.673 140.41L111.675 137.766ZM101.94 114.961L123.878 115.037L123.892 111.037L101.954 110.961L101.94 114.961ZM121.889 112.913C121.475 119.578 122.272 124.879 124.785 128.31L128.012 125.947C126.36 123.691 125.482 119.598 125.881 113.161L121.889 112.913ZM124.809 128.343C127.425 131.768 131.429 133.318 136.377 133.318V129.318C132.286 129.318 129.638 128.076 127.988 125.915L124.809 128.343ZM136.403 133.318C140.786 133.262 144.462 131.895 147.191 129.045L144.301 126.279C142.46 128.202 139.89 129.273 136.351 129.319L136.403 133.318ZM147.205 129.03C149.81 126.251 151.382 122.732 151.991 118.583L148.033 118.003C147.524 121.471 146.252 124.198 144.287 126.294L147.205 129.03Z" fill="white" mask="url(#path-4-outside-1_3512_20546)"/>
<defs>
<linearGradient id="paint0_linear_3512_20546" x1="13.2827" y1="92.0836" x2="85.8315" y2="102.344" gradientUnits="userSpaceOnUse">
<stop stop-opacity="0"/>
<stop offset="1"/>
</linearGradient>
</defs>
</svg>
