<svg width="214" height="186" viewBox="0 0 214 186" fill="none" xmlns="http://www.w3.org/2000/svg">
<path d="M26.3062 0H100.306L74.3062 186H0.306152L26.3062 0Z" fill="url(#paint0_linear_3512_20552)"/>
<path d="M100 0H214V186H74L100 0Z" fill="black"/>
<path d="M86.4499 66.6715C91.3625 33.9179 105.8 23 144.2 23H153.8C192.2 23 203.362 33.9179 198.45 66.6715L191.081 115.802C186.168 148.556 171.731 159.473 133.331 159.473H123.731C85.3308 159.473 74.1684 148.556 79.081 115.802L86.4499 66.6715Z" fill="#D3D3D3"/>
<mask id="path-4-outside-1_3512_20552" maskUnits="userSpaceOnUse" x="106" y="35" width="84" height="115" fill="black">
<rect fill="white" x="106" y="35" width="84" height="115"/>
<path d="M183.941 55.7559H157.357L141.361 148H119.424L135.42 55.7559H109.217L112.492 37.0938H187.217L183.941 55.7559Z"/>
</mask>
<path d="M183.941 55.7559H157.357L141.361 148H119.424L135.42 55.7559H109.217L112.492 37.0938H187.217L183.941 55.7559Z" fill="black"/>
<path d="M183.941 55.7559V57.7559H185.621L185.911 56.1016L183.941 55.7559ZM157.357 55.7559V53.7559H155.674L155.387 55.4141L157.357 55.7559ZM141.361 148V150H143.044L143.332 148.342L141.361 148ZM119.424 148L117.453 147.658L117.047 150H119.424V148ZM135.42 55.7559L137.391 56.0976L137.797 53.7559H135.42V55.7559ZM109.217 55.7559L107.247 55.4101L106.835 57.7559H109.217V55.7559ZM112.492 37.0938V35.0938H110.813L110.522 36.748L112.492 37.0938ZM187.217 37.0938L189.187 37.4395L189.598 35.0938H187.217V37.0938ZM183.941 53.7559H157.357V57.7559H183.941V53.7559ZM155.387 55.4141L139.391 147.658L143.332 148.342L159.328 56.0976L155.387 55.4141ZM141.361 146H119.424V150H141.361V146ZM121.394 148.342L137.391 56.0976L133.449 55.4141L117.453 147.658L121.394 148.342ZM135.42 53.7559H109.217V57.7559H135.42V53.7559ZM111.187 56.1016L114.462 37.4395L110.522 36.748L107.247 55.4101L111.187 56.1016ZM112.492 39.0938H187.217V35.0938H112.492V39.0938ZM185.247 36.748L181.972 55.4101L185.911 56.1016L189.187 37.4395L185.247 36.748Z" fill="white" mask="url(#path-4-outside-1_3512_20552)"/>
<defs>
<linearGradient id="paint0_linear_3512_20552" x1="13.2827" y1="92.0836" x2="85.8315" y2="102.344" gradientUnits="userSpaceOnUse">
<stop stop-opacity="0"/>
<stop offset="1"/>
</linearGradient>
</defs>
</svg>
