<svg width="214" height="186" viewBox="0 0 214 186" fill="none" xmlns="http://www.w3.org/2000/svg">
<path d="M26.3062 0H100.306L74.3062 186H0.306152L26.3062 0Z" fill="url(#paint0_linear_3512_20558)"/>
<path d="M100 0H214V186H74L100 0Z" fill="black"/>
<path d="M86.4499 66.6715C91.3625 33.9179 105.8 23 144.2 23H153.8C192.2 23 203.362 33.9179 198.45 66.6715L191.081 115.802C186.168 148.556 171.731 159.473 133.331 159.473H123.731C85.3308 159.473 74.1684 148.556 79.081 115.802L86.4499 66.6715Z" fill="#D3D3D3"/>
<mask id="path-4-outside-1_3512_20558" maskUnits="userSpaceOnUse" x="100" y="35" width="89" height="117" fill="black">
<rect fill="white" x="100" y="35" width="89" height="117"/>
<path d="M186.379 37.0938L173.43 113.266C171.855 124.793 167.564 133.781 160.557 140.23C153.549 146.68 144.357 149.803 132.982 149.6C122.318 149.396 114.244 146.045 108.76 139.545C103.275 133.045 101.168 124.285 102.438 113.266L115.387 37.0938H137.324L124.527 113.342L124.223 119.893C124.223 127.002 127.752 130.684 134.811 130.938C139.686 131.09 143.494 129.795 146.236 127.053C148.979 124.311 150.781 119.74 151.645 113.342L164.518 37.0938H186.379Z"/>
</mask>
<path d="M186.379 37.0938L173.43 113.266C171.855 124.793 167.564 133.781 160.557 140.23C153.549 146.68 144.357 149.803 132.982 149.6C122.318 149.396 114.244 146.045 108.76 139.545C103.275 133.045 101.168 124.285 102.438 113.266L115.387 37.0938H137.324L124.527 113.342L124.223 119.893C124.223 127.002 127.752 130.684 134.811 130.938C139.686 131.09 143.494 129.795 146.236 127.053C148.979 124.311 150.781 119.74 151.645 113.342L164.518 37.0938H186.379Z" fill="black"/>
<path d="M186.379 37.0938L188.351 37.4289L188.748 35.0938H186.379V37.0938ZM173.43 113.266L171.458 112.93L171.452 112.963L171.448 112.995L173.43 113.266ZM132.982 149.6L132.944 151.599L132.947 151.599L132.982 149.6ZM102.438 113.266L100.466 112.93L100.457 112.983L100.451 113.037L102.438 113.266ZM115.387 37.0938V35.0938H113.698L113.415 36.7586L115.387 37.0938ZM137.324 37.0938L139.297 37.4248L139.688 35.0938H137.324V37.0938ZM124.527 113.342L122.555 113.011L122.535 113.129L122.53 113.249L124.527 113.342ZM124.223 119.893L122.225 119.8L122.223 119.846V119.893H124.223ZM134.811 130.938L134.739 132.936L134.748 132.937L134.811 130.938ZM151.645 113.342L149.672 113.009L149.667 113.042L149.662 113.074L151.645 113.342ZM164.518 37.0938V35.0938H162.827L162.545 36.7608L164.518 37.0938ZM184.407 36.7586L171.458 112.93L175.401 113.601L188.351 37.4289L184.407 36.7586ZM171.448 112.995C169.922 124.167 165.797 132.69 159.202 138.759L161.911 141.702C169.332 134.872 173.789 125.419 175.411 113.536L171.448 112.995ZM159.202 138.759C152.644 144.794 143.986 147.796 133.018 147.6L132.947 151.599C144.729 151.81 154.453 148.565 161.911 141.702L159.202 138.759ZM133.021 147.6C122.775 147.405 115.31 144.207 110.288 138.255L107.231 140.835C113.178 147.883 121.862 151.388 132.944 151.599L133.021 147.6ZM110.288 138.255C105.259 132.295 103.198 124.142 104.424 113.495L100.451 113.037C99.1382 124.429 101.292 133.795 107.231 140.835L110.288 138.255ZM104.409 113.601L117.358 37.4289L113.415 36.7586L100.466 112.93L104.409 113.601ZM115.387 39.0938H137.324V35.0938H115.387V39.0938ZM135.352 36.7627L122.555 113.011L126.5 113.673L139.297 37.4248L135.352 36.7627ZM122.53 113.249L122.225 119.8L126.22 119.986L126.525 113.435L122.53 113.249ZM122.223 119.893C122.223 123.758 123.184 127.031 125.426 129.37C127.67 131.711 130.893 132.798 134.739 132.936L134.882 128.939C131.67 128.823 129.599 127.942 128.313 126.602C127.026 125.259 126.223 123.137 126.223 119.893H122.223ZM134.748 132.937C140.024 133.101 144.422 131.695 147.651 128.467L144.822 125.639C142.566 127.895 139.348 129.078 134.873 128.938L134.748 132.937ZM147.651 128.467C150.849 125.269 152.74 120.178 153.627 113.609L149.662 113.074C148.822 119.302 147.108 123.352 144.822 125.639L147.651 128.467ZM153.617 113.675L166.49 37.4267L162.545 36.7608L149.672 113.009L153.617 113.675ZM164.518 39.0938H186.379V35.0938H164.518V39.0938Z" fill="white" mask="url(#path-4-outside-1_3512_20558)"/>
<defs>
<linearGradient id="paint0_linear_3512_20558" x1="13.2827" y1="92.0836" x2="85.8315" y2="102.344" gradientUnits="userSpaceOnUse">
<stop stop-opacity="0"/>
<stop offset="1"/>
</linearGradient>
</defs>
</svg>
