<svg width="214" height="186" viewBox="0 0 214 186" fill="none" xmlns="http://www.w3.org/2000/svg">
<path d="M26.3062 0H100.306L74.3062 186H0.306152L26.3062 0Z" fill="url(#paint0_linear_3512_20564)"/>
<path d="M100 0H214V186H74L100 0Z" fill="black"/>
<path d="M86.4499 66.6715C91.3625 33.9179 105.8 23 144.2 23H153.8C192.2 23 203.362 33.9179 198.45 66.6715L191.081 115.802C186.168 148.556 171.731 159.473 133.331 159.473H123.731C85.3308 159.473 74.1684 148.556 79.081 115.802L86.4499 66.6715Z" fill="#D3D3D3"/>
<mask id="path-4-outside-1_3512_20564" maskUnits="userSpaceOnUse" x="105" y="35" width="91" height="115" fill="black">
<rect fill="white" x="105" y="35" width="91" height="115"/>
<path d="M136.453 117.303L167.074 37.0938H191.982L143.613 148H120.838L107.355 37.0938H131.045L136.453 117.303Z"/>
</mask>
<path d="M136.453 117.303L167.074 37.0938H191.982L143.613 148H120.838L107.355 37.0938H131.045L136.453 117.303Z" fill="black"/>
<path d="M136.453 117.303L134.458 117.437L138.322 118.016L136.453 117.303ZM167.074 37.0938V35.0938H165.697L165.206 36.3804L167.074 37.0938ZM191.982 37.0938L193.816 37.8933L195.037 35.0938H191.982V37.0938ZM143.613 148V150H144.923L145.447 148.8L143.613 148ZM120.838 148L118.853 148.241L119.066 150H120.838V148ZM107.355 37.0938V35.0938H105.098L105.37 37.3351L107.355 37.0938ZM131.045 37.0938L133.04 36.9592L132.915 35.0938H131.045V37.0938ZM138.322 118.016L168.943 37.8071L165.206 36.3804L134.585 116.589L138.322 118.016ZM167.074 39.0938H191.982V35.0938H167.074V39.0938ZM190.149 36.2942L141.78 147.2L145.447 148.8L193.816 37.8933L190.149 36.2942ZM143.613 146H120.838V150H143.613V146ZM122.823 147.759L109.341 36.8524L105.37 37.3351L118.853 148.241L122.823 147.759ZM107.355 39.0938H131.045V35.0938H107.355V39.0938ZM129.049 37.2283L134.458 117.437L138.449 117.168L133.04 36.9592L129.049 37.2283Z" fill="white" mask="url(#path-4-outside-1_3512_20564)"/>
<defs>
<linearGradient id="paint0_linear_3512_20564" x1="13.2827" y1="92.0836" x2="85.8315" y2="102.344" gradientUnits="userSpaceOnUse">
<stop stop-opacity="0"/>
<stop offset="1"/>
</linearGradient>
</defs>
</svg>
