<svg width="214" height="186" viewBox="0 0 214 186" fill="none" xmlns="http://www.w3.org/2000/svg">
<path d="M26.3062 0H100.306L74.3062 186H0.306152L26.3062 0Z" fill="url(#paint0_linear_3512_20570)"/>
<path d="M100 0H214V186H74L100 0Z" fill="black"/>
<path d="M86.4499 66.6715C91.3625 33.9179 105.8 23 144.2 23H153.8C192.2 23 203.362 33.9179 198.45 66.6715L191.081 115.802C186.168 148.556 171.731 159.473 133.331 159.473H123.731C85.3308 159.473 74.1684 148.556 79.081 115.802L86.4499 66.6715Z" fill="#D3D3D3"/>
<mask id="path-4-outside-1_3512_20570" maskUnits="userSpaceOnUse" x="93" y="35" width="113" height="115" fill="black">
<rect fill="white" x="93" y="35" width="113" height="115"/>
<path d="M160.143 106.486L181.166 37.0938H203.104L166.693 148H144.756L142.471 82.9492L119.924 148H97.9102L96.0059 37.0938H117.486L116.648 106.258L140.033 37.0938H158.467L160.143 106.486Z"/>
</mask>
<path d="M160.143 106.486L181.166 37.0938H203.104L166.693 148H144.756L142.471 82.9492L119.924 148H97.9102L96.0059 37.0938H117.486L116.648 106.258L140.033 37.0938H158.467L160.143 106.486Z" fill="black"/>
<path d="M160.143 106.486L158.143 106.535L162.057 107.066L160.143 106.486ZM181.166 37.0938V35.0938H179.682L179.252 36.5139L181.166 37.0938ZM203.104 37.0938L205.004 37.7176L205.865 35.0938H203.104V37.0938ZM166.693 148V150H168.142L168.594 148.624L166.693 148ZM144.756 148L142.757 148.07L142.825 150H144.756V148ZM142.471 82.9492L144.469 82.879L140.581 82.2942L142.471 82.9492ZM119.924 148V150H121.347L121.814 148.655L119.924 148ZM97.9102 148L95.9105 148.034L95.9442 150H97.9102V148ZM96.0059 37.0938V35.0938H93.9712L94.0062 37.1281L96.0059 37.0938ZM117.486 37.0938L119.486 37.118L119.511 35.0938H117.486V37.0938ZM116.648 106.258L114.649 106.234L118.543 106.898L116.648 106.258ZM140.033 37.0938V35.0938H138.598L138.139 36.4532L140.033 37.0938ZM158.467 37.0938L160.466 37.0455L160.419 35.0938H158.467V37.0938ZM162.057 107.066L183.08 37.6736L179.252 36.5139L158.228 105.906L162.057 107.066ZM181.166 39.0938H203.104V35.0938H181.166V39.0938ZM201.203 36.4699L164.793 147.376L168.594 148.624L205.004 37.7176L201.203 36.4699ZM166.693 146H144.756V150H166.693V146ZM146.755 147.93L144.469 82.879L140.472 83.0194L142.757 148.07L146.755 147.93ZM140.581 82.2942L118.034 147.345L121.814 148.655L144.36 83.6042L140.581 82.2942ZM119.924 146H97.9102V150H119.924V146ZM99.9099 147.966L98.0056 37.0594L94.0062 37.1281L95.9105 148.034L99.9099 147.966ZM96.0059 39.0938H117.486V35.0938H96.0059V39.0938ZM115.486 37.0695L114.649 106.234L118.648 106.282L119.486 37.118L115.486 37.0695ZM118.543 106.898L141.928 37.7343L138.139 36.4532L114.754 105.617L118.543 106.898ZM140.033 39.0938H158.467V35.0938H140.033V39.0938ZM156.467 37.142L158.143 106.535L162.142 106.438L160.466 37.0455L156.467 37.142Z" fill="white" mask="url(#path-4-outside-1_3512_20570)"/>
<defs>
<linearGradient id="paint0_linear_3512_20570" x1="13.2827" y1="92.0836" x2="85.8315" y2="102.344" gradientUnits="userSpaceOnUse">
<stop stop-opacity="0"/>
<stop offset="1"/>
</linearGradient>
</defs>
</svg>
