<svg width="214" height="186" viewBox="0 0 214 186" fill="none" xmlns="http://www.w3.org/2000/svg">
<path d="M26.3062 0H100.306L74.3062 186H0.306152L26.3062 0Z" fill="url(#paint0_linear_3512_20576)"/>
<path d="M100 0H214V186H74L100 0Z" fill="black"/>
<path d="M86.4499 66.6715C91.3625 33.9179 105.8 23 144.2 23H153.8C192.2 23 203.362 33.9179 198.45 66.6715L191.081 115.802C186.168 148.556 171.731 159.473 133.331 159.473H123.731C85.3308 159.473 74.1684 148.556 79.081 115.802L86.4499 66.6715Z" fill="#D3D3D3"/>
<mask id="path-4-outside-1_3512_20576" maskUnits="userSpaceOnUse" x="87" y="35" width="106" height="115" fill="black">
<rect fill="white" x="87" y="35" width="106" height="115"/>
<path d="M142.504 75.0273L162.842 37.0938H188.664L154.234 93.0801L171.068 148H146.541L137.934 109.381L117.215 148H91.0879L126.279 91.1758L109.826 37.0938H133.973L142.504 75.0273Z"/>
</mask>
<path d="M142.504 75.0273L162.842 37.0938H188.664L154.234 93.0801L171.068 148H146.541L137.934 109.381L117.215 148H91.0879L126.279 91.1758L109.826 37.0938H133.973L142.504 75.0273Z" fill="black"/>
<path d="M142.504 75.0273L140.553 75.4662L141.73 80.7028L144.267 75.9724L142.504 75.0273ZM162.842 37.0938V35.0938H161.645L161.079 36.1487L162.842 37.0938ZM188.664 37.0938L190.368 38.1414L192.242 35.0938H188.664V37.0938ZM154.234 93.0801L152.531 92.0324L152.057 92.8022L152.322 93.6662L154.234 93.0801ZM171.068 148V150H173.773L172.981 147.414L171.068 148ZM146.541 148L144.589 148.435L144.938 150H146.541V148ZM137.934 109.381L139.886 108.946L138.715 103.694L136.171 108.435L137.934 109.381ZM117.215 148V150H118.412L118.977 148.946L117.215 148ZM91.0879 148L89.3876 146.947L87.4968 150H91.0879V148ZM126.279 91.1758L127.98 92.2288L128.456 91.4594L128.193 90.5937L126.279 91.1758ZM109.826 37.0938V35.0938H107.127L107.913 37.6759L109.826 37.0938ZM133.973 37.0938L135.924 36.6549L135.573 35.0938H133.973V37.0938ZM144.267 75.9724L164.604 38.0388L161.079 36.1487L140.741 74.0823L144.267 75.9724ZM162.842 39.0938H188.664V35.0938H162.842V39.0938ZM186.96 36.0461L152.531 92.0324L155.938 94.1278L190.368 38.1414L186.96 36.0461ZM152.322 93.6662L169.156 148.586L172.981 147.414L156.147 92.494L152.322 93.6662ZM171.068 146H146.541V150H171.068V146ZM148.493 147.565L139.886 108.946L135.981 109.816L144.589 148.435L148.493 147.565ZM136.171 108.435L115.452 147.054L118.977 148.946L139.696 110.326L136.171 108.435ZM117.215 146H91.0879V150H117.215V146ZM92.7882 149.053L127.98 92.2288L124.579 90.1228L89.3876 146.947L92.7882 149.053ZM128.193 90.5937L111.74 36.5116L107.913 37.6759L124.366 91.7579L128.193 90.5937ZM109.826 39.0938H133.973V35.0938H109.826V39.0938ZM132.021 37.5326L140.553 75.4662L144.455 74.5885L135.924 36.6549L132.021 37.5326Z" fill="white" mask="url(#path-4-outside-1_3512_20576)"/>
<defs>
<linearGradient id="paint0_linear_3512_20576" x1="13.2827" y1="92.0836" x2="85.8315" y2="102.344" gradientUnits="userSpaceOnUse">
<stop stop-opacity="0"/>
<stop offset="1"/>
</linearGradient>
</defs>
</svg>
