<svg width="214" height="186" viewBox="0 0 214 186" fill="none" xmlns="http://www.w3.org/2000/svg">
<path d="M26.3062 0H100.306L74.3062 186H0.306152L26.3062 0Z" fill="url(#paint0_linear_3512_20582)"/>
<path d="M100 0H214V186H74L100 0Z" fill="black"/>
<path d="M86.4499 66.6715C91.3625 33.9179 105.8 23 144.2 23H153.8C192.2 23 203.362 33.9179 198.45 66.6715L191.081 115.802C186.168 148.556 171.731 159.473 133.331 159.473H123.731C85.3308 159.473 74.1684 148.556 79.081 115.802L86.4499 66.6715Z" fill="#D3D3D3"/>
<mask id="path-4-outside-1_3512_20582" maskUnits="userSpaceOnUse" x="108" y="35" width="87" height="115" fill="black">
<rect fill="white" x="108" y="35" width="87" height="115"/>
<path d="M141.48 86.6816L166.236 37.0938H190.84L149.098 108.848L142.318 148H120.152L127.389 106.639L110.936 37.0938H133.939L141.48 86.6816Z"/>
</mask>
<path d="M141.48 86.6816L166.236 37.0938H190.84L149.098 108.848L142.318 148H120.152L127.389 106.639L110.936 37.0938H133.939L141.48 86.6816Z" fill="black"/>
<path d="M141.48 86.6816L139.503 86.9823L140.452 93.2199L143.27 87.575L141.48 86.6816ZM166.236 37.0938V35.0938H164.999L164.447 36.2004L166.236 37.0938ZM190.84 37.0938L192.569 38.0994L194.317 35.0938H190.84V37.0938ZM149.098 108.848L147.369 107.842L147.188 108.152L147.127 108.506L149.098 108.848ZM142.318 148V150H144.002L144.289 148.341L142.318 148ZM120.152 148L118.182 147.655L117.772 150H120.152V148ZM127.389 106.639L129.359 106.983L129.43 106.578L129.335 106.178L127.389 106.639ZM110.936 37.0938V35.0938H108.407L108.989 37.5542L110.936 37.0938ZM133.939 37.0938L135.917 36.7931L135.658 35.0938H133.939V37.0938ZM143.27 87.575L168.026 37.9871L164.447 36.2004L139.691 85.7883L143.27 87.575ZM166.236 39.0938H190.84V35.0938H166.236V39.0938ZM189.111 36.0881L147.369 107.842L150.826 109.853L192.569 38.0994L189.111 36.0881ZM147.127 108.506L140.348 147.659L144.289 148.341L151.068 109.189L147.127 108.506ZM142.318 146H120.152V150H142.318V146ZM122.122 148.345L129.359 106.983L125.419 106.294L118.182 147.655L122.122 148.345ZM129.335 106.178L112.882 36.6333L108.989 37.5542L125.442 107.099L129.335 106.178ZM110.936 39.0938H133.939V35.0938H110.936V39.0938ZM131.962 37.3944L139.503 86.9823L143.458 86.381L135.917 36.7931L131.962 37.3944Z" fill="white" mask="url(#path-4-outside-1_3512_20582)"/>
<defs>
<linearGradient id="paint0_linear_3512_20582" x1="13.2827" y1="92.0836" x2="85.8315" y2="102.344" gradientUnits="userSpaceOnUse">
<stop stop-opacity="0"/>
<stop offset="1"/>
</linearGradient>
</defs>
</svg>
