<svg width="214" height="186" viewBox="0 0 214 186" fill="none" xmlns="http://www.w3.org/2000/svg">
<path d="M26.3062 0H100.306L74.3062 186H0.306152L26.3062 0Z" fill="url(#paint0_linear_3512_20588)"/>
<path d="M100 0H214V186H74L100 0Z" fill="black"/>
<path d="M86.4499 66.6715C91.3625 33.9179 105.8 23 144.2 23H153.8C192.2 23 203.362 33.9179 198.45 66.6715L191.081 115.802C186.168 148.556 171.731 159.473 133.331 159.473H123.731C85.3308 159.473 74.1684 148.556 79.081 115.802L86.4499 66.6715Z" fill="#D3D3D3"/>
<mask id="path-4-outside-1_3512_20588" maskUnits="userSpaceOnUse" x="93" y="35" width="94" height="115" fill="black">
<rect fill="white" x="93" y="35" width="94" height="115"/>
<path d="M125.594 129.414H169.393L166.117 148H96.2676L98.7812 133.527L155.605 55.7559H111.807L115.082 37.0938H184.551L182.113 51.2617L125.594 129.414Z"/>
</mask>
<path d="M125.594 129.414H169.393L166.117 148H96.2676L98.7812 133.527L155.605 55.7559H111.807L115.082 37.0938H184.551L182.113 51.2617L125.594 129.414Z" fill="black"/>
<path d="M125.594 129.414L123.973 128.242L121.679 131.414H125.594V129.414ZM169.393 129.414L171.362 129.761L171.776 127.414H169.393V129.414ZM166.117 148V150H167.796L168.087 148.347L166.117 148ZM96.2676 148L94.2971 147.658L93.8903 150H96.2676V148ZM98.7812 133.527L97.1664 132.347L96.8907 132.725L96.8108 133.185L98.7812 133.527ZM155.605 55.7559L157.22 56.9358L159.544 53.7559H155.605V55.7559ZM111.807 55.7559L109.837 55.4101L109.425 57.7559H111.807V55.7559ZM115.082 37.0938V35.0938H113.402L113.112 36.748L115.082 37.0938ZM184.551 37.0938L186.522 37.4329L186.924 35.0938H184.551V37.0938ZM182.113 51.2617L183.734 52.4337L184.006 52.0579L184.084 51.6008L182.113 51.2617ZM125.594 131.414H169.393V127.414H125.594V131.414ZM167.423 129.067L164.148 147.653L168.087 148.347L171.362 129.761L167.423 129.067ZM166.117 146H96.2676V150H166.117V146ZM98.2381 148.342L100.752 133.87L96.8108 133.185L94.2971 147.658L98.2381 148.342ZM100.396 134.707L157.22 56.9358L153.991 54.5759L97.1664 132.347L100.396 134.707ZM155.605 53.7559H111.807V57.7559H155.605V53.7559ZM113.777 56.1016L117.052 37.4395L113.112 36.748L109.837 55.4101L113.777 56.1016ZM115.082 39.0938H184.551V35.0938H115.082V39.0938ZM182.58 36.7546L180.142 50.9226L184.084 51.6008L186.522 37.4329L182.58 36.7546ZM180.493 50.0897L123.973 128.242L127.214 130.586L183.734 52.4337L180.493 50.0897Z" fill="white" mask="url(#path-4-outside-1_3512_20588)"/>
<defs>
<linearGradient id="paint0_linear_3512_20588" x1="13.2827" y1="92.0836" x2="85.8315" y2="102.344" gradientUnits="userSpaceOnUse">
<stop stop-opacity="0"/>
<stop offset="1"/>
</linearGradient>
</defs>
</svg>
